<svg width="3568" height="6945" viewBox="0 0 3568 6945" fill="none" xmlns="http://www.w3.org/2000/svg">
<path d="M1231.58 100.033C1092.5 100.033 957.95 85.0831 833.75 147.183C708.508 209.804 522.184 394.775 490.433 537.65C461.382 668.381 431.428 811.171 555.266 907.489C638.587 972.294 755.244 1004.18 801.334 1107.88C841.201 1197.58 814.63 1406.96 748.289 1473.3C721.435 1500.15 710.527 1629.96 686.404 1636.85C630.3 1652.88 500.949 1683.01 462.438 1731.15C428.084 1774.1 325.344 1767.28 276.782 1791.57C209.336 1825.29 191.088 1892.23 158.905 1956.59C90.0203 2094.36 70.2645 2275.25 64.6033 2428.1C52.989 2741.69 11.5588 3053.73 11.5588 3362.27C11.5588 3489.44 -27.6707 3696.41 52.8157 3799.89C160.241 3938.01 294.812 3972.29 462.438 3972.29C693.12 3972.29 648.094 3255.82 648.094 3085.26C648.094 2979.54 582.253 2839.98 689.351 2778.78C795.958 2717.87 966.361 2580.4 966.361 2778.78C966.361 2911.4 966.361 3044.01 966.361 3176.62C966.361 3330.01 913.317 3467.02 913.317 3614.24C913.317 3756.5 886.794 3893.48 886.794 4040.07C886.794 4123.56 886.794 4207.06 886.794 4290.55C886.794 4325.71 888.858 4361.56 886.794 4396.64C883.883 4446.14 836.517 4405.66 833.75 4408.43C786.756 4455.42 833.75 4799.06 833.75 4874.04C833.75 5025.82 832.26 5167.35 805.754 5313.14C739.808 5675.84 542.005 5998.18 542.005 6379.92C542.005 6448.19 542.005 6516.46 542.005 6584.73C542.005 6681.37 621.445 6651.04 701.138 6651.04C857.505 6651.04 940.669 6605.18 1085.71 6572.94C1186.54 6550.54 1376.71 6509.41 1443.76 6425.6C1531.66 6315.73 1594.72 6100.44 1602.9 5961.46C1610.89 5825.61 1655.94 5655.56 1655.94 5510.58C1655.94 5355.89 1629.42 5193.12 1629.42 5046.44C1629.42 5033.76 1625.68 4870.7 1655.94 4885.83C1718.84 4917.28 1803.03 5077.18 1835.7 5139.27C1916.36 5292.51 1921.16 5399.84 1921.16 5575.41C1921.16 6004.54 1824.66 6575.19 2218.8 6863.22C2287.95 6913.75 2341.71 7006.35 2370.57 6876.48C2389.99 6789.1 2413.32 6708.27 2451.61 6624.52C2521.87 6470.81 2580.47 6153.87 2529.7 5976.19C2497 5861.75 2384.23 5716.27 2332.26 5601.93C2255.89 5433.91 2316.29 5115.98 2366.15 4947.72C2440.12 4698.06 2478.13 4385.6 2478.13 4118.16C2478.13 3991.26 2478.13 3839.55 2478.13 3720.33C2478.13 3605.66 2398.56 3488.99 2398.56 3362.27C2398.56 3181.17 2244.14 2619.65 2544.44 2619.65C2785.93 2619.65 2944.34 3028.12 2955.53 3229.66C2957.49 3264.89 2995.04 3367.36 3021.84 3388.8C3054.97 3415.3 3035.1 3533.68 3035.1 3574.45C3035.1 3640.53 3114.59 3826.31 3155.92 3879.46C3373.89 4159.7 3565.55 3607.68 3565.55 3441.84C3565.55 3306.06 3546.16 3172.55 3539.02 3044.01C3533.05 2936.54 3499.29 2728.49 3446.2 2632.91C3367.95 2492.06 3415.36 2290.96 3340.11 2155.51C3264.46 2019.34 3169.94 2000.08 3067.52 1897.65C2873.52 1703.65 2762.63 1522.31 2517.92 1386.36C2422.08 1333.12 2329.35 1231.85 2201.12 1268.49C2086.71 1301.18 1958.6 1315.21 1841.6 1367.21C1786.08 1391.88 1501.55 1400.62 1496.81 1320.06C1488.1 1172.07 1456.34 1086.21 1523.33 935.485C1628.79 698.207 1979.23 550.563 1741.4 253.273C1709.03 212.814 1696.81 156.644 1644.15 126.555C1613.73 109.169 1512.7 53.592 1496.81 33.7269C1437.84 -39.9849 1187.83 28.417 1152.02 100.033" stroke="black" stroke-width="3" stroke-linecap="round"/>
<ellipse id="head" cx="2064.69" cy="2478.57" rx="281" ry="274" fill="#D9D9D9"/>
</svg>
