<svg width="10135" height="19496" viewBox="0 0 10135 19496" fill="none" xmlns="http://www.w3.org/2000/svg">
<path d="M3273.43 9529.94C2751.63 11548.4 2336.36 12537.6 1954.66 12433.4C1457.66 12297.6 2256.78 11105 2450.62 9292.91C3010.81 7288.13 3461.29 6408.44 3924.39 6222.02C4479.12 6382.01 3291.96 7894.54 3273.43 9529.94Z" fill="#F8E3BC"/>
<path d="M3273.43 9529.94C2751.63 11548.4 2336.36 12537.6 1954.66 12433.4C1457.66 12297.6 2256.78 11105 2450.62 9292.91C3010.81 7288.13 3461.29 6408.44 3924.39 6222.02C4479.12 6382.01 3291.96 7894.54 3273.43 9529.94Z" fill="#F8E3BC"/>
<path d="M8463.35 8920.46C9271.2 10672.9 9183.8 11662.9 8935.3 11919.7C8592.73 12273.6 7936.57 10797.9 7648.73 9126.62C7047.58 7633.21 6217.87 6299.76 6680.97 6113.35C7144.07 5926.93 7900.01 7216.28 8463.35 8920.46Z" fill="#F8E3BC"/>
<path d="M8463.35 8920.46C9271.2 10672.9 9183.8 11662.9 8935.3 11919.7C8592.73 12273.6 7936.57 10797.9 7648.73 9126.62C7047.58 7633.21 6217.87 6299.76 6680.97 6113.35C7144.07 5926.93 7900.01 7216.28 8463.35 8920.46Z" fill="#F8E3BC"/>
<path id="backarm" d="M3273.43 9529.94C2751.63 11548.4 2336.36 12537.6 1954.66 12433.4C1457.66 12297.6 2256.78 11105 2450.62 9292.91C3010.81 7288.13 3461.29 6408.44 3924.39 6222.02C4479.12 6382.01 3291.96 7894.54 3273.43 9529.94ZM8463.35 8920.46C9271.2 10672.9 9183.8 11662.9 8935.3 11919.7C8592.73 12273.6 7936.57 10797.9 7648.73 9126.62C7047.58 7633.21 6217.87 6299.76 6680.97 6113.35C7144.07 5926.93 7900.01 7216.28 8463.35 8920.46Z" stroke="black" stroke-width="70"/>
<path id="backlegl" d="M3241.22 15125.3L3240.88 15122.7C3094.18 14003.4 3345.48 13118.3 3691.96 12518.3C3865.27 12218.1 4062.21 11989.6 4244.7 11838.7C4335.96 11763.2 4423.22 11707.5 4501.72 11671.9C4580.5 11636.1 4648.92 11621.3 4703.09 11625.5C5139.68 11659.3 5368.15 11797.1 5465.02 12007.5C5563.3 12220.9 5531.09 12518 5421.57 12882.3C5312.41 13245.5 5128.81 13668.3 4932.48 14129.7C4736.43 14590.5 4528.1 15088.9 4370.9 15601L4370.09 15603.7L4369.87 15606.5C4286 16690 4030.71 17622.7 3737.18 18279.3C3590.36 18607.7 3434.4 18866 3286.26 19039.5C3212.18 19126.3 3140.67 19191.1 3073.92 19232.9C3007.08 19274.8 2946.65 19292.7 2893.89 19288.6C2845.17 19284.8 2809.53 19257.4 2784.18 19201.7C2758.14 19144.5 2744.39 19059.8 2741.81 18948.5C2736.66 18726.4 2776 18409.9 2836 18024.3C2955.72 17254.7 3156.85 16215.3 3241.02 15127.9L3241.22 15125.3Z" fill="#F8E3BC" stroke="black" stroke-width="50"/>
<path id="backlegr" d="M7582.62 15288.4L7583.09 15285.9C7796.56 14182.5 7614.07 13284.7 7321.93 12663.9C7175.8 12353.4 7002.41 12112.6 6837.82 11950C6755.51 11868.7 6675.78 11807.4 6603.16 11766.6C6530.25 11725.7 6466.11 11706.4 6414.51 11706.8C5995.4 11710.5 5768.37 11831.6 5662.07 12034.1C5554.04 12239.8 5565.48 12537.8 5646.4 12907.8C5727.06 13276.5 5875 13709.7 6032.57 14182.1C6189.93 14654 6356.56 15164 6473.4 15684.1L6473.98 15686.7L6474 15689.4C6483.39 16773 6666.57 17718.4 6904.36 18391.7C7023.31 18728.4 7155.57 18996.1 7285.89 19178.9C7351.07 19270.3 7415.18 19339.6 7476.18 19385.7C7537.29 19431.9 7593.56 19453.6 7643.69 19453.2C7689.54 19452.8 7725.2 19428.6 7753.18 19374.7C7781.85 19319.5 7800.55 19236.1 7810.3 19125.5C7829.74 18904.9 7812.8 18587.3 7780.64 18199.6C7716.44 17425.9 7592.06 16378.3 7582.64 15290.9L7582.62 15288.4Z" fill="#F8E3BC" stroke="black" stroke-width="50"/>
<path id="backhead" d="M5388.5 2601C6106.03 2601 6687 3192.15 6687 3920.5C6687 4283.04 6542.94 4805.59 6311.03 5237.43C6194.96 5453.56 6056.15 5648.37 5901.03 5789.47C5745.97 5930.51 5572.72 6019.5 5388.5 6019.5C5204.28 6019.5 5031.03 5930.51 4875.97 5789.47C4720.85 5648.37 4582.04 5453.56 4465.97 5237.43C4234.06 4805.59 4090 4283.04 4090 3920.5C4090 3192.15 4670.97 2601 5388.5 2601Z" fill="#F8E3BC" stroke="black" stroke-width="50"/>
<path id="back" d="M4258.2 6020H6561.3C6806.68 6020 6993.13 6243.92 6953.03 6486.7C6859.2 7054.81 6719.55 8032.51 6684.24 8998.65C6666.59 9481.71 6674.99 9962.5 6728.44 10388.1C6781.82 10813.2 6880.42 11185.6 7044.78 11450.2C7144.67 11611 7154.57 11739.9 7105.57 11843.1C7055.72 11948 6941.77 12033.5 6778.21 12098.9C6451.57 12229.6 5944.76 12273.2 5433.54 12247.2C4922.65 12221.1 4412.2 12125.7 4079.08 11981.6C3911.79 11909.3 3793.65 11826.5 3740.05 11738C3713.7 11694.5 3703.15 11650 3709.4 11604C3715.71 11557.6 3739.43 11507.3 3785.95 11453.3C3946.94 11266.5 4041 10934.1 4090.98 10528.2C4141.15 10120.8 4147.46 9633.89 4128.87 9133.19C4091.68 8131.69 3954.66 7071.65 3867.19 6474.62C3832.17 6235.61 4016.94 6020 4258.2 6020Z" fill="#F8E3BC" stroke="black" stroke-width="50"/>
<path d="M4114.71 4737.93C4114.71 4737.93 3648.55 4120.59 3987.08 4276.39" stroke="black" stroke-width="40"/>
<path d="M6700 4804.1C6700 4804.1 7111.92 3978.96 6716.32 4247.18" stroke="black" stroke-width="40"/>
<path d="M3180.5 2152.16L5293.43 3386.99L3871.83 4499.79L3180.5 2152.16Z" fill="#E21717"/>
<path d="M3515.05 2555.04L5073.16 3477.77L4036.65 4289.13L3515.05 2555.04Z" fill="#FF9B04"/>
<path d="M3830.35 2961.84L4812.35 3563.97L4179.06 4059.69L3830.35 2961.84Z" fill="#F6ED41"/>
<path d="M7296.67 1965.16L6853.67 4372.04L5323.87 3413.39L7296.67 1965.16Z" fill="#E21717"/>
<path d="M7031.52 2416.75L6693.42 4195.75L5578.02 3496.78L7031.52 2416.75Z" fill="#FF9B04"/>
<path d="M6756.14 2851.56L6523.69 3979.77L5842.21 3552.72L6756.14 2851.56Z" fill="#F6ED41"/>
<path d="M4433.06 1336.76L5735.58 3408.65L3960.53 3738.01L4433.06 1336.76Z" fill="#E21717"/>
<path d="M4543.43 1848.67L5498.31 3387.29L4204.09 3627.44L4543.43 1848.67Z" fill="#FF9B04"/>
<path d="M4634.89 2355.16L5227.19 3343.12L4436.45 3489.85L4634.89 2355.16Z" fill="#F6ED41"/>
<path d="M6428.18 3029.48L6695.56 4343.23L5719.18 4146.66L6428.18 3029.48Z" fill="#E21717"/>
<path d="M6385.54 3310.83L6577.73 4283.9L5865.83 4140.58L6385.54 3310.83Z" fill="#FF9B04"/>
<path d="M6334.25 3585.57L6446.95 4206.12L6011.99 4118.56L6334.25 3585.57Z" fill="#F6ED41"/>
<path d="M4125.17 3152.31L4935.81 4152.72L3999.32 4391.34L4125.17 3152.31Z" fill="#E21717"/>
<path d="M4211.8 3407.98L4807.13 4151.4L4124.32 4325.38L4211.8 3407.98Z" fill="#FF9B04"/>
<path d="M4288 3661.65L4659.07 4139.84L4241.89 4246.14L4288 3661.65Z" fill="#F6ED41"/>
<path d="M5764.46 1181.72L6687.19 3448.41L4881.92 3464.36L5764.46 1181.72Z" fill="#E21717"/>
<path d="M5784.19 1705.02L6457.23 3386.15L5140.97 3397.78L5784.19 1705.02Z" fill="#FF9B04"/>
<path d="M5786.27 2219.7L6197.91 3295.55L5393.7 3302.65L5786.27 2219.7Z" fill="#F6ED41"/>
<path d="M5033.03 2771.01L5753.32 4525.38L4324.66 4440.74L5033.03 2771.01Z" fill="#E21717"/>
<path d="M5046.35 3165.69L5571.6 4466.24L4529.94 4404.53L5046.35 3165.69Z" fill="#FF9B04"/>
<path d="M5045.76 3552.94L5366.8 4384.21L4730.37 4346.5L5045.76 3552.94Z" fill="#F6ED41"/>
<path d="M5837.03 2771.01L6557.32 4525.38L5128.66 4440.74L5837.03 2771.01Z" fill="#E21717"/>
<path d="M5850.35 3165.69L6375.6 4466.24L5333.94 4404.53L5850.35 3165.69Z" fill="#FF9B04"/>
<path d="M5849.76 3552.94L6170.8 4384.21L5534.37 4346.5L5849.76 3552.94Z" fill="#F6ED41"/>
<path d="M4744.21 7375.05C4756.71 7378.18 4768.62 7380.52 4779.95 7382.09C4791.28 7383.65 4801.24 7384.82 4809.84 7385.6C4819.99 7386.77 4829.37 7387.16 4837.96 7386.77C4848.9 7386.77 4862.57 7385.8 4878.98 7383.84C4895.77 7381.89 4912.96 7380.13 4930.54 7378.57C4948.12 7376.62 4964.91 7375.45 4980.93 7375.05C4997.34 7374.27 5010.62 7375.25 5020.77 7377.98C5030.93 7380.33 5041.28 7384.04 5051.83 7389.12C5062.77 7393.8 5072.73 7399.86 5081.71 7407.28C5090.7 7414.31 5098.12 7422.71 5103.98 7432.48C5109.84 7441.85 5113.16 7452.59 5113.94 7464.7C5113.55 7479.94 5110.03 7494.2 5103.39 7507.48C5097.92 7518.8 5088.74 7530.52 5075.85 7542.63C5062.96 7554.35 5044.41 7563.34 5020.19 7569.59C5032.3 7571.15 5042.65 7573.88 5051.24 7577.79C5060.23 7581.3 5067.84 7585.6 5074.09 7590.68C5080.73 7595.37 5086.01 7600.64 5089.91 7606.5C5094.21 7612.36 5097.53 7618.22 5099.88 7624.08C5105.73 7637.75 5108.47 7652.98 5108.08 7669.78C5105.73 7691.66 5101.24 7709.04 5094.6 7721.93C5088.35 7734.82 5081.12 7744.78 5072.92 7751.81C5064.72 7758.84 5056.32 7763.73 5047.73 7766.46C5039.13 7769.2 5031.32 7771.34 5024.29 7772.91C5017.26 7774.47 5008.66 7775.25 4998.51 7775.25C4988.35 7775.25 4977.41 7775.05 4965.7 7774.66C4954.37 7773.88 4942.65 7773.3 4930.54 7772.91C4918.43 7772.12 4906.91 7772.12 4895.97 7772.91C4886.98 7773.69 4876.05 7774.47 4863.16 7775.25C4852.22 7776.03 4838.55 7777.01 4822.14 7778.18C4805.73 7778.96 4786.59 7779.94 4764.72 7781.11C4769.02 7777.98 4772.53 7774.47 4775.27 7770.56C4778.39 7766.27 4780.93 7762.55 4782.88 7759.43C4784.84 7755.52 4786.59 7751.81 4788.16 7748.3C4789.33 7745.17 4790.3 7736.58 4791.09 7722.52C4791.87 7708.45 4792.45 7691.66 4792.84 7672.12C4793.23 7652.2 4793.43 7630.91 4793.43 7608.26C4793.82 7585.21 4793.62 7563.14 4792.84 7542.05C4792.45 7520.56 4791.67 7501.62 4790.5 7485.21C4789.72 7468.41 4788.55 7456.3 4786.98 7448.88C4784.64 7440.68 4781.52 7432.28 4777.61 7423.69C4774.48 7416.27 4769.99 7408.26 4764.13 7399.66C4758.66 7391.07 4752.02 7382.87 4744.21 7375.05ZM4867.84 7434.82C4867.84 7436.38 4868.04 7441.66 4868.43 7450.64C4868.82 7458.45 4869.21 7470.56 4869.6 7486.97C4870.38 7502.98 4871.36 7525.84 4872.53 7555.52C4882.3 7559.82 4891.87 7562.16 4901.24 7562.55C4910.62 7562.55 4919.02 7562.16 4926.44 7561.38C4935.03 7560.21 4943.23 7558.26 4951.05 7555.52C4961.59 7551.23 4969.8 7544.2 4975.66 7534.43C4981.91 7524.66 4986.01 7514.51 4987.96 7503.96C4990.3 7493.02 4990.89 7482.87 4989.72 7473.49C4988.55 7463.73 4986.01 7456.7 4982.1 7452.4C4974.68 7445.76 4965.5 7440.29 4954.56 7435.99C4945.19 7432.48 4933.27 7430.13 4918.82 7428.96C4904.76 7427.4 4887.77 7429.35 4867.84 7434.82ZM4864.91 7712.55C4879.37 7719.98 4892.06 7724.86 4903 7727.2C4913.94 7729.55 4923.12 7730.72 4930.54 7730.72C4939.13 7730.72 4946.55 7729.55 4952.8 7727.2C4960.23 7723.69 4967.45 7719 4974.48 7713.14C4981.91 7706.89 4987.38 7699.66 4990.89 7691.46C4994.8 7682.87 4996.36 7673.49 4995.58 7663.34C4994.8 7652.79 4990.3 7641.27 4982.1 7628.77C4974.68 7619.78 4965.7 7612.75 4955.15 7607.67C4945.77 7603.38 4933.86 7600.64 4919.41 7599.47C4905.34 7598.3 4887.96 7601.62 4867.26 7609.43L4864.91 7712.55ZM5184.84 7556.7C5186.79 7554.35 5187.96 7550.05 5188.35 7543.8C5189.13 7537.16 5190.7 7529.74 5193.04 7521.54C5195.77 7513.34 5200.27 7504.74 5206.52 7495.76C5212.77 7486.77 5222.92 7478.38 5236.98 7470.56C5250.66 7462.75 5263.94 7458.06 5276.83 7456.5C5289.72 7454.94 5302.02 7455.52 5313.74 7458.26C5325.46 7460.99 5336.4 7465.29 5346.55 7471.15C5357.1 7477.01 5366.67 7483.45 5375.27 7490.48C5381.12 7495.17 5385.81 7502.01 5389.33 7510.99C5392.84 7519.59 5395.58 7529.35 5397.53 7540.29C5399.48 7551.23 5400.85 7562.75 5401.63 7574.86C5402.8 7586.58 5403.59 7598.1 5403.98 7609.43C5404.37 7620.37 5404.56 7630.52 5404.56 7639.9C5404.95 7648.88 5405.73 7656.3 5406.91 7662.16C5408.47 7670.76 5411.2 7678.18 5415.11 7684.43C5419.02 7690.29 5423.31 7695.37 5428 7699.66C5432.69 7703.57 5437.38 7706.7 5442.06 7709.04C5446.75 7711.38 5450.85 7713.14 5454.37 7714.31C5456.71 7715.48 5458.86 7716.27 5460.81 7716.66C5464.72 7718.22 5467.45 7718.22 5469.02 7716.66C5466.67 7722.12 5464.52 7726.81 5462.57 7730.72C5460.62 7734.62 5459.05 7737.95 5457.88 7740.68C5456.32 7743.8 5454.95 7746.34 5453.78 7748.3C5452.61 7750.64 5451.24 7752.79 5449.68 7754.74C5448.51 7756.7 5446.95 7758.84 5444.99 7761.19C5443.04 7763.53 5441.09 7766.07 5439.13 7768.8C5434.05 7766.85 5429.17 7764.51 5424.48 7761.77C5420.19 7759.04 5416.28 7756.5 5412.77 7754.16C5408.47 7751.42 5404.56 7748.69 5401.05 7745.95C5397.53 7743.22 5394.21 7740.09 5391.09 7736.58C5388.35 7733.45 5385.42 7730.13 5382.3 7726.62C5379.56 7723.1 5377.22 7719.2 5375.27 7714.9C5372.92 7719.98 5367.26 7727.2 5358.27 7736.58C5349.68 7745.95 5338.35 7754.55 5324.29 7762.36C5310.23 7769.78 5293.82 7775.05 5275.07 7778.18C5256.71 7781.3 5236.4 7779.16 5214.13 7771.73C5204.37 7768.61 5195.19 7764.12 5186.59 7758.26C5178 7752.01 5170.58 7744.59 5164.33 7735.99C5158.47 7727.4 5154.17 7717.63 5151.44 7706.7C5149.09 7695.37 5149.29 7682.87 5152.02 7669.2C5154.76 7655.52 5159.64 7644 5166.67 7634.62C5173.7 7625.25 5182.1 7617.63 5191.87 7611.77C5201.63 7605.91 5212.57 7601.42 5224.68 7598.3C5236.79 7595.17 5249.29 7593.02 5262.18 7591.85C5272.34 7591.46 5282.49 7592.05 5292.65 7593.61C5301.24 7595.17 5310.23 7598.1 5319.6 7602.4C5328.98 7606.3 5336.98 7612.36 5343.62 7620.56C5343.23 7599.86 5342.45 7583.45 5341.28 7571.34C5340.5 7558.84 5339.72 7549.27 5338.94 7542.63C5337.38 7534.82 5336.01 7529.35 5334.84 7526.23C5332.88 7523.49 5330.73 7520.37 5328.39 7516.85C5326.44 7513.34 5323.9 7510.21 5320.77 7507.48C5317.65 7504.35 5313.74 7501.81 5309.05 7499.86C5304.37 7497.91 5298.9 7497.12 5292.65 7497.52C5286.01 7497.91 5280.73 7499.66 5276.83 7502.79C5272.92 7505.91 5269.8 7509.62 5267.45 7513.92C5265.5 7517.83 5264.33 7522.12 5263.94 7526.81C5263.55 7531.5 5263.74 7535.6 5264.52 7539.12C5265.3 7541.46 5266.48 7544 5268.04 7546.73C5269.6 7549.08 5271.75 7551.62 5274.48 7554.35C5277.22 7557.09 5280.93 7559.43 5285.62 7561.38C5276.63 7562.55 5268.62 7563.53 5261.59 7564.31C5254.56 7564.7 5248.51 7565.29 5243.43 7566.07C5237.57 7566.85 5232.49 7567.44 5228.2 7567.83C5223.9 7568.22 5218.82 7569 5212.96 7570.17C5207.88 7570.95 5201.63 7571.93 5194.21 7573.1C5186.79 7574.27 5178.2 7575.84 5168.43 7577.79C5170.77 7575.05 5172.92 7572.52 5174.88 7570.17C5176.83 7567.44 5178.59 7565.09 5180.15 7563.14C5181.71 7560.8 5183.27 7558.65 5184.84 7556.7ZM5272.73 7626.42C5265.7 7626.81 5258.66 7628.57 5251.63 7631.7C5244.6 7634.43 5238.35 7638.53 5232.88 7644C5227.41 7649.08 5222.73 7655.13 5218.82 7662.16C5215.3 7668.8 5213.55 7676.23 5213.55 7684.43C5213.55 7692.63 5215.5 7699.86 5219.41 7706.11C5223.7 7711.97 5229.17 7716.85 5235.81 7720.76C5242.84 7724.66 5250.27 7727.01 5258.08 7727.79C5266.28 7728.57 5274.29 7727.79 5282.1 7725.45C5289.52 7722.71 5296.55 7718.41 5303.2 7712.55C5309.84 7706.3 5315.5 7699.66 5320.19 7692.63C5324.88 7685.21 5328.2 7677.98 5330.15 7670.95C5332.1 7663.53 5332.3 7657.48 5330.73 7652.79C5327.61 7642.63 5320.58 7635.6 5309.64 7631.7C5298.7 7627.4 5286.4 7625.64 5272.73 7626.42ZM5790.7 7585.99C5786.01 7585.21 5780.15 7584.62 5773.12 7584.23C5766.48 7583.84 5760.03 7583.65 5753.78 7583.65C5746.75 7583.65 5739.33 7583.84 5731.52 7584.23C5723.31 7584.62 5715.11 7585.02 5706.91 7585.41C5699.88 7585.8 5691.87 7586.38 5682.88 7587.16C5674.29 7587.55 5665.89 7588.14 5657.69 7588.92C5660.81 7587.36 5663.55 7585.21 5665.89 7582.48C5668.62 7579.74 5670.97 7577.01 5672.92 7574.27C5674.88 7571.15 5676.63 7567.83 5678.2 7564.31C5680.15 7558.45 5679.95 7551.42 5677.61 7543.22C5675.27 7534.62 5670.97 7526.81 5664.72 7519.78C5658.86 7512.75 5651.24 7507.28 5641.87 7503.38C5632.88 7499.08 5622.92 7498.1 5611.98 7500.45C5600.27 7503.18 5589.72 7507.28 5580.34 7512.75C5571.36 7518.22 5563.74 7525.84 5557.49 7535.6C5551.63 7544.98 5547.34 7556.7 5544.6 7570.76C5542.26 7584.43 5541.67 7600.84 5542.84 7619.98C5544.41 7643.8 5548.31 7662.75 5554.56 7676.81C5560.81 7690.88 5568.43 7701.42 5577.41 7708.45C5586.4 7715.48 5596.16 7719.78 5606.71 7721.34C5617.65 7722.52 5628.39 7722.52 5638.94 7721.34C5646.36 7719.78 5653.2 7716.46 5659.45 7711.38C5664.52 7707.09 5669.21 7700.84 5673.51 7692.63C5677.8 7684.43 5679.76 7673.1 5679.37 7658.65L5750.85 7655.72C5742.65 7678.77 5732.69 7697.12 5720.97 7710.8C5709.25 7724.08 5697.92 7734.43 5686.98 7741.85C5674.09 7750.45 5661.2 7756.3 5648.31 7759.43C5632.3 7762.16 5618.04 7763.34 5605.54 7762.95C5593.04 7762.16 5581.71 7760.21 5571.55 7757.09C5561.4 7753.96 5552.02 7750.05 5543.43 7745.37C5534.84 7740.68 5526.63 7735.6 5518.82 7730.13C5513.74 7726.62 5508.08 7720.76 5501.83 7712.55C5495.58 7704.35 5489.72 7694.59 5484.25 7683.26C5478.78 7671.54 5474.29 7658.65 5470.77 7644.59C5467.26 7630.52 5465.89 7616.07 5466.67 7601.23C5467.45 7585.99 5470.97 7570.76 5477.22 7555.52C5483.47 7540.29 5493.43 7525.64 5507.1 7511.58C5527.8 7490.48 5549.88 7476.81 5573.31 7470.56C5597.14 7463.92 5619.6 7462.16 5640.7 7465.29C5661.79 7468.02 5680.54 7474.08 5696.95 7483.45C5713.35 7492.83 5724.88 7502.98 5731.52 7513.92C5738.16 7524.86 5743.04 7533.26 5746.16 7539.12C5749.68 7544.59 5752.22 7548.88 5753.78 7552.01C5755.73 7554.74 5757.3 7556.89 5758.47 7558.45C5760.03 7559.62 5762.18 7561.38 5764.91 7563.73C5766.87 7565.68 5769.21 7567.83 5771.95 7570.17C5774.29 7572.12 5777.02 7574.47 5780.15 7577.2C5783.27 7579.94 5786.79 7582.87 5790.7 7585.99ZM5776.05 7371.54C5780.34 7373.49 5785.42 7374.86 5791.28 7375.64C5797.53 7376.42 5803.39 7376.81 5808.86 7376.81C5815.5 7376.81 5822.34 7376.62 5829.37 7376.23C5836.4 7375.84 5844.99 7375.05 5855.15 7373.88C5863.35 7373.1 5873.51 7372.12 5885.62 7370.95C5897.73 7369.78 5911.2 7368.22 5926.05 7366.27C5920.58 7369 5915.89 7371.93 5911.98 7375.05C5908.08 7378.18 5904.76 7381.3 5902.02 7384.43C5898.9 7387.95 5896.36 7391.46 5894.41 7394.98C5891.67 7399.66 5887.96 7407.87 5883.27 7419.59C5878.98 7430.91 5874.48 7443.61 5869.8 7457.67C5865.5 7471.73 5861.59 7485.99 5858.08 7500.45C5854.95 7514.9 5853.2 7527.2 5852.8 7537.36C5852.41 7545.95 5852.02 7555.72 5851.63 7566.66C5851.24 7576.03 5850.85 7587.55 5850.46 7601.23C5850.07 7614.9 5849.68 7630.52 5849.29 7648.1C5877.41 7627.79 5899.09 7611.58 5914.33 7599.47C5929.56 7586.97 5940.7 7577.4 5947.73 7570.76C5955.93 7563.34 5960.81 7558.06 5962.38 7554.94C5961.98 7552.59 5961.01 7550.05 5959.45 7547.32C5957.49 7544.98 5954.76 7542.24 5951.24 7539.12C5947.73 7535.99 5942.45 7532.48 5935.42 7528.57C5945.58 7529.74 5954.37 7530.52 5961.79 7530.91C5969.6 7531.3 5976.24 7531.7 5981.71 7532.09C5987.96 7532.48 5993.43 7532.48 5998.12 7532.09C6003.2 7532.09 6009.45 7531.89 6016.87 7531.5C6029.76 7531.11 6049.68 7530.52 6076.63 7529.74C6050.46 7543.41 6029.76 7555.13 6014.52 7564.9C6005.93 7570.37 5998.31 7575.45 5991.67 7580.13C5985.03 7585.21 5978.2 7590.48 5971.16 7595.95C5964.91 7600.64 5957.69 7606.11 5949.48 7612.36C5941.67 7618.61 5933.86 7625.25 5926.05 7632.28C5939.72 7654.55 5951.63 7672.91 5961.79 7687.36C5972.34 7701.81 5981.12 7713.53 5988.16 7722.52C5996.36 7733.06 6003.59 7741.46 6009.84 7747.71C6016.09 7753.57 6024.29 7760.21 6034.45 7767.63C6043.04 7774.27 6054.17 7782.09 6067.84 7791.07C6081.91 7799.66 6098.9 7809.62 6118.82 7820.95C6108.66 7819 6098.9 7817.63 6089.52 7816.85C6080.15 7816.46 6072.14 7816.46 6065.5 7816.85C6057.3 7817.24 6049.88 7818.02 6043.23 7819.2C6036.2 7820.76 6028.39 7822.71 6019.8 7825.05C6012.38 7827.01 6003.59 7829.55 5993.43 7832.67C5983.66 7836.19 5972.92 7840.68 5961.2 7846.15C5968.62 7840.68 5974.09 7835.41 5977.61 7830.33C5981.52 7825.64 5984.25 7821.73 5985.81 7818.61C5987.38 7814.7 5987.96 7811.38 5987.57 7808.65C5985.62 7804.74 5981.12 7796.73 5974.09 7784.62C5967.45 7774.47 5957.69 7759.62 5944.8 7740.09C5931.91 7720.56 5913.55 7694 5889.72 7660.41C5888.55 7660.8 5886.59 7661.97 5883.86 7663.92C5881.52 7665.88 5878 7668.61 5873.31 7672.12C5868.62 7675.25 5862.38 7679.94 5854.56 7686.19L5870.38 7788.73C5866.87 7790.29 5862.96 7791.66 5858.66 7792.83C5854.76 7794 5851.05 7794.98 5847.53 7795.76C5843.23 7796.93 5838.94 7797.71 5834.64 7798.1C5830.34 7798.49 5825.27 7799.27 5819.41 7800.45C5814.33 7801.23 5808.27 7802.2 5801.24 7803.38C5794.21 7804.94 5786.2 7806.7 5777.22 7808.65C5782.3 7805.13 5786.4 7801.03 5789.52 7796.34C5792.65 7792.05 5795.19 7787.95 5797.14 7784.04C5799.09 7779.74 5800.85 7775.25 5802.41 7770.56C5803.2 7766.66 5803.98 7756.5 5804.76 7740.09C5805.93 7723.69 5806.91 7704.16 5807.69 7681.5C5808.47 7658.45 5809.05 7633.84 5809.45 7607.67C5810.23 7581.5 5810.62 7556.89 5810.62 7533.84C5810.62 7510.41 5810.42 7490.09 5810.03 7472.91C5809.64 7455.33 5808.86 7444 5807.69 7438.92C5805.73 7432.67 5803.39 7426.03 5800.66 7419C5798.31 7412.75 5794.99 7405.72 5790.7 7397.91C5786.79 7389.7 5781.91 7380.91 5776.05 7371.54Z" fill="black"/>
<path id="allback" d="M7453.31 11461.6C7455.54 11442.4 7456.05 11424.3 7454.83 11407.3C7453.62 11390.3 7450.67 11374.4 7445.99 11359.5L7453.84 11352.1C7482.97 11362.5 7516.81 11366.9 7555.34 11365.1L7569.76 11380.4C7555.48 11385.1 7542.37 11388.7 7530.41 11391.2C7518.75 11393.4 7508.39 11394.7 7499.32 11395L7486.24 11407.3C7485.71 11416.1 7483.87 11426.4 7480.71 11438.2C7477.83 11449.7 7473.51 11462.6 7467.73 11476.8L7453.31 11461.6ZM7481.56 11407.6L7499.88 11390.3L7744.29 11648.9L7725.98 11666.2L7481.56 11407.6ZM8222 11846.9C8209.16 11851.5 8197.86 11855.5 8188.1 11858.8C8178.33 11862.1 8169.96 11865 8162.99 11867.2C8155.18 11869.8 8148.34 11872.2 8142.47 11874.5C8138.01 11876.1 8132.01 11878.3 8124.47 11881.1C8117.5 11883.4 8108.42 11886.6 8097.26 11890.7C8086.64 11894.8 8072.81 11900.1 8055.78 11906.5C8063.87 11894 8070.14 11882.2 8074.6 11871C8079.06 11859.8 8082.26 11849.2 8084.19 11839.3C8086.13 11829.4 8086.66 11820.3 8085.79 11812C8085.47 11803.7 8084.44 11796.1 8082.7 11789.1C8078.45 11773.3 8071.11 11759.2 8060.68 11747.1C8045.33 11732.5 8031.38 11722.9 8018.8 11718.1C8006.77 11713.4 7996.19 11711.5 7987.04 11712.7C7978.17 11713.5 7970.76 11716.5 7964.82 11721.6C7959.16 11726.4 7955.29 11731.4 7953.21 11736.6C7951.14 11741.2 7951.86 11749.9 7955.37 11762.8C7959.15 11775.8 7963.82 11791.3 7969.4 11809.2C7975.53 11827 7981.61 11846.5 7987.65 11867.7C7993.97 11888.6 7998.36 11909.2 8000.84 11929.4C8003.86 11949.7 8004.15 11968.7 8001.71 11986.6C7999.83 12004.5 7993.61 12019.3 7983.06 12030.9C7969.39 12045.4 7956.19 12057.6 7943.48 12067.5C7930.77 12077.3 7917.08 12082.8 7902.41 12083.7C7887.73 12084.7 7871.14 12080.2 7852.63 12070.3C7834.39 12060.7 7812.76 12043.8 7787.74 12019.6C7761.92 11994.5 7743.08 11971.8 7731.22 11951.3C7719.36 11930.8 7711.88 11912 7708.76 11895.1C7705.91 11878.4 7706.19 11863.6 7709.59 11850.8C7713.26 11838.1 7717.72 11827.2 7722.95 11818C7728.47 11808.5 7733.52 11800.7 7738.11 11794.8C7742.98 11788.6 7745.05 11783.9 7744.3 11780.9C7743.58 11777.2 7742.71 11773.8 7741.7 11770.4C7740.95 11767.4 7739.93 11764.3 7738.64 11761.2C7737.63 11757.9 7736.47 11754.7 7735.18 11751.6L7872.32 11856.6C7859.94 11854.8 7849.45 11854.3 7840.87 11854.9C7832.55 11855.7 7825.61 11856.9 7820.04 11858.4C7813.64 11860.2 7808.19 11862.4 7803.69 11865C7799.18 11868.2 7795.42 11874.2 7792.41 11882.9C7789.4 11891.7 7787.61 11901.4 7787.03 11912.2C7787 11923 7788.63 11933.8 7791.92 11944.7C7795.21 11955.5 7800.89 11964.7 7808.97 11972.1C7819.22 11981.2 7829.28 11987 7839.15 11989.5C7849.31 11991.7 7858.99 11991.5 7868.19 11988.7C7877.66 11986.2 7886.35 11981.7 7894.26 11975.3C7902.18 11968.9 7908.75 11961.4 7913.97 11952.7C7919.74 11944 7923.87 11934.7 7926.36 11924.8C7929.13 11914.7 7930.1 11904.9 7929.25 11895.5C7928.1 11887.4 7924.25 11876.8 7917.72 11863.7C7911.45 11850.8 7904.25 11836.3 7896.14 11820.4C7888.29 11804.7 7880.61 11788 7873.09 11770.4C7865.84 11753.1 7860.8 11735.8 7857.97 11718.6C7855.4 11701.6 7856 11685.5 7859.74 11670.1C7863.76 11655 7873.25 11641.8 7888.22 11630.3C7900.93 11620.4 7914.07 11615 7927.64 11614C7941.76 11613 7955.65 11615.2 7969.32 11620.6C7983.54 11625.9 7997.41 11633.5 8010.96 11643.3C8024.77 11653.3 8037.72 11664.5 8049.81 11676.7C8062.45 11688.9 8074.11 11701.6 8084.8 11714.6C8095.76 11727.9 8105.36 11740 8113.62 11751C8121.87 11762 8128.66 11771.5 8133.96 11779.4C8139.82 11787.3 8143.41 11792.2 8144.73 11794.2C8151.14 11802.1 8158.26 11809.4 8166.09 11815.9C8172.83 11821.9 8180.82 11827.8 8190.05 11833.6C8199.83 11839.4 8210.48 11843.8 8222 11846.9ZM8104.67 11965.9L8177.88 12045.1C8156.27 12056.9 8138.29 12067.4 8123.94 12076.7C8109.85 12086.3 8098.43 12094.6 8089.66 12101.8C8079.22 12109.6 8071 12116.8 8065.01 12123.5C8059.85 12130 8054.81 12137.5 8049.87 12145.9C8045.8 12153 8041.69 12161.7 8037.53 12172.1C8033.37 12182.5 8030.28 12194 8028.27 12206.6C8026.18 12202.2 8023.55 12197.7 8020.36 12193.2C8017.17 12188.6 8014.11 12184.6 8011.17 12180.9C8007.7 12176.6 8003.94 12172.7 7999.9 12169C7995.86 12165.3 7991.27 12161.3 7986.14 12157C7981.82 12153.5 7976.55 12149.4 7970.33 12144.5C7964.11 12139.6 7957.34 12134.7 7950.02 12129.8C7966.82 12122 7980.97 12114.8 7992.49 12108.2C8004.27 12101.9 8013.82 12096.4 8021.14 12091.6C8029.59 12085.8 8036.23 12080.9 8041.04 12076.9C8046.71 12071.5 8053.1 12065.5 8060.2 12058.7C8067.58 12051.8 8074.68 12045.1 8081.49 12038.6C8088.3 12032.2 8094.13 12026.4 8098.97 12021.3C8104.1 12015.9 8106.97 12012.1 8107.58 12009.9L8107.81 12001.6C8107.62 11998.6 8107.19 11994.2 8106.53 11988.3C8106.42 11982.5 8105.8 11975.1 8104.67 11965.9ZM8198.83 11934.2C8207.58 11937.2 8214.07 11942.3 8218.29 11949.6C8222.77 11957.2 8224.63 11964.6 8223.88 11971.7C8223.13 11978.9 8219.52 11984.5 8213.05 11988.4C8206.85 11992.7 8197.31 11993.1 8184.41 11989.7C8171.81 11986 8163.26 11980.4 8158.78 11972.8C8154.29 11965.2 8153.11 11958 8155.24 11951.2C8157.37 11944.3 8162.22 11938.9 8169.79 11935C8177.64 11930.8 8187.32 11930.5 8198.83 11934.2ZM8536.75 12150.9C8541.56 12156.6 8546.92 12162.5 8552.83 12168.8C8557.93 12174.2 8563.55 12180.4 8569.71 12187.5C8576.42 12194.6 8583.68 12201.7 8591.49 12208.8C8581.93 12204.9 8571.75 12203.3 8560.96 12203.8C8550.17 12204.3 8540.32 12205.9 8531.4 12208.4C8520.55 12211.1 8510.08 12214.8 8500 12219.5C8494.12 12222.4 8484.96 12228.9 8472.51 12239C8460.35 12248.9 8446.34 12260.8 8430.47 12274.7C8414.88 12288.9 8398.56 12304.1 8381.53 12320.2C8364.5 12336.3 8348.31 12351.9 8332.96 12366.9C8317.9 12381.7 8304.68 12395 8293.29 12406.8C8281.91 12418.7 8274.21 12427.3 8270.18 12432.7C8265.58 12439.2 8261.53 12445.7 8258.03 12452.3C8254.83 12458 8251.89 12464.3 8249.21 12471.1C8246.81 12477.6 8245.81 12484 8246.19 12490.1L8185.55 12465.1C8186.52 12459.9 8188.04 12455 8190.11 12450.4C8191.89 12446 8193.65 12442.2 8195.4 12438.9C8197.45 12434.8 8199.62 12431.4 8201.91 12428.7C8204.78 12424.9 8207.93 12420.9 8211.37 12416.5C8215.09 12412 8218.39 12407.5 8221.28 12403.2C8224.72 12398.8 8227.58 12395.3 8229.86 12392.6C8232.15 12389.9 8233.71 12388.4 8234.55 12388.2C8235.38 12387.9 8231.22 12388.6 8222.05 12390.3C8213.17 12391.7 8201.55 12392.2 8187.19 12391.8C8173.39 12391.4 8158.12 12389.2 8141.37 12385.2C8124.92 12380.8 8109.66 12372.9 8095.62 12361.5C8081.3 12349.8 8072.18 12335 8068.26 12317.2C8064.61 12299.7 8065.13 12281.2 8069.83 12261.7C8074.8 12241.9 8083.37 12222.3 8095.52 12202.7C8108.23 12183.2 8123.5 12165.8 8141.34 12150.6C8153.23 12140.4 8165.73 12133.4 8178.82 12129.6C8192.2 12125.6 8205.37 12123.9 8218.34 12124.5C8231.86 12125.2 8244.78 12127.5 8257.11 12131.4C8269.98 12135.4 8281.74 12139.9 8292.37 12144.9C8303.28 12150.1 8312.79 12155.7 8320.92 12161.4C8329.05 12167.2 8335.41 12171.9 8340 12175.6C8345.12 12180.5 8349.77 12187.1 8353.95 12195.5C8357.62 12202.8 8360.95 12212 8363.95 12223.1C8367.22 12234.6 8369.31 12248.7 8370.22 12265.6C8396.99 12237 8418.23 12214 8433.92 12196.5C8449.89 12178.7 8461.75 12164.8 8469.49 12154.8C8478.94 12143.2 8485.11 12134.9 8488.01 12130C8489.51 12125.9 8490.6 12121.4 8491.3 12116.5C8491.69 12112.3 8491.55 12107.6 8490.86 12102.4C8490.74 12097.1 8489.5 12091.8 8487.17 12086.5C8492.72 12095.2 8498.44 12103.3 8504.31 12110.6C8510.18 12118 8515.52 12124.7 8520.32 12131C8525.92 12138 8531.4 12144.7 8536.75 12150.9ZM8276.9 12194.2C8269.81 12190.6 8262.24 12189.5 8254.2 12190.6C8246.42 12192.1 8238.19 12195 8229.49 12199.5C8221.09 12203.6 8212.65 12208.9 8204.18 12215.3C8196.26 12221.7 8188.62 12228.1 8181.26 12234.6C8174.44 12241 8168.2 12246.9 8162.52 12252.3C8156.84 12257.7 8152.58 12261.7 8149.75 12264.4C8148.04 12266 8145.19 12269.2 8141.18 12274.1C8137.73 12278.9 8134.8 12284.9 8132.39 12292.1C8130.26 12298.9 8129.5 12306.3 8130.1 12314.4C8130.97 12322.7 8135.17 12330.8 8142.68 12338.8C8149.42 12344.8 8158.26 12349.6 8169.21 12353.2C8178.79 12356.5 8191.16 12358.8 8206.33 12360C8222.04 12361.3 8241.56 12360.1 8264.87 12356.3C8273.42 12347.1 8280.54 12339.6 8286.23 12333.7C8292.19 12328.1 8296.89 12323.3 8300.31 12319.6C8304.3 12315.3 8307.57 12311.9 8310.13 12309.5L8316.51 12303.5C8318.22 12301.8 8320.06 12300.1 8322.05 12298.2C8324.04 12296.3 8326.01 12294.7 8327.99 12293.4C8326.15 12280.1 8324.27 12268.4 8322.34 12258.4C8320.96 12248.5 8318.45 12239.5 8314.8 12231.7C8311.7 12223.9 8307.06 12217 8300.88 12211C8295.24 12205 8287.25 12199.4 8276.9 12194.2ZM8430.08 12554.1C8437.59 12562 8445.42 12568.6 8453.56 12573.8C8460.35 12578.2 8467.72 12581.4 8475.67 12583.6C8484.18 12585.7 8492.5 12584.6 8500.64 12580.1C8504.87 12586.9 8508.44 12592.6 8511.34 12597.4C8514.53 12601.9 8517.18 12605.9 8519.3 12609.2C8521.4 12613.2 8523.38 12616.4 8525.24 12618.9C8526.82 12621.8 8528.8 12625 8531.19 12628.6C8533.3 12632 8535.81 12636.1 8538.72 12640.9C8542.17 12645.7 8546.02 12651.4 8550.25 12658.2C8546.79 12653.4 8542.21 12649.4 8536.5 12646.2C8531.05 12643.3 8525.6 12640.6 8520.14 12638.3C8513.86 12635.6 8507.42 12633.6 8500.82 12632.3C8496.71 12631.4 8491.33 12630.8 8484.71 12630.7C8478.35 12630.7 8470.79 12629.3 8462.03 12626.3C8453.28 12623.3 8443.07 12617.9 8431.4 12610.1C8420.29 12602.3 8407.78 12590.5 8393.85 12574.6C8376.98 12555.6 8365.62 12537.1 8359.77 12519C8354.21 12500.6 8352.21 12483.4 8353.76 12467.4C8355.6 12451.1 8360.16 12436.3 8367.45 12423C8374.73 12409.7 8382.78 12398.6 8391.59 12389.7C8400.41 12380.8 8412.47 12374.5 8427.77 12370.8C8443.07 12367.1 8459.67 12366.5 8477.56 12368.9C8495.72 12371.6 8514.34 12378 8533.4 12387.9C8552.75 12397.6 8570.74 12411.2 8587.38 12428.8C8597.04 12439 8604.61 12449.6 8610.11 12460.5C8616.16 12471.5 8620.55 12482.4 8623.28 12493.2C8626.28 12504.3 8627.78 12515 8627.77 12525.3C8628.04 12535.2 8627.37 12544.4 8625.75 12553C8623.84 12561.8 8621.11 12570.2 8617.57 12578.4C8614.61 12585.5 8610.53 12592.9 8605.34 12600.5C8600.16 12608.1 8593.89 12614.8 8586.54 12620.7C8565.58 12599.6 8548.65 12582.6 8535.75 12569.5C8523.12 12556.7 8513.32 12546.6 8506.35 12539.2L8488.23 12520.1L8474.55 12505.6C8469.72 12500.5 8463.27 12494 8455.2 12486C8447.14 12478 8437.19 12468.4 8425.35 12457C8415.34 12469.1 8409.89 12481 8409.01 12492.6C8408.68 12504.2 8410.05 12514.7 8413.1 12524.2C8416.67 12534.8 8422.33 12544.8 8430.08 12554.1ZM8470.5 12443.3C8478.52 12452.9 8485.2 12460.9 8490.55 12467.1C8496.17 12473.6 8500.72 12479 8504.19 12483.2C8507.93 12487.8 8511.01 12491.3 8513.42 12493.9L8523.49 12504.5C8530.2 12511.6 8543.1 12524.4 8562.2 12542.9C8573.88 12530.2 8580.84 12518.5 8583.08 12507.8C8585.58 12497.4 8586.12 12488.3 8584.68 12480.5C8582.72 12471.6 8578.8 12463.5 8572.93 12456.1C8555.2 12438 8538.36 12427.8 8522.39 12425.7C8506.69 12423.9 8489.39 12429.8 8470.5 12443.3ZM8943.45 12589.7L8973.64 12621.6C8975.79 12623.9 8977.92 12626.4 8980.06 12629.3C8981.92 12631.8 8983.92 12634.5 8986.05 12637.3C8988.73 12640.1 8991.26 12643.4 8993.65 12647C8957.21 12655.7 8925.76 12663.6 8899.3 12670.9C8872.85 12678.2 8850.71 12684.3 8832.88 12689.4C8811.99 12695.1 8794.44 12700.2 8780.23 12704.5C8765.18 12709 8745.94 12715.4 8722.5 12723.6C8702.13 12730.4 8675.9 12739.4 8643.82 12750.4C8612 12761.6 8573.07 12775.3 8527.02 12791.4C8524.88 12789.1 8522.45 12786.9 8519.75 12784.6C8517.34 12782 8514.92 12779.7 8512.49 12777.7C8509.52 12775.2 8506.83 12772.6 8504.41 12770.1C8501.73 12767.2 8498.63 12764.5 8495.11 12761.9C8491.86 12759.6 8488.34 12757 8484.55 12754.2C8480.76 12751.3 8476.42 12748.4 8471.53 12745.5C8515.26 12733.2 8551.33 12723 8579.74 12715C8608.15 12706.9 8631 12700.1 8648.29 12694.5C8668.36 12688.5 8684.11 12683.5 8695.54 12679.7C8713.95 12673.6 8735.58 12666 8760.43 12657.1C8781.64 12649.4 8807.47 12640 8837.9 12629C8868.61 12617.7 8903.79 12604.6 8943.45 12589.7ZM8877.83 12756.5C8882.64 12762.2 8887.06 12767.1 8891.09 12771.4C8895.67 12775.7 8899.57 12779.2 8902.81 12782.1C8906.58 12785.5 8909.95 12788.5 8912.92 12791.1C8917.51 12794.8 8922.38 12798.5 8927.52 12802.3C8931.85 12805.7 8936.45 12809.2 8941.32 12812.6C8946.75 12816.1 8952.19 12819.3 8957.63 12822.2C8951.77 12824.5 8946.73 12826.6 8942.54 12828.4C8938.34 12830.2 8934.84 12831.9 8932.03 12833.5C8928.67 12835 8926.14 12836.6 8924.44 12838.2C8922.18 12839.8 8919.64 12842 8916.8 12844.7C8911.7 12848.9 8903.9 12856.3 8893.38 12866.8C8920.11 12869.5 8941.71 12872.4 8958.2 12875.7C8974.96 12879.2 8988.14 12882 8997.75 12884.2C9009 12887 9017.22 12889.8 9022.39 12892.4C9034.02 12901.3 9040.33 12912.8 9041.32 12926.9C9041.7 12933 9040.95 12939.9 9039.08 12947.6C9037.49 12955 9033.93 12963.5 9028.41 12973C9022.9 12982.5 9015.28 12992.9 9005.57 13004.2C8996.14 13015.3 8983.64 13027.4 8968.07 13040.5C8961.87 13035.1 8956.2 13030.2 8951.07 13025.9C8946.21 13021.9 8942.17 13018.5 8938.93 13015.6C8934.87 13012.5 8931.37 13009.3 8928.42 13006.2L8916.27 12995.9C8911.95 12992.5 8906.68 12988.1 8900.48 12982.6C8894.83 12977.2 8887.69 12970.8 8879.06 12963.4C8899.98 12966.2 8915.6 12965.9 8925.91 12962.6C8936.78 12959.3 8944.36 12955.1 8948.65 12950C8953.51 12944.3 8955.78 12937.4 8955.46 12929.1C8953.48 12920.7 8949.12 12913.8 8942.36 12908.4C8936.69 12903.5 8928.38 12899.6 8917.41 12896.5C8906.45 12893.4 8891.39 12893.4 8872.23 12896.5C8854.6 12914.2 8840.09 12929 8828.71 12940.8C8817.59 12953 8808.61 12962.8 8801.77 12970.3C8794.06 12979.2 8788.05 12986.2 8783.77 12991.4C8780.31 12996.3 8777.38 13002.2 8774.97 13009.4C8772.87 13015.1 8771.16 13022.1 8769.82 13030.4C8768.48 13038.6 8768.22 13048 8769.03 13058.5C8757.79 13045.5 8748.13 13035.3 8740.05 13027.9C8735.2 13023.3 8730.89 13019.3 8727.12 13015.9C8722.8 13012.5 8718.2 13008.7 8713.34 13004.7C8709.02 13001.3 8704.02 12997.1 8698.36 12992.3C8692.67 12988 8686.46 12983.1 8679.7 12977.7C8684.97 12977 8690.41 12975.3 8696 12972.7C8701.32 12970.4 8706.23 12967.9 8710.72 12965.3C8716.05 12962.4 8721.26 12959.1 8726.34 12955.4C8730.58 12951.9 8736.67 12946.4 8744.62 12938.9C8752.84 12931.6 8761.65 12923.1 8771.05 12913.1C8781 12903.2 8791.1 12892.8 8801.35 12882C8811.88 12871 8821.57 12860.5 8830.42 12850.5C8839.27 12840.5 8846.7 12831.6 8852.73 12823.8C8859.3 12816 8863.47 12810.1 8865.24 12806.3C8867.3 12801.7 8869.1 12796.8 8870.63 12791.6C8872.14 12786.9 8873.39 12781.7 8874.38 12775.9C8875.66 12769.9 8876.81 12763.4 8877.83 12756.5ZM9065.46 12982.3L9138.67 13061.5C9117.06 13073.3 9099.07 13083.8 9084.72 13093.1C9070.64 13102.7 9059.21 13111 9050.44 13118.2C9040 13126 9031.78 13133.2 9025.79 13139.9C9020.63 13146.4 9015.59 13153.9 9010.65 13162.3C9006.59 13169.4 9002.47 13178.1 8998.31 13188.5C8994.15 13198.9 8991.06 13210.4 8989.05 13223C8986.97 13218.6 8984.33 13214.1 8981.14 13209.6C8977.95 13205 8974.89 13201 8971.95 13197.3C8968.48 13193 8964.72 13189.1 8960.68 13185.4C8956.64 13181.7 8952.06 13177.7 8946.93 13173.4C8942.6 13169.9 8937.33 13165.8 8931.11 13160.9C8924.89 13156 8918.12 13151.1 8910.8 13146.2C8927.6 13138.4 8941.76 13131.2 8953.27 13124.6C8965.05 13118.3 8974.61 13112.8 8981.92 13108C8990.38 13102.2 8997.01 13097.3 9001.82 13093.3C9007.5 13087.9 9013.88 13081.9 9020.98 13075.1C9028.36 13068.2 9035.46 13061.5 9042.27 13055C9049.08 13048.6 9054.91 13042.8 9059.75 13037.7C9064.88 13032.3 9067.75 13028.5 9068.36 13026.3L9068.6 13018C9068.4 13015 9067.98 13010.6 9067.31 13004.7C9067.2 12998.9 9066.58 12991.5 9065.46 12982.3ZM9159.61 12950.6C9168.37 12953.6 9174.85 12958.7 9179.07 12966C9183.55 12973.6 9185.42 12981 9184.66 12988.1C9183.91 12995.3 9180.3 13000.9 9173.83 13004.8C9167.63 13009.1 9158.09 13009.5 9145.2 13006.1C9132.59 13002.4 9124.04 12996.8 9119.56 12989.2C9115.07 12981.6 9113.9 12974.4 9116.02 12967.6C9118.15 12960.7 9123 12955.3 9130.57 12951.4C9138.43 12947.2 9148.1 12946.9 9159.61 12950.6ZM9272.65 12984C9277.12 12992.1 9281.48 12999.3 9285.72 13005.5C9290.52 13011.7 9294.66 13016.9 9298.13 13021.2C9302.41 13026.3 9306.43 13030.8 9310.18 13034.8C9313.94 13038.8 9318.92 13043.5 9325.12 13048.9C9335.9 13058.6 9352.12 13071.5 9373.77 13087.6C9368.55 13086.6 9363.46 13085.7 9358.51 13085.1C9354.11 13084.4 9349.97 13084 9346.11 13083.9L9333.68 13083.5C9325.08 13084.7 9312.94 13089.2 9297.24 13097C9283.79 13103.8 9265.81 13114.4 9243.3 13128.6C9221.06 13143.2 9192.84 13164 9158.65 13190.9C9185.42 13192 9207.99 13195.4 9226.34 13201.1C9245.24 13206.9 9260.68 13213 9272.66 13219.4C9286.53 13227.3 9297.9 13235.6 9306.77 13244.4C9316.92 13256.9 9324.04 13269.2 9328.11 13281.5C9332.74 13293.8 9335.18 13305.5 9335.42 13316.5C9336.21 13327.6 9335.51 13337.7 9333.32 13346.7C9331.69 13355.8 9329.68 13363.3 9327.3 13369.3C9325.53 13373.2 9321.09 13379 9313.96 13386.8C9307.38 13394.6 9299 13402.8 9288.81 13411.4C9278.63 13419.9 9266.93 13428 9253.73 13435.7C9241.08 13443.3 9227.66 13448.7 9213.48 13451.9C9199.85 13455.1 9186.03 13455.3 9172.02 13452.4C9158.27 13449.8 9145.22 13442.6 9132.84 13430.6C9119.16 13416.1 9107.58 13400.5 9098.1 13383.6C9089.94 13369.3 9083.23 13352.2 9077.99 13332.5C9073.29 13312.7 9073.47 13291.9 9078.5 13269.9C9075.1 13273.1 9071.69 13276.4 9068.28 13279.6C9065.16 13282.5 9062.6 13285.2 9060.6 13287.6C9057.74 13290.9 9055.31 13293.7 9053.31 13296.1C9051.03 13298.8 9049 13302.1 9047.23 13305.9C9045.77 13308.9 9044.14 13312.9 9042.34 13317.8C9041.1 13322.7 9040.39 13328.2 9040.22 13334.3C9037.55 13330.9 9034.74 13327.7 9031.79 13324.6C9029.12 13321.2 9026.17 13318 9022.93 13315.2C9019.43 13312 9015.93 13308.9 9012.42 13305.8C9008.92 13302.6 9005.14 13299.5 9001.08 13296.3C8997.56 13293.7 8993.36 13290.7 8988.49 13287.3C8983.61 13283.8 8978.46 13280.4 8973.03 13276.9C8976.39 13275.3 8980.75 13272.5 8986.11 13268.6C8991.76 13264.3 8997.83 13259.6 9004.33 13254.6C9011.38 13249.5 9018.44 13243.9 9025.53 13237.7C9032.88 13231.9 9040.23 13226 9047.57 13220.1C9064.26 13206.5 9082.23 13191.4 9101.49 13174.8C9130.97 13148.6 9157.78 13123.5 9181.94 13099.6C9192.18 13089.4 9202.29 13078.7 9212.27 13067.7C9222.52 13056.9 9231.79 13046.5 9240.09 13036.5C9248.66 13026.3 9255.7 13016.7 9261.21 13007.7C9267.26 12998.8 9271.08 12990.9 9272.65 12984ZM9117.61 13235.4C9113.67 13247.7 9111.13 13259.2 9110 13270C9109.16 13280.4 9109.16 13290.1 9110.02 13299C9110.87 13307.8 9112.45 13315.8 9114.74 13322.7C9117.3 13330 9120.15 13336.4 9123.31 13342C9130.4 13355.2 9139.91 13365.9 9151.84 13373.9C9164.34 13381.5 9177.53 13384.1 9191.42 13381.7C9205.3 13379.3 9219.11 13374.6 9232.85 13367.5C9239.3 13364.1 9246.63 13358.8 9254.85 13351.6C9263.34 13344.6 9270.19 13336.5 9275.43 13327.3C9281.22 13318 9284.4 13308 9284.98 13297.3C9285.84 13286.2 9282.01 13275.1 9273.48 13263.8C9266.78 13256.7 9257.01 13250.3 9244.18 13244.7C9232.99 13239.7 9218.05 13235.3 9199.37 13231.4C9180.97 13227.3 9157.27 13225.3 9128.25 13225.3L9117.61 13235.4ZM9634.27 13478.3C9625.61 13481.6 9617.78 13484.7 9610.8 13487.6C9604.08 13490.7 9598.06 13493.4 9592.74 13495.8C9586.86 13498.6 9581.68 13501.1 9577.2 13503.2C9572.15 13505.8 9566.4 13508.8 9559.95 13512.2C9554.07 13515.1 9546.64 13518.6 9537.68 13522.8C9529.28 13527 9519.19 13532 9507.42 13537.7C9518.9 13522.6 9525.8 13508.2 9528.11 13494.8C9530.71 13481 9531.33 13468.9 9529.97 13458.4C9528.1 13446.1 9524.27 13434.7 9518.5 13424C9506.56 13406.3 9495.81 13395.5 9486.25 13391.6C9476.69 13387.8 9468.42 13387 9461.45 13389.3C9458.39 13390 9454.62 13391.2 9450.16 13392.7C9446.25 13394.2 9442.33 13396.1 9438.4 13398.2C9434.74 13400.5 9431.48 13403.4 9428.63 13406.6C9425.77 13409.8 9424.43 13413.5 9424.59 13417.7C9424.51 13420.4 9426.01 13426 9429.09 13434.4C9432.45 13442.5 9436.47 13452.1 9441.13 13463.3C9446.34 13474.5 9451.67 13486.4 9457.12 13499C9462.83 13511.9 9468.01 13524.2 9472.66 13535.9C9477.3 13547.6 9480.87 13558.2 9483.37 13567.7C9485.87 13577.2 9486.63 13584.2 9485.67 13588.9C9484.44 13593.3 9482.36 13598.8 9479.41 13605.3C9477.01 13611.9 9473.38 13618.3 9468.51 13624.5C9464.19 13630.7 9458.78 13636.4 9452.28 13641.4C9446.33 13646.5 9439.18 13650.3 9430.82 13652.9C9422.46 13655.4 9412.91 13655.8 9402.19 13654.1C9391.72 13652.7 9380.1 13648.4 9367.32 13641.1C9352.36 13632.7 9340.5 13622.1 9331.74 13609.5C9322.97 13596.8 9315.87 13584.1 9310.42 13571.5C9305.24 13559.2 9300.99 13548.2 9297.67 13538.4C9294.64 13528.4 9291.5 13522.2 9288.25 13519.9C9284.73 13517.4 9279.81 13515.3 9273.5 13513.7C9267.19 13512.2 9260.87 13510.9 9254.54 13509.9C9248.77 13508.9 9243.54 13508.2 9238.85 13507.8C9234.45 13507.1 9232.53 13506.5 9233.1 13506C9233.67 13505.4 9235.77 13504.2 9239.42 13502.4C9243.33 13500.9 9247.81 13498.8 9252.86 13496.1C9258.46 13493.5 9264.2 13490.5 9270.1 13487.1C9276.56 13483.7 9282.32 13480.1 9287.4 13476.4C9291.63 13473.5 9296.84 13469.9 9303.04 13465.6C9308.4 13461.7 9314.89 13456.9 9322.51 13451.3C9330.68 13445.7 9340.4 13438.9 9351.68 13431C9345.64 13439.4 9341.13 13447.4 9338.15 13455C9335.44 13463 9333.31 13470.1 9331.75 13476.4C9330.16 13483.8 9329.14 13490.4 9328.7 13496.2C9328.76 13504.2 9329.76 13512.7 9331.72 13521.6C9333.95 13530.8 9336.6 13539.5 9339.68 13547.9C9343.05 13556 9347 13563 9351.53 13569C9356.06 13574.9 9360.92 13578.9 9366.11 13581C9371.3 13583.1 9377.38 13583.2 9384.33 13581.5C9391.56 13580 9398.4 13577.3 9404.87 13573.4C9411.34 13569.4 9416.85 13565 9421.41 13560.2C9426.25 13555 9429.16 13549.9 9430.13 13544.7C9430.51 13541.1 9429.31 13534.7 9426.53 13525.5C9424.02 13516.6 9420.58 13506.1 9416.22 13494.1C9412.13 13482.4 9407.64 13470 9402.76 13456.8C9398.15 13444 9393.94 13431.6 9390.13 13419.6C9386.88 13407.6 9384.54 13397.2 9383.14 13388.3C9382.28 13379.5 9383.14 13373.3 9385.73 13369.7C9389.74 13364.9 9394.3 13359.8 9399.43 13354.4C9404.84 13348.7 9410.64 13343.8 9416.84 13339.5C9423.59 13335.3 9430.86 13332.2 9438.65 13330.2C9446.71 13328.5 9455.27 13329 9464.31 13331.7C9470.34 13333.6 9477 13337.2 9484.31 13342.7C9491.62 13348.1 9499.03 13354.8 9506.54 13362.8C9514.34 13370.5 9521.84 13379 9529.03 13388.3C9536.52 13397.3 9543.31 13406.2 9549.42 13415C9556.08 13423.7 9561.66 13431.9 9566.14 13439.5C9570.89 13447.3 9574.31 13453.5 9576.4 13458C9578.73 13463.3 9582.62 13467.7 9588.05 13471.2C9592.65 13474.3 9598.53 13476.9 9605.66 13478.7C9612.79 13480.6 9622.33 13480.4 9634.27 13478.3Z" fill="black"/>
<path d="M2060.15 11712.5C2065.86 11702.2 2070.73 11692.2 2074.78 11682.5C2078.83 11672.8 2082.21 11664.3 2084.93 11656.8C2088.35 11648.1 2090.9 11639.9 2092.58 11632.2C2095.15 11622.5 2097.5 11610.2 2099.63 11595.2C2101.85 11579.8 2104.34 11564.2 2107.09 11548.2C2109.49 11532.2 2112.4 11517.1 2115.83 11502.8C2118.99 11488.1 2122.98 11476.5 2127.79 11468.2C2132.26 11459.7 2137.98 11451.4 2144.96 11443.3C2151.69 11434.7 2159.39 11427.3 2168.08 11421.1C2176.43 11414.8 2185.61 11410.2 2195.64 11407.3C2205.33 11404.3 2215.62 11403.9 2226.54 11406C2239.94 11409.9 2251.75 11416.4 2261.95 11425.4C2270.7 11432.9 2278.93 11443.8 2286.62 11458.1C2293.97 11472.3 2297.57 11490.8 2297.41 11513.7C2301.64 11503.4 2306.5 11494.9 2311.98 11488.2C2317.21 11481 2322.81 11475.3 2328.78 11470.9C2334.49 11466.2 2340.4 11462.7 2346.51 11460.7C2352.72 11458.2 2358.69 11456.7 2364.43 11456C2377.92 11454 2392.06 11455.1 2406.85 11459.4C2425.68 11466.7 2440.03 11474.7 2449.89 11483.7C2459.84 11492.2 2466.96 11501 2471.26 11509.9C2475.56 11518.8 2477.91 11527.4 2478.31 11535.7C2478.71 11543.9 2478.78 11551.3 2478.51 11557.9C2478.24 11564.5 2476.91 11572.3 2474.52 11581.3C2472.13 11590.3 2469.39 11600 2466.29 11610.3C2462.93 11620.1 2459.65 11630.4 2456.46 11641C2452.92 11651.5 2450.21 11661.8 2448.33 11671.6C2446.91 11679.8 2445.03 11689.6 2442.69 11701.2C2440.81 11711.1 2438.46 11723.5 2435.64 11738.3C2432.47 11753 2428.83 11770.2 2424.72 11789.8C2422.97 11785.3 2420.68 11781.4 2417.86 11778C2414.79 11774.2 2412.1 11771.1 2409.79 11768.6C2406.79 11766 2403.91 11763.6 2401.17 11761.4C2398.67 11759.6 2391.29 11756.7 2379.01 11752.7C2366.74 11748.7 2351.99 11744.2 2334.78 11739.3C2317.22 11734.3 2298.41 11729.1 2278.34 11723.7C2258.01 11718 2238.41 11713 2219.54 11708.7C2200.41 11704 2183.44 11700.2 2168.63 11697.4C2153.56 11694.1 2142.56 11692.3 2135.62 11692C2127.8 11692.1 2119.62 11692.9 2111.09 11694.3C2103.78 11695.4 2095.63 11697.5 2086.64 11700.6C2077.74 11703.5 2068.91 11707.4 2060.15 11712.5ZM2142.18 11617C2143.56 11617.4 2148.28 11618.5 2156.33 11620.2C2163.34 11621.7 2174.17 11624.2 2188.79 11627.7C2203.17 11630.8 2223.64 11635.3 2250.22 11641.3C2256.32 11633.6 2260.65 11625.7 2263.2 11617.5C2265.41 11609.2 2267.04 11601.6 2268.09 11594.9C2269.07 11587 2269.27 11579.3 2268.69 11571.7C2267.36 11561.3 2263.06 11552.4 2255.79 11544.9C2248.61 11537.1 2240.57 11531.1 2231.69 11526.9C2222.55 11522.2 2213.69 11519.3 2205.11 11518.1C2196.18 11516.9 2189.35 11517.5 2184.63 11519.9C2177 11524.9 2169.99 11531.8 2163.61 11540.5C2158.29 11547.9 2153.41 11558 2148.98 11570.5C2144.28 11582.6 2142.02 11598.1 2142.18 11617ZM2387.55 11684.9C2397.53 11673.9 2404.84 11663.8 2409.49 11654.6C2414.14 11645.5 2417.34 11637.7 2419.08 11631.1C2421.1 11623.5 2421.81 11616.6 2421.21 11610.5C2419.84 11603.1 2417.38 11595.6 2413.85 11588C2410.05 11580 2404.94 11573.4 2398.5 11568.4C2391.8 11562.9 2383.86 11559.3 2374.68 11557.6C2365.15 11555.8 2353.89 11557.1 2340.88 11561.4C2331.18 11565.9 2322.83 11572.2 2315.85 11580.3C2309.84 11587.6 2304.62 11597.5 2300.18 11610.1C2295.83 11622.2 2294.69 11638.4 2296.74 11658.6L2387.55 11684.9ZM2324.72 11364.8C2323.1 11362.6 2319.57 11360.5 2314.12 11358.7C2308.42 11356.4 2302.21 11353.3 2295.5 11349.3C2288.87 11345 2282.32 11339 2275.83 11331.3C2269.34 11323.6 2264.28 11312.7 2260.67 11298.4C2256.96 11284.4 2255.94 11271.6 2257.58 11259.8C2259.23 11248 2262.64 11237.2 2267.82 11227.5C2273 11217.7 2279.38 11209.1 2286.96 11201.4C2294.63 11193.5 2302.6 11186.5 2310.85 11180.6C2316.38 11176.5 2323.54 11173.9 2332.32 11172.9C2340.76 11171.8 2350.06 11171.7 2360.21 11172.5C2370.36 11173.4 2380.89 11174.9 2391.8 11177C2402.46 11178.8 2412.85 11180.8 2422.98 11183.1C2432.76 11185.3 2441.81 11187.5 2450.11 11189.7C2458.17 11191.5 2464.93 11192.6 2470.39 11192.9C2478.37 11193.5 2485.59 11192.9 2492.05 11190.9C2498.16 11188.8 2503.67 11186.2 2508.58 11183C2513.14 11179.8 2517.01 11176.4 2520.19 11172.8C2523.37 11169.2 2525.89 11166 2527.76 11163.1C2529.35 11161.3 2530.55 11159.6 2531.35 11158C2533.65 11154.9 2534.3 11152.4 2533.28 11150.7C2537.57 11154.1 2541.22 11157.1 2544.22 11159.7C2547.22 11162.4 2549.8 11164.5 2551.95 11166.2C2554.35 11168.3 2556.27 11170.1 2557.73 11171.6C2559.53 11173.2 2561.11 11174.9 2562.48 11176.8C2563.93 11178.3 2565.47 11180.2 2567.08 11182.4C2568.7 11184.7 2570.49 11187.1 2572.45 11189.4C2569.53 11193.5 2566.3 11197.2 2562.78 11200.8C2559.35 11203.9 2556.18 11206.8 2553.27 11209.3C2549.84 11212.5 2546.5 11215.3 2543.25 11217.8C2540 11220.3 2536.45 11222.5 2532.6 11224.4C2529.19 11226.1 2525.56 11227.9 2521.71 11229.9C2517.95 11231.5 2513.94 11232.6 2509.67 11233.3C2513.62 11236.6 2518.69 11243.3 2524.88 11253.5C2531.17 11263.3 2536.12 11275.4 2539.73 11289.7C2543 11303.9 2543.81 11319.6 2542.17 11337C2540.62 11354 2533.94 11371.5 2522.13 11389.5C2517.06 11397.4 2510.92 11404.5 2503.71 11410.7C2496.15 11416.8 2487.83 11421.7 2478.74 11425.2C2469.75 11428.4 2460.09 11429.9 2449.76 11429.7C2439.17 11429.1 2428.14 11426 2416.67 11420.4C2405.2 11414.7 2396.14 11407.7 2389.49 11399.3C2382.84 11390.8 2378.06 11381.6 2375.17 11371.6C2372.27 11361.5 2370.87 11350.8 2370.95 11339.3C2371.03 11327.9 2372.06 11316.3 2374.06 11304.6C2376.1 11295.5 2379.01 11286.6 2382.78 11278C2386.19 11270.8 2390.89 11263.5 2396.91 11256.2C2402.57 11248.8 2409.82 11243.1 2418.65 11239.2C2400.22 11234.7 2385.5 11231.5 2374.49 11229.7C2363.23 11227.4 2354.57 11225.9 2348.5 11225C2341.21 11224.5 2336.05 11224.5 2333 11224.8C2330.12 11225.9 2326.85 11227 2323.18 11228.3C2319.61 11229.2 2316.24 11230.7 2313.08 11232.8C2309.58 11234.9 2306.41 11237.7 2303.58 11241.4C2300.75 11245.1 2298.77 11249.8 2297.64 11255.4C2296.43 11261.4 2296.74 11266.5 2298.59 11270.7C2300.44 11274.9 2303 11278.5 2306.25 11281.6C2309.25 11284.2 2312.79 11286.3 2316.85 11287.7C2320.91 11289.2 2324.59 11290 2327.89 11290.1C2330.15 11290 2332.67 11289.5 2335.46 11288.8C2337.91 11287.9 2340.66 11286.6 2343.73 11284.9C2346.79 11283.1 2349.74 11280.3 2352.57 11276.7C2351.5 11284.9 2350.48 11292.2 2349.52 11298.6C2348.21 11304.9 2347.31 11310.5 2346.8 11315.1C2346.12 11320.5 2345.44 11325.1 2344.78 11329C2344.11 11332.9 2343.61 11337.6 2343.27 11343.1C2342.77 11347.8 2342.16 11353.5 2341.46 11360.4C2340.75 11367.2 2340.11 11375.2 2339.55 11384.3C2337.67 11381.6 2335.93 11379.1 2334.31 11376.8C2332.35 11374.5 2330.69 11372.4 2329.32 11370.5C2327.61 11368.6 2326.08 11366.7 2324.72 11364.8ZM2407.16 11303.4C2405.86 11309.7 2405.76 11316.3 2406.88 11323.3C2407.64 11330.2 2409.81 11336.7 2413.37 11342.8C2416.58 11348.8 2420.84 11354.4 2426.15 11359.5C2431.21 11364.2 2437.37 11367.5 2444.64 11369.4C2451.91 11371.4 2458.77 11371.3 2465.22 11369.4C2471.43 11366.9 2477.04 11363.2 2482.06 11358.3C2487.18 11353 2491 11346.9 2493.53 11340.2C2496.15 11333.1 2497.34 11325.8 2497.1 11318.4C2496.43 11311.1 2494.27 11303.9 2490.64 11296.6C2486.67 11289.3 2482.12 11282.7 2476.99 11276.9C2471.52 11271 2465.9 11266.4 2460.12 11263C2454.01 11259.5 2448.69 11257.9 2444.17 11258.2C2434.44 11258.6 2426.55 11263.1 2420.52 11271.9C2414.14 11280.6 2409.69 11291.1 2407.16 11303.4ZM2493.18 10835C2491.38 10838.9 2489.49 10844 2487.49 10850.1C2485.58 10855.9 2483.89 10861.6 2482.42 10867.1C2480.76 10873.3 2479.19 10880 2477.7 10887C2476.12 10894.3 2474.53 10901.7 2472.95 10909.1C2471.64 10915.4 2470.28 10922.6 2468.86 10930.8C2467.18 10938.5 2465.73 10946 2464.49 10953.5C2463.84 10950.4 2462.58 10947.4 2460.71 10944.7C2458.93 10941.6 2457.06 10938.9 2455.09 10936.5C2452.78 10934.1 2450.26 10931.7 2447.51 10929.5C2442.78 10926.4 2436.5 10924.9 2428.68 10925.1C2420.52 10925.1 2412.58 10927.1 2404.89 10931C2397.28 10934.5 2390.64 10940 2384.97 10947.4C2379.05 10954.3 2375.85 10962.9 2375.35 10973.2C2375.02 10984.2 2376.17 10994.5 2378.81 11004.1C2381.54 11013.3 2386.5 11021.9 2393.68 11029.7C2400.61 11037.1 2409.98 11043.7 2421.8 11049.4C2433.36 11054.7 2447.76 11059.1 2464.99 11062.5C2486.47 11066.8 2504.17 11067.8 2518.1 11065.5C2532.03 11063.3 2543.17 11059 2551.51 11052.7C2559.85 11046.4 2565.96 11038.8 2569.82 11029.8C2573.43 11020.4 2575.96 11010.9 2577.4 11001.2C2577.76 10994.3 2576.43 10987.5 2573.4 10980.7C2570.79 10975.2 2566.35 10969.6 2560.09 10963.9C2553.84 10958.1 2544.26 10953.7 2531.36 10950.7L2545.58 10886.7C2564.07 10899.3 2577.99 10912.5 2587.35 10926.1C2596.36 10939.6 2602.87 10952.1 2606.87 10963.5C2611.45 10976.9 2613.61 10989.7 2613.35 11001.9C2612 11016.7 2609.69 11029.6 2606.4 11040.6C2602.77 11051.5 2598.38 11061.1 2593.22 11069.4C2588.06 11077.6 2582.39 11085 2576.22 11091.5C2570.05 11098 2563.62 11104.1 2556.93 11109.7C2552.63 11113.4 2546.1 11117 2537.36 11120.7C2528.63 11124.3 2518.6 11127.2 2507.27 11129.3C2495.6 11131.4 2483.13 11132.4 2469.84 11132.2C2456.56 11132 2443.43 11129.8 2430.46 11125.6C2417.15 11121.3 2404.48 11114.6 2392.45 11105.5C2380.42 11096.4 2369.79 11084.1 2360.54 11068.7C2346.73 11045.4 2339.8 11022.6 2339.78 11000.4C2339.5 10977.7 2343.23 10957.4 2350.96 10939.5C2358.34 10921.4 2368.11 10906.2 2380.28 10893.9C2392.44 10881.6 2404.15 10873.7 2415.41 10870.4C2426.66 10867.1 2435.25 10864.8 2441.17 10863.4C2446.85 10861.6 2451.25 10860.3 2454.39 10859.7C2457.27 10858.6 2459.54 10857.7 2461.2 10857C2462.6 10855.9 2464.67 10854.4 2467.39 10852.6C2469.58 10851.3 2472.03 10849.7 2474.75 10847.8C2477.03 10846.2 2479.75 10844.4 2482.91 10842.2C2486.07 10840.1 2489.49 10837.7 2493.18 10835ZM2299.73 10797.5C2302.47 10794.1 2304.88 10790 2306.95 10785C2309.11 10779.6 2310.84 10774.5 2312.12 10769.7C2313.68 10763.8 2315.12 10757.7 2316.43 10751.4C2317.73 10745 2319.06 10737.2 2320.41 10728C2321.65 10720.5 2323.18 10711.3 2324.99 10700.3C2326.8 10689.3 2328.58 10677 2330.34 10663.4C2331.48 10668.8 2332.97 10673.7 2334.82 10677.9C2336.67 10682.1 2338.66 10685.8 2340.78 10688.9C2343.16 10692.5 2345.68 10695.6 2348.34 10698.1C2351.85 10701.7 2358.24 10706.9 2367.52 10713.8C2376.55 10720.3 2386.74 10727.2 2398.09 10734.7C2409.54 10741.8 2421.26 10748.6 2433.23 10755.1C2445.3 10761.3 2455.79 10765.8 2464.7 10768.5C2472.22 10770.9 2480.78 10773.5 2490.38 10776.4C2498.59 10779 2508.71 10782 2520.73 10785.6C2532.75 10789.1 2546.51 10793.2 2561.99 10797.7C2550.61 10768 2541.34 10744.9 2534.2 10728.6C2526.71 10712.2 2520.85 10700 2516.62 10692.2C2511.97 10683.2 2508.45 10677.7 2506.05 10675.5C2503.88 10675.3 2501.4 10675.6 2498.61 10676.4C2496.07 10677.5 2493.01 10679.3 2489.41 10681.7C2485.81 10684.1 2481.46 10687.9 2476.35 10693.2C2479.77 10684.5 2482.53 10676.9 2484.62 10670.4C2486.81 10663.6 2488.72 10657.8 2490.35 10653C2492.16 10647.6 2493.45 10642.8 2494.21 10638.5C2495.4 10634 2496.7 10628.4 2498.1 10621.8C2500.78 10610.2 2504.95 10592.5 2510.6 10568.4C2516.55 10594.8 2522.07 10615.9 2527.14 10631.7C2529.96 10640.6 2532.67 10648.5 2535.26 10655.5C2538.2 10662.6 2541.26 10669.9 2544.45 10677.4C2547.13 10684 2550.28 10691.7 2553.89 10700.5C2557.59 10708.9 2561.63 10717.3 2566.03 10725.9C2588.97 10719 2608.04 10712.8 2623.23 10707.2C2638.52 10701.3 2650.97 10696.2 2660.58 10692.1C2671.85 10687.3 2680.99 10682.9 2688 10678.8C2694.66 10674.7 2702.48 10669 2711.44 10661.7C2719.34 10655.7 2728.89 10647.6 2740.06 10637.6C2750.98 10627.2 2763.8 10614.5 2778.53 10599.5C2774.41 10608 2770.9 10616.4 2768 10624.5C2765.45 10632.7 2763.57 10639.8 2762.35 10645.8C2760.77 10653.1 2759.71 10659.9 2759.19 10666.1C2758.92 10672.7 2758.81 10680 2758.87 10688.2C2758.85 10695.2 2759.04 10703.6 2759.42 10713.4C2760.23 10722.8 2761.69 10733.4 2763.78 10745.1C2760.68 10737.2 2757.29 10731.1 2753.62 10726.8C2750.38 10722.3 2747.57 10718.9 2745.17 10716.8C2742.07 10714.5 2739.27 10713.2 2736.75 10712.9C2732.83 10713.7 2724.68 10715.8 2712.3 10719.2C2701.74 10722.7 2686.29 10727.8 2665.95 10734.7C2645.62 10741.5 2617.77 10751.5 2582.4 10764.7C2582.47 10765.9 2583.05 10767.9 2584.14 10770.7C2585.31 10773.3 2586.91 10777 2588.92 10782C2590.59 10786.9 2593.27 10793.5 2596.97 10801.9L2691.54 10812C2692.1 10815.5 2692.39 10819.3 2692.42 10823.4C2692.54 10827.1 2692.53 10830.6 2692.39 10833.9C2692.42 10838 2692.1 10842 2691.44 10845.9C2690.77 10849.8 2690.27 10854.5 2689.93 10860C2689.43 10864.6 2688.87 10870.2 2688.25 10876.7C2687.99 10883.3 2687.66 10890.8 2687.28 10899.3C2685.36 10893.9 2682.69 10889.3 2679.27 10885.5C2676.2 10881.7 2673.16 10878.5 2670.16 10875.8C2666.81 10873.1 2663.24 10870.5 2659.46 10868C2656.18 10866.4 2647.37 10863.3 2633.02 10858.7C2618.76 10853.8 2601.68 10848.4 2581.79 10842.4C2561.56 10836.3 2539.89 10829.9 2516.8 10823.4C2493.79 10816.6 2472.08 10810.5 2451.66 10805C2430.9 10799.5 2412.85 10794.9 2397.53 10791.2C2381.87 10787.4 2371.65 10785.5 2366.87 10785.3C2360.88 10785.6 2354.44 10786.1 2347.57 10786.9C2341.48 10787.5 2334.47 10788.7 2326.54 10790.7C2318.35 10792.2 2309.42 10794.5 2299.73 10797.5ZM2589.33 10278.1C2591.72 10269.1 2595.93 10260.2 2601.97 10251.4C2607.66 10242.6 2614.29 10234.3 2621.87 10226.7C2629.1 10219 2636.63 10212.3 2644.44 10206.6C2652 10200.4 2659.02 10195.6 2665.49 10192.2C2677.14 10186 2691.33 10183.5 2708.08 10184.6C2724.57 10185.3 2740.85 10188.8 2756.91 10195.3C2772.62 10201.7 2786.74 10210.7 2799.25 10222.1C2811.76 10233.6 2819.69 10247 2823.03 10262.3C2825.3 10273.3 2826.58 10283.8 2826.87 10293.9C2827.16 10304 2826.84 10313.5 2825.93 10322.6C2825.02 10331.6 2823.55 10339.9 2821.53 10347.5C2819.51 10355.1 2817.59 10361.7 2815.77 10367.1C2812.33 10377.3 2805.8 10387.2 2796.19 10396.9C2786.67 10406.2 2775.74 10414.6 2763.38 10422.1C2751.12 10429.2 2738.36 10434.7 2725.1 10438.6C2711.5 10442.4 2699.32 10443.6 2688.57 10442.3C2673.83 10440.6 2658.86 10437 2643.65 10431.4C2628.44 10425.9 2615.41 10417.1 2604.56 10404.9C2593.8 10392.5 2586.48 10376.1 2582.6 10355.8C2578.82 10335.1 2581.07 10309.2 2589.33 10278.1ZM2786.21 10348.7C2787.91 10345.1 2788.42 10339.7 2787.75 10332.4C2786.72 10325.1 2784.1 10317.6 2779.87 10309.8C2775.73 10301.6 2769.8 10294 2762.09 10286.7C2754.13 10279.1 2743.71 10273 2730.83 10268.4C2718.3 10264 2706.53 10260.9 2695.53 10259.1C2684.62 10256.9 2674.86 10256 2666.26 10256.3C2657.31 10256.5 2649.82 10257.5 2643.81 10259.2C2637.79 10260.9 2633.28 10263.3 2630.29 10266.2C2625.61 10271.2 2621.3 10277.7 2617.37 10285.5C2613.09 10293.3 2611.55 10300.5 2612.75 10307.1C2613.4 10310.2 2615.43 10314.5 2618.82 10319.8C2622.22 10325.2 2626.83 10330.8 2632.65 10336.8C2638.12 10342.7 2644.72 10348.6 2652.46 10354.3C2660.28 10359.7 2668.68 10364.4 2677.66 10368.2C2686.64 10372.1 2696.58 10375.1 2707.49 10377.3C2718.5 10379.1 2729.3 10379.5 2739.91 10378.6C2750.18 10377.7 2759.6 10375 2768.17 10370.6C2776.49 10365.8 2782.5 10358.5 2786.21 10348.7ZM2540.3 10083.9C2537.19 10088.6 2533.15 10092 2528.17 10094C2522.84 10095.9 2517.54 10096.4 2512.26 10095.4C2507.06 10094 2502.41 10091.3 2498.3 10087.2C2493.94 10082.7 2490.85 10076.9 2489.05 10069.7C2486.17 10058.2 2487.09 10049.2 2491.78 10042.7C2496.57 10035.8 2502.2 10031.4 2508.65 10029.4C2511.88 10028.4 2516.01 10028.2 2521.04 10028.8C2525.81 10028.9 2530.92 10029.9 2536.37 10031.7C2541.56 10033.1 2546.61 10035 2551.53 10037.4C2556.45 10039.9 2560.36 10042.6 2563.27 10045.6C2565.58 10048 2567.79 10050.8 2569.92 10054C2571.79 10056.7 2573.52 10059.9 2575.12 10063.7C2576.81 10067.1 2578.18 10071 2579.25 10075.4L2572.73 10093.6C2570.61 10090.5 2568.78 10087.6 2567.25 10085C2565.38 10082.2 2563.77 10080 2562.4 10078.1C2561.04 10076.3 2559.85 10074.5 2558.83 10072.7C2556.96 10070 2555 10067.6 2552.94 10065.6C2551.24 10063.7 2549.48 10061.9 2547.68 10060.3C2545.53 10058.6 2543.16 10057.8 2540.55 10057.9C2542.58 10061.4 2543.75 10064.6 2544.05 10067.7C2544.36 10070.7 2544.19 10073.5 2543.55 10075.9C2543.16 10078.7 2542.07 10081.4 2540.3 10083.9ZM2734.04 9823.04C2732.42 9820.75 2728.89 9818.71 2723.45 9816.89C2717.75 9814.63 2711.54 9811.5 2704.82 9807.5C2698.2 9803.15 2691.64 9797.15 2685.15 9789.49C2678.66 9781.84 2673.61 9770.87 2670 9756.57C2666.29 9742.62 2665.26 9729.75 2666.91 9717.97C2668.56 9706.18 2671.97 9695.41 2677.15 9685.67C2682.33 9675.93 2688.71 9667.26 2696.29 9659.64C2703.96 9651.67 2711.92 9644.71 2720.17 9638.75C2725.7 9634.66 2732.86 9632.11 2741.65 9631.11C2750.09 9630.02 2759.38 9629.89 2769.53 9630.73C2779.68 9631.58 2790.21 9633.08 2801.13 9635.23C2811.79 9636.95 2822.18 9638.97 2832.31 9641.29C2842.09 9643.51 2851.13 9645.73 2859.44 9647.93C2867.49 9649.7 2874.25 9650.75 2879.72 9651.09C2887.7 9651.73 2894.92 9651.05 2901.37 9649.06C2907.48 9646.98 2912.99 9644.37 2917.9 9641.23C2922.47 9637.99 2926.34 9634.57 2929.52 9630.97C2932.7 9627.37 2935.22 9624.15 2937.08 9621.31C2938.67 9619.51 2939.87 9617.79 2940.68 9616.15C2942.98 9613.06 2943.62 9610.64 2942.6 9608.88C2946.9 9612.25 2950.55 9615.25 2953.55 9617.9C2956.55 9620.55 2959.12 9622.72 2961.27 9624.4C2963.67 9626.52 2965.6 9628.33 2967.05 9629.82C2968.86 9631.41 2970.44 9633.13 2971.8 9634.97C2973.25 9636.47 2974.79 9638.36 2976.41 9640.64C2978.02 9642.92 2979.82 9645.25 2981.78 9647.63C2978.85 9651.67 2975.63 9655.44 2972.1 9658.95C2968.67 9662.11 2965.5 9664.98 2962.6 9667.54C2959.16 9670.7 2955.82 9673.52 2952.57 9675.99C2949.32 9678.47 2945.77 9680.67 2941.93 9682.61C2938.51 9684.3 2934.88 9686.12 2931.03 9688.06C2927.27 9689.65 2923.26 9690.81 2919 9691.53C2922.94 9694.8 2928.01 9701.52 2934.21 9711.69C2940.49 9721.5 2945.44 9733.56 2949.06 9747.86C2952.32 9762.06 2953.14 9777.84 2951.49 9795.19C2949.95 9812.19 2943.26 9829.68 2931.45 9847.66C2926.39 9855.58 2920.25 9862.65 2913.03 9868.89C2905.47 9875.03 2897.15 9879.86 2888.07 9883.38C2879.08 9886.55 2869.41 9888.06 2859.08 9887.91C2848.49 9887.32 2837.46 9884.21 2826 9878.57C2814.53 9872.93 2805.46 9865.89 2798.81 9857.46C2792.16 9849.02 2787.39 9839.79 2784.49 9829.76C2781.6 9819.73 2780.19 9808.98 2780.27 9797.52C2780.35 9786.06 2781.39 9774.48 2783.38 9762.78C2785.42 9753.69 2788.33 9744.83 2792.1 9736.2C2795.51 9728.95 2800.22 9721.68 2806.23 9714.39C2811.9 9707 2819.14 9701.33 2827.97 9697.37C2809.54 9692.85 2794.82 9689.68 2783.82 9687.87C2772.56 9685.63 2763.9 9684.07 2757.83 9683.2C2750.54 9682.74 2745.37 9682.67 2742.33 9682.97C2739.45 9684.06 2736.17 9685.23 2732.51 9686.48C2728.93 9687.38 2725.57 9688.9 2722.41 9691.02C2718.9 9693.06 2715.74 9695.92 2712.9 9699.61C2710.07 9703.31 2708.09 9707.97 2706.97 9713.6C2705.75 9719.57 2706.07 9724.66 2707.92 9728.85C2709.77 9733.05 2712.32 9736.69 2715.58 9739.78C2718.58 9742.43 2722.11 9744.48 2726.17 9745.92C2730.23 9747.37 2733.91 9748.17 2737.21 9748.3C2739.47 9748.16 2742 9747.72 2744.79 9746.98C2747.23 9746.14 2749.98 9744.84 2753.05 9743.06C2756.12 9741.28 2759.07 9738.54 2761.9 9734.85C2760.82 9743.08 2759.81 9750.41 2758.84 9756.82C2757.54 9763.14 2756.63 9768.65 2756.13 9773.33C2755.44 9778.7 2754.77 9783.34 2754.1 9787.24C2753.44 9791.14 2752.94 9795.82 2752.6 9801.29C2752.09 9805.97 2751.49 9811.74 2750.78 9818.59C2750.07 9825.44 2749.44 9833.42 2748.87 9842.53C2747 9839.81 2745.25 9837.31 2743.64 9835.03C2741.67 9832.66 2740.01 9830.55 2738.65 9828.7C2736.94 9826.77 2735.4 9824.88 2734.04 9823.04ZM2816.49 9761.57C2815.18 9767.89 2815.09 9774.53 2816.2 9781.5C2816.97 9788.37 2819.13 9794.87 2822.69 9801C2825.9 9807.04 2830.17 9812.62 2835.48 9817.73C2840.53 9822.41 2846.7 9825.71 2853.96 9827.64C2861.23 9829.57 2868.09 9829.54 2874.55 9827.55C2880.75 9825.12 2886.36 9821.43 2891.39 9816.46C2896.5 9811.15 2900.32 9805.13 2902.85 9798.39C2905.47 9791.3 2906.67 9784.03 2906.43 9776.55C2905.75 9769.33 2903.6 9762.09 2899.97 9754.83C2895.99 9747.48 2891.44 9740.9 2886.31 9735.09C2880.84 9729.19 2875.22 9724.55 2869.45 9721.17C2863.33 9717.69 2858.02 9716.09 2853.49 9716.38C2843.76 9716.76 2835.88 9721.33 2829.84 9730.1C2823.46 9738.78 2819.01 9749.27 2816.49 9761.57ZM2759.71 9571.44C2761.8 9564.96 2763.54 9559.12 2764.92 9553.93C2766.04 9548.3 2766.93 9543.54 2767.6 9539.64C2768.45 9535.05 2769.16 9530.98 2769.73 9527.42C2770.42 9522.05 2770.98 9516.45 2771.41 9510.64C2772 9505.61 2772.47 9500.36 2772.81 9494.9C2772.89 9488.99 2772.76 9483.21 2772.41 9477.56C2777.05 9481.02 2781.09 9483.94 2784.53 9486.34C2787.97 9488.73 2790.98 9490.64 2793.56 9492.07C2796.4 9493.94 2798.86 9495.15 2800.94 9495.7C2803.27 9496.69 2806.16 9497.64 2809.63 9498.56C2815.42 9500.47 2824.93 9502.99 2838.18 9506.14C2827.38 9484.01 2819.27 9465.74 2813.83 9451.33C2808.48 9436.57 2804.35 9424.92 2801.44 9416.36C2798.2 9406.24 2796.36 9398.53 2795.91 9393.22C2797.24 9379.87 2803.16 9369.4 2813.7 9361.82C2818.26 9358.59 2823.99 9355.85 2830.88 9353.6C2837.43 9351.27 2845.74 9349.95 2855.82 9349.67C2865.9 9349.38 2877.7 9350.29 2891.22 9352.39C2904.39 9354.41 2919.84 9358.33 2937.56 9364.14C2936.32 9371.59 2935.27 9378.35 2934.4 9384.42C2933.62 9390.14 2932.9 9394.95 2932.24 9398.85C2931.73 9403.53 2930.98 9407.78 2929.97 9411.58L2927.8 9426.01C2927.21 9431.04 2926.29 9437.28 2925.06 9444.73C2923.56 9451.75 2922 9460.41 2920.38 9470.72C2912.47 9453.06 2904.74 9441.01 2897.19 9434.56C2889.39 9427.67 2882.45 9423.79 2876.39 9422.92C2869.63 9421.87 2863.09 9423.47 2856.77 9427.72C2851.22 9433.28 2847.95 9440.01 2846.97 9447.9C2845.92 9454.66 2846.84 9463.05 2849.73 9473.08C2852.63 9483.12 2859.88 9494.86 2871.5 9508.32C2893.83 9513.5 2912.36 9517.68 2927.08 9520.85C2941.89 9523.67 2953.88 9525.93 2963.07 9527.62C2973.72 9529.34 2982.09 9530.64 2988.15 9531.51C2993.62 9531.85 2999.71 9531.24 3006.42 9529.69C3011.91 9528.55 3018.19 9526.51 3025.27 9523.58C3032.35 9520.64 3039.79 9516.32 3047.61 9510.61C3042.87 9525.66 3039.56 9538.12 3037.68 9547.99C3036.47 9553.97 3035.43 9559.25 3034.59 9563.84C3033.99 9568.87 3033.31 9574.24 3032.53 9579.96C3031.93 9584.99 3031.11 9590.89 3030.06 9597.65C3029.44 9604.15 3028.64 9611.35 3027.66 9619.24C3024.59 9615.46 3020.69 9612.02 3015.95 9608.91C3011.57 9605.89 3007.26 9603.27 3003.04 9601.03C2998.22 9598.27 2993.13 9595.81 2987.77 9593.65C2983.02 9592.01 2975.8 9589.91 2966.11 9587.34C2956.51 9584.42 2945.56 9581.7 2933.27 9579.17C2920.71 9576.21 2907.77 9573.33 2894.44 9570.53C2880.76 9567.64 2867.89 9565.15 2855.85 9563.07C2843.81 9560.98 2833.28 9559.48 2824.26 9558.57C2814.98 9557.22 2808.43 9556.78 2804.6 9557.24C2799.99 9557.87 2795.29 9558.84 2790.49 9560.16C2786.13 9561.23 2781.46 9562.77 2776.48 9564.78C2771.16 9566.7 2765.57 9568.92 2759.71 9571.44ZM2830.53 9315.16C2831.95 9307.02 2833.05 9300.09 2833.83 9294.37C2834.7 9288.3 2835.29 9283.27 2835.61 9279.28C2836.11 9274.6 2836.43 9270.61 2836.56 9267.31C2837.05 9264.1 2837.27 9260.46 2837.24 9256.38C2837.47 9252.73 2837.62 9248.69 2837.68 9244.27C2837.49 9239.4 2837.22 9234.14 2836.87 9228.49L2901.97 9249.11C2891.88 9238.28 2885.05 9227.02 2881.48 9215.33C2877.57 9203.55 2875.26 9192.74 2874.53 9182.92C2873.57 9171.18 2874.17 9159.85 2876.33 9148.94C2879.61 9137.96 2884.05 9128.21 2889.65 9119.69C2894.53 9112.46 2900.97 9105.65 2908.97 9099.25C2917.05 9092.51 2927.41 9088.4 2940.02 9086.94C2931.03 9071.95 2924.77 9057.88 2921.22 9044.71C2917.42 9031.11 2914.99 9019.35 2913.92 9009.43C2912.96 8997.69 2913.37 8987.06 2915.16 8977.53C2918.12 8964.98 2923.23 8954.11 2930.49 8944.92C2937.84 8935.39 2946.03 8927.56 2955.06 8921.44C2963.75 8915.22 2972.55 8910.7 2981.45 8907.88C2990 8904.96 2997.14 8903.9 3002.86 8904.67C3010.75 8905.66 3020.47 8908.79 3032.04 8914.09C3043.25 8919.29 3054.72 8924.93 3066.44 8931C3077.82 8936.99 3088.38 8942.57 3098.12 8947.75C3107.61 8952.49 3114.47 8955.24 3118.72 8955.99C3122.45 8955.87 3127.25 8954.55 3133.1 8952.03C3138.18 8949.67 3144.7 8946.03 3152.67 8941.11C3160.4 8935.75 3169.94 8927.73 3181.3 8917.04C3178.01 8928.02 3175.04 8937.79 3172.4 8946.35C3169.85 8954.56 3167.45 8961.52 3165.19 8967.22C3162.66 8973.96 3160.54 8979.88 3158.81 8984.98C3157.71 8989.13 3156.03 8994.06 3153.78 8999.76C3152.14 9004.51 3149.93 9010.77 3147.12 9018.55C3144.41 9025.98 3141.37 9034.62 3138.02 9044.47C3137.99 9040.39 3136.91 9036.77 3134.79 9033.61C3132.31 9030.36 3129.92 9027.51 3127.61 9025.04C3124.61 9022.39 3121.17 9020 3117.3 9017.86C3114.02 9016.25 3108.67 9014.08 3101.24 9011.37C3093.81 9008.66 3085.29 9005.84 3075.69 9002.92C3066.19 8999.66 3056.07 8996.6 3045.34 8993.75C3034.7 8990.56 3024.49 8987.85 3014.71 8985.62C3004.93 8983.39 2995.92 8981.74 2987.68 8980.67C2979.45 8979.59 2973.02 8979.37 2968.41 8980C2964.93 8980.55 2961.86 8982.33 2959.22 8985.34C2956.22 8988.25 2953.95 8991.9 2952.41 8996.31C2950.52 9000.63 2949.5 9005.17 2949.35 9009.95C2948.85 9014.63 2949.17 9018.98 2950.33 9022.99C2951.93 9026.75 2954.11 9031.77 2956.89 9038.07C2959.5 9043.58 2963.13 9050.84 2967.77 9059.85C2972.42 9068.86 2978.29 9080.24 2985.39 9093.98C3006.92 9100.81 3024.34 9106.36 3037.65 9110.63C3050.71 9114.47 3060.65 9117.48 3067.48 9119.67C3075.7 9122.22 3081.36 9123.91 3084.48 9124.73C3087.15 9125.81 3089.79 9126.33 3092.4 9126.28C3097.78 9126.97 3103.17 9126.18 3108.59 9123.91C3106.45 9127.79 3104.56 9132.1 3102.93 9136.86C3101.39 9141.26 3099.94 9145.32 3098.58 9149.04C3097.04 9153.45 3095.68 9157.9 3094.48 9162.4C3093.47 9166.21 3092.54 9170.4 3091.69 9175C3091.03 9178.89 3090.31 9183.7 3089.53 9189.43C3088.41 9195.05 3087.32 9201.25 3086.26 9208.01C3085.27 9204.78 3083.79 9201.98 3081.83 9199.61C3079.86 9197.23 3077.98 9195.25 3076.18 9193.66C3074.12 9191.63 3072.15 9190 3070.26 9188.75C3068.27 9187.86 3063.44 9185.83 3055.75 9182.68C3047.72 9179.44 3038.22 9176.17 3027.24 9172.89C3016.25 9169.6 3004.66 9166.52 2992.45 9163.65C2979.9 9160.69 2968.33 9158.92 2957.75 9158.33C2946.81 9157.65 2937.46 9158.69 2929.69 9161.44C2922.01 9163.85 2917.6 9168.6 2916.45 9175.71C2914.94 9184.2 2914.77 9193.23 2915.93 9202.8C2916.77 9210.8 2918.86 9219.69 2922.19 9229.47C2925.52 9239.24 2930.89 9249.01 2938.31 9258.75C2963.9 9267.03 2984.26 9273.36 2999.4 9277.75C3014.62 9281.79 3026.26 9284.7 3034.31 9286.47C3043.75 9288.6 3050.25 9289.95 3053.8 9290.53C3056.31 9290.82 3058.96 9290.6 3061.75 9289.86C3064.11 9289.37 3066.85 9288.81 3069.99 9288.16C3073.22 9287.16 3076.32 9285.95 3079.29 9284.51L3053.22 9365.95C3052.57 9362.82 3051.49 9359.93 3049.96 9357.31C3048.09 9354.59 3046.13 9352.21 3044.07 9350.18C3041.67 9348.07 3039.27 9345.95 3036.87 9343.83C3034.72 9342.15 3029.24 9339.76 3020.43 9336.68C3011.7 9333.26 3001.38 9329.59 2989.45 9325.68C2977.17 9321.68 2964.33 9317.72 2950.93 9313.79C2937.27 9309.42 2924.56 9305.67 2912.79 9302.55C2900.77 9298.99 2890.6 9296.1 2882.3 9293.9C2873.65 9291.6 2868.41 9290.4 2866.59 9290.28C2862.85 9290.4 2858.71 9291.34 2854.17 9293.1C2850.76 9294.79 2846.94 9297.29 2842.73 9300.62C2838.16 9303.85 2834.1 9308.7 2830.53 9315.16ZM2963.47 8611.36C2970.26 8616.49 2976.45 8621.1 2982.03 8625.18C2987.71 8628.91 2992.74 8632.28 2997.13 8635.3C3002.21 8638.5 3006.64 8641.34 3010.42 8643.83C3014.9 8646.5 3020.03 8649.53 3025.8 8652.91C3030.87 8656.11 3037.2 8660.2 3044.77 8665.17C3052.09 8669.71 3060.82 8675.18 3070.98 8681.58C3053.63 8679.94 3039.15 8681.46 3027.53 8686.16C3015.56 8690.76 3005.8 8696.14 2998.24 8702.28C2989.62 8709.62 2982.55 8718.12 2977.03 8727.77C2968.95 8745.63 2965.71 8759.22 2967.31 8768.53C2968.92 8777.85 2972.29 8784.67 2977.44 8789.01C2979.49 8791.03 2982.2 8793.42 2985.54 8796.16C2988.64 8798.46 2991.95 8800.64 2995.48 8802.69C2999.1 8804.39 3002.86 8805.57 3006.76 8806.24C3010.66 8806.9 3014.19 8806.17 3017.35 8804.05C3019.54 8802.77 3023.15 8798.92 3028.2 8792.48C3032.9 8785.95 3038.48 8778.17 3044.95 8769.14C3051.17 8759.68 3057.87 8749.79 3065.06 8739.47C3072.33 8728.8 3079.43 8718.83 3086.34 8709.55C3093.25 8700.27 3099.79 8692.38 3105.96 8685.86C3112.14 8679.35 3117.28 8675.35 3121.38 8673.84C3125.39 8672.68 3130.66 8671.67 3137.19 8670.81C3143.46 8669.52 3150.19 8669.27 3157.39 8670.07C3164.34 8670.43 3171.35 8671.92 3178.43 8674.54C3185.26 8676.72 3191.68 8680.46 3197.68 8685.76C3203.68 8691.06 3208.62 8698.3 3212.48 8707.47C3216.43 8716.3 3218.66 8727.45 3219.16 8740.92C3219.8 8756.65 3217.29 8770.99 3211.63 8783.94C3205.97 8796.88 3199.55 8808.52 3192.36 8818.83C3185.27 8828.81 3178.72 8837.44 3172.7 8844.73C3166.35 8851.94 3163.05 8857.36 3162.83 8861.01C3162.51 8865 3163.26 8869.83 3165.09 8875.5C3166.92 8881.17 3168.97 8886.72 3171.23 8892.14C3173.25 8897.12 3175.22 8901.53 3177.17 8905.38C3178.76 8909.14 3179.21 8910.93 3178.52 8910.74C3177.83 8910.56 3175.89 8909.49 3172.7 8907.53C3169.61 8905.23 3165.83 8902.74 3161.35 8900.07C3156.62 8896.96 3151.49 8893.93 3145.98 8890.99C3140.21 8887.6 3134.64 8884.83 3129.29 8882.67C3124.98 8880.78 3119.67 8878.45 3113.37 8875.66C3107.67 8873.41 3100.8 8870.66 3092.77 8867.42C3084.49 8863.73 3074.52 8859.42 3062.87 8854.47C3072.32 8855.13 3080.75 8854.78 3088.16 8853.41C3095.65 8851.69 3102.23 8849.92 3107.91 8848.09C3114.45 8845.76 3120.09 8843.36 3124.82 8840.91C3131.04 8837.01 3137.15 8832.15 3143.14 8826.33C3149.22 8820.16 3154.78 8813.86 3159.83 8807.42C3164.53 8800.88 3168.09 8794.42 3170.53 8788.03C3172.97 8781.64 3173.75 8775.92 3172.86 8770.87C3171.98 8765.82 3169.19 8761 3164.48 8756.41C3159.86 8751.48 3154.44 8747.45 3148.24 8744.32C3142.03 8741.19 3135.94 8739.02 3129.96 8737.8C3123.64 8736.5 3118.21 8736.72 3113.67 8738.48C3110.69 8739.91 3106.29 8743.93 3100.46 8750.53C3094.73 8756.79 3088.23 8764.51 3080.98 8773.7C3073.81 8782.54 3066.29 8792.03 3058.41 8802.17C3050.63 8811.96 3042.98 8821.22 3035.47 8829.97C3027.71 8838.29 3020.7 8845.13 3014.46 8850.51C3007.96 8855.46 3002.71 8857.77 2998.72 8857.45C2993 8856.67 2986.81 8855.58 2980.14 8854.19C2973.13 8852.69 2966.47 8850.56 2960.17 8847.77C2953.62 8844.55 2947.68 8840.38 2942.37 8835.27C2937.15 8829.81 2933.43 8822.89 2931.21 8814.52C2929.73 8808.94 2929.35 8801.99 2930.08 8793.66C2930.81 8785.33 2932.46 8776.32 2935.03 8766.63C2937.26 8756.85 2940.27 8746.91 2944.06 8736.8C2947.51 8726.6 2951.17 8717.01 2955.03 8708.04C2958.64 8698.62 2962.33 8690.34 2966.08 8683.18C2969.92 8675.68 2973.09 8670.04 2975.57 8666.25C2978.59 8661.87 2980.14 8656.72 2980.23 8650.82C2980.48 8645.7 2979.6 8639.91 2977.61 8633.45C2975.62 8626.99 2970.91 8619.63 2963.47 8611.36Z" fill="black"/>
<path d="M3277.2 16047.5C3283.95 16036.5 3289.79 16025.9 3294.7 16015.5C3299.61 16005.2 3303.74 15996.1 3307.08 15988.1C3311.27 15978.8 3314.47 15970 3316.7 15961.7C3320 15951.2 3323.2 15937.9 3326.3 15921.7C3329.51 15905.1 3333.03 15888.2 3336.86 15870.9C3340.31 15853.6 3344.27 15837.2 3348.73 15821.8C3352.95 15806 3357.89 15793.6 3363.57 15784.8C3368.87 15775.8 3375.54 15767 3383.56 15758.5C3391.34 15749.5 3400.12 15741.8 3409.91 15735.5C3419.33 15729.1 3429.58 15724.5 3440.66 15721.9C3451.36 15719.2 3462.61 15719.2 3474.39 15722.1C3488.79 15727.1 3501.32 15734.8 3511.97 15745.1C3521.12 15753.8 3529.51 15766.1 3537.16 15782C3544.44 15797.8 3547.39 15818.2 3546.03 15843.2C3551.18 15832.1 3556.92 15823.1 3563.24 15816.1C3569.3 15808.6 3575.7 15802.6 3582.43 15798.2C3588.91 15793.3 3595.53 15789.9 3602.29 15787.9C3609.18 15785.6 3615.77 15784.2 3622.06 15783.7C3636.86 15782.3 3652.21 15784.3 3668.1 15789.7C3688.25 15798.6 3703.46 15808.1 3713.74 15818.3C3724.14 15828.2 3731.45 15838.1 3735.68 15848C3739.9 15858 3742.02 15867.4 3742.02 15876.5C3742.03 15885.5 3741.72 15893.6 3741.09 15900.7C3740.45 15907.9 3738.6 15916.3 3735.53 15926C3732.46 15935.7 3728.97 15946.1 3725.05 15957.1C3720.89 15967.7 3716.79 15978.7 3712.75 15990.1C3708.35 16001.4 3704.87 16012.4 3702.31 16023.1C3700.34 16031.9 3697.78 16042.5 3694.62 16055.1C3692.06 16065.7 3688.86 16079 3685.02 16095C3680.81 16110.9 3675.96 16129.5 3670.46 16150.7C3668.78 16145.6 3666.49 16141.2 3663.6 16137.4C3660.44 16133.1 3657.67 16129.6 3655.28 16126.8C3652.15 16123.8 3649.15 16121 3646.27 16118.4C3643.64 16116.3 3635.74 16112.8 3622.58 16107.8C3609.41 16102.8 3593.57 16097.2 3575.07 16090.9C3556.2 16084.5 3535.97 16077.9 3514.37 16071.1C3492.52 16063.7 3471.42 16057.2 3451.08 16051.6C3430.48 16045.5 3412.18 16040.5 3396.19 16036.7C3379.94 16032.3 3368.04 16029.8 3360.5 16029C3351.97 16028.8 3343.02 16029.2 3333.65 16030.4C3325.63 16031.1 3316.64 16033 3306.67 16035.9C3296.83 16038.6 3287 16042.4 3277.2 16047.5ZM3371.53 15947.7C3373.02 15948.2 3378.1 15949.6 3386.79 15951.9C3394.35 15953.9 3406.01 15957.2 3421.77 15961.8C3437.27 15965.9 3459.35 15971.9 3488.01 15979.7C3495.05 15971.7 3500.18 15963.3 3503.38 15954.5C3506.22 15945.5 3508.38 15937.4 3509.88 15930.1C3511.36 15921.6 3511.98 15913.1 3511.73 15904.9C3510.82 15893.5 3506.6 15883.6 3499.06 15875C3491.64 15866.1 3483.2 15859.1 3473.74 15854.1C3464.02 15848.6 3454.52 15844.9 3445.22 15843.2C3435.56 15841.4 3428.09 15841.7 3422.81 15844.1C3414.24 15849.2 3406.25 15856.3 3398.85 15865.4C3392.67 15873.3 3386.83 15883.9 3381.35 15897.3C3375.61 15910.3 3372.34 15927.1 3371.53 15947.7ZM3635.39 16034.4C3646.83 16022.9 3655.33 16012.3 3660.87 16002.6C3666.4 15992.8 3670.3 15984.4 3672.54 15977.4C3675.14 15969.2 3676.26 15961.7 3675.92 15955.1C3674.81 15946.9 3672.52 15938.6 3669.06 15930.2C3665.35 15921.2 3660.11 15913.8 3653.36 15908C3646.34 15901.6 3637.88 15897.3 3627.96 15895C3617.67 15892.6 3605.33 15893.4 3590.94 15897.4C3580.13 15901.8 3570.71 15908.2 3562.68 15916.7C3555.75 15924.4 3549.55 15934.9 3544.06 15948.3C3538.69 15961.4 3536.61 15978.9 3537.8 16001L3635.39 16034.4ZM3583.5 15682.4C3581.86 15679.8 3578.12 15677.4 3572.28 15675.1C3566.18 15672.4 3559.58 15668.6 3552.47 15663.9C3545.48 15658.8 3538.64 15652 3531.97 15643.3C3525.29 15634.6 3520.35 15622.4 3517.16 15606.6C3513.84 15591.2 3513.39 15577.2 3515.79 15564.4C3518.2 15551.6 3522.48 15540.1 3528.62 15529.7C3534.77 15519.4 3542.17 15510.3 3550.83 15502.4C3559.6 15494.1 3568.64 15486.9 3577.94 15480.8C3584.18 15476.7 3592.11 15474.3 3601.74 15473.6C3610.99 15472.9 3621.13 15473.2 3632.14 15474.7C3643.16 15476.1 3654.56 15478.3 3666.33 15481.2C3677.86 15483.6 3689.08 15486.4 3700 15489.4C3710.54 15492.3 3720.28 15495.2 3729.22 15498.1C3737.9 15500.4 3745.21 15501.9 3751.15 15502.6C3759.82 15503.7 3767.72 15503.3 3774.85 15501.5C3781.62 15499.5 3787.76 15496.9 3793.27 15493.8C3798.41 15490.5 3802.81 15487 3806.46 15483.2C3810.11 15479.4 3813.02 15476.1 3815.2 15473.1C3817.03 15471.2 3818.42 15469.4 3819.39 15467.6C3822.06 15464.4 3822.88 15461.8 3821.87 15459.8C3826.37 15463.7 3830.19 15467.2 3833.32 15470.2C3836.46 15473.3 3839.15 15475.7 3841.4 15477.7C3843.91 15480.1 3845.91 15482.2 3847.42 15483.9C3849.3 15485.7 3850.94 15487.7 3852.33 15489.8C3853.83 15491.5 3855.41 15493.6 3857.05 15496.2C3858.7 15498.7 3860.53 15501.4 3862.54 15504.1C3859.15 15508.3 3855.44 15512.3 3851.42 15515.9C3847.51 15519.2 3843.91 15522.1 3840.61 15524.8C3836.71 15528 3832.92 15530.9 3829.25 15533.5C3825.58 15536 3821.6 15538.2 3817.3 15540.1C3813.5 15541.8 3809.45 15543.6 3805.15 15545.5C3800.98 15547 3796.54 15548.1 3791.86 15548.7C3795.99 15552.4 3801.17 15560 3807.39 15571.4C3813.73 15582.4 3818.5 15595.8 3821.69 15611.6C3824.52 15627.2 3824.59 15644.5 3821.9 15663.3C3819.33 15681.7 3811.14 15700.4 3797.34 15719.4C3791.41 15727.8 3784.35 15735.2 3776.17 15741.6C3767.62 15747.9 3758.3 15752.7 3748.22 15756.1C3738.26 15759.1 3727.65 15760.2 3716.4 15759.5C3704.89 15758.3 3693.03 15754.4 3680.83 15747.6C3668.62 15740.9 3659.11 15732.8 3652.3 15723.2C3645.49 15713.7 3640.76 15703.4 3638.13 15692.3C3635.5 15681.2 3634.52 15669.4 3635.2 15657C3635.88 15644.5 3637.61 15631.9 3640.39 15619.3C3643.09 15609.5 3646.71 15600 3651.27 15590.8C3655.36 15583 3660.87 15575.4 3667.8 15567.7C3674.35 15560 3682.54 15554.2 3692.37 15550.3C3672.52 15544.4 3656.64 15540.2 3644.74 15537.7C3632.59 15534.6 3623.23 15532.5 3616.67 15531.2C3608.75 15530.3 3603.12 15530 3599.79 15530.2C3596.59 15531.2 3592.96 15532.3 3588.91 15533.5C3584.96 15534.3 3581.22 15535.8 3577.67 15537.9C3573.74 15539.9 3570.14 15542.9 3566.86 15546.8C3563.59 15550.7 3561.19 15555.6 3559.67 15561.7C3558.04 15568.2 3558.12 15573.7 3559.92 15578.4C3561.72 15583.1 3564.31 15587.2 3567.7 15590.7C3570.83 15593.7 3574.57 15596.1 3578.92 15597.9C3583.27 15599.7 3587.24 15600.8 3590.83 15601.1C3593.3 15601.1 3596.07 15600.7 3599.15 15600C3601.86 15599.3 3604.93 15598 3608.36 15596.2C3611.79 15594.4 3615.15 15591.6 3618.43 15587.7C3616.83 15596.6 3615.34 15604.6 3613.96 15611.5C3612.21 15618.3 3610.94 15624.3 3610.15 15629.3C3609.12 15635.2 3608.14 15640.2 3607.22 15644.4C3606.29 15648.6 3605.5 15653.7 3604.85 15659.6C3604.06 15664.7 3603.1 15671 3601.97 15678.4C3600.85 15685.8 3599.74 15694.5 3598.65 15704.4C3596.75 15701.3 3594.98 15698.5 3593.34 15695.9C3591.32 15693.2 3589.62 15690.9 3588.23 15688.8C3586.47 15686.6 3584.89 15684.4 3583.5 15682.4ZM3676.53 15619.7C3674.78 15626.5 3674.33 15633.7 3675.18 15641.4C3675.66 15648.9 3677.68 15656.1 3681.25 15663C3684.43 15669.7 3688.79 15676 3694.31 15681.8C3699.58 15687.2 3706.12 15691.1 3713.94 15693.6C3721.76 15696.1 3729.24 15696.4 3736.38 15694.6C3743.26 15692.2 3749.57 15688.5 3755.3 15683.4C3761.15 15677.8 3765.63 15671.5 3768.73 15664.3C3771.95 15656.7 3773.63 15648.8 3773.76 15640.6C3773.39 15632.7 3771.42 15624.7 3767.84 15616.6C3763.89 15608.4 3759.27 15601 3753.99 15594.4C3748.33 15587.7 3742.44 15582.4 3736.33 15578.4C3729.85 15574.3 3724.14 15572.3 3719.19 15572.3C3708.57 15572.2 3699.74 15576.8 3692.71 15586.1C3685.31 15595.2 3679.92 15606.4 3676.53 15619.7ZM3794.52 15113.7C3792.36 15117.9 3790.03 15123.3 3787.54 15129.9C3785.16 15136.1 3783.02 15142.2 3781.13 15148.2C3779.01 15154.9 3776.95 15162 3774.96 15169.6C3772.86 15177.5 3770.75 15185.4 3768.64 15193.4C3766.89 15200.2 3765.03 15208 3763.06 15216.8C3760.84 15225.1 3758.86 15233.3 3757.12 15241.4C3756.58 15237.9 3755.35 15234.7 3753.46 15231.6C3751.68 15228.2 3749.78 15225.1 3747.76 15222.4C3745.37 15219.6 3742.74 15216.9 3739.86 15214.4C3734.86 15210.7 3728.1 15208.8 3719.58 15208.6C3710.68 15208.2 3701.93 15209.9 3693.34 15213.8C3684.87 15217.2 3677.35 15222.8 3670.79 15230.6C3663.98 15237.9 3660.04 15247.1 3658.97 15258.2C3658.03 15270.2 3658.76 15281.5 3661.14 15292.1C3663.64 15302.3 3668.59 15311.9 3676.01 15320.8C3683.18 15329.2 3693.05 15336.8 3705.63 15343.7C3717.96 15350 3733.42 15355.6 3752.02 15360.2C3775.2 15365.9 3794.44 15367.9 3809.74 15366.2C3825.03 15364.5 3837.39 15360.4 3846.8 15354C3856.22 15347.6 3863.27 15339.6 3867.95 15330C3872.37 15319.9 3875.61 15309.7 3877.68 15299.3C3878.44 15291.7 3877.34 15284.2 3874.39 15276.7C3871.83 15270.6 3867.28 15264.2 3860.76 15257.6C3854.24 15251 3844.03 15245.8 3830.14 15241.8L3848.95 15172.7C3868.44 15187.5 3882.93 15202.6 3892.42 15217.9C3901.54 15233.1 3907.98 15247 3911.75 15259.7C3916.05 15274.5 3917.74 15288.6 3916.82 15301.8C3914.59 15317.9 3911.4 15331.9 3907.25 15343.7C3902.73 15355.3 3897.44 15365.6 3891.39 15374.3C3885.34 15383 3878.79 15390.8 3871.72 15397.6C3864.66 15404.3 3857.34 15410.6 3849.76 15416.4C3844.88 15420.2 3837.58 15423.8 3827.87 15427.3C3818.16 15430.8 3807.08 15433.4 3794.63 15435.2C3781.81 15436.9 3768.16 15437.3 3753.7 15436.4C3739.23 15435.5 3725.04 15432.4 3711.12 15427.2C3696.84 15421.8 3683.38 15413.9 3670.75 15403.3C3658.11 15392.7 3647.16 15378.8 3637.89 15361.5C3624.03 15335.4 3617.67 15310.3 3618.8 15286C3619.67 15261.3 3624.78 15239.4 3634.13 15220.2C3643.12 15200.9 3654.55 15184.9 3668.45 15172.1C3682.34 15159.3 3695.51 15151.3 3707.94 15148.3C3720.37 15145.3 3729.85 15143.2 3736.38 15142C3742.66 15140.3 3747.52 15139.2 3750.97 15138.6C3754.17 15137.6 3756.69 15136.7 3758.53 15136.1C3760.12 15135 3762.45 15133.4 3765.51 15131.5C3767.96 15130.3 3770.72 15128.7 3773.78 15126.8C3776.35 15125.1 3779.41 15123.2 3782.96 15121.1C3786.51 15118.9 3790.36 15116.5 3794.52 15113.7ZM3585.67 15062.8C3588.83 15059.3 3591.67 15054.9 3594.19 15049.6C3596.82 15043.8 3598.96 15038.4 3600.61 15033.2C3602.62 15026.8 3604.5 15020.3 3606.25 15013.4C3608.01 15006.6 3609.86 14998.2 3611.81 14988.1C3613.55 14980.1 3615.68 14970.1 3618.23 14958.2C3620.77 14946.3 3623.35 14933 3625.98 14918.3C3626.93 14924.3 3628.31 14929.7 3630.1 14934.3C3631.9 14939 3633.88 14943.1 3636.03 14946.7C3638.44 14950.7 3641.02 14954.2 3643.78 14957.1C3647.42 14961.1 3654.12 14967.1 3663.88 14975.2C3673.38 14982.7 3684.12 14990.8 3696.11 14999.5C3708.22 15007.9 3720.63 15015.9 3733.34 15023.6C3746.17 15031 3757.37 15036.3 3766.94 15039.8C3775.01 15042.8 3784.2 15046.1 3794.51 15049.8C3803.33 15053 3814.19 15056.8 3827.11 15061.3C3840.02 15065.8 3854.8 15070.9 3871.44 15076.6C3860.57 15043.7 3851.67 15018.1 3844.73 14999.9C3837.42 14981.6 3831.66 14968.1 3827.46 14959.4C3822.86 14949.3 3819.31 14943.1 3816.8 14940.7C3814.45 14940.3 3811.74 14940.5 3808.66 14941.1C3805.83 14942.3 3802.4 14944.1 3798.36 14946.5C3794.32 14948.9 3789.37 14952.9 3783.52 14958.4C3787.71 14949 3791.11 14940.9 3793.73 14934C3796.46 14926.6 3798.84 14920.4 3800.86 14915.3C3803.13 14909.5 3804.78 14904.3 3805.82 14899.7C3807.36 14894.8 3809.06 14888.8 3810.93 14881.6C3814.45 14869.2 3819.92 14850.1 3827.32 14824.1C3832.44 14853.2 3837.35 14876.5 3842.06 14894C3844.68 14903.8 3847.21 14912.6 3849.68 14920.3C3852.51 14928.2 3855.47 14936.3 3858.56 14944.7C3861.14 14952 3864.17 14960.6 3867.65 14970.3C3871.24 14979.6 3875.21 14989.1 3879.55 14998.7C3904.91 14992.4 3926.01 14986.5 3942.86 14981.2C3959.82 14975.5 3973.65 14970.7 3984.34 14966.7C3996.87 14962.1 4007.06 14957.7 4014.91 14953.7C4022.38 14949.5 4031.19 14943.7 4041.33 14936.2C4050.26 14930 4061.07 14921.8 4073.77 14911.5C4086.21 14900.7 4100.84 14887.5 4117.66 14871.9C4112.73 14881 4108.47 14889.9 4104.9 14898.6C4101.69 14907.4 4099.27 14915.1 4097.64 14921.5C4095.53 14929.4 4094.03 14936.7 4093.14 14943.4C4092.51 14950.6 4092.01 14958.6 4091.64 14967.5C4091.26 14975.2 4091.03 14984.4 4090.94 14995C4091.34 15005.4 4092.37 15017 4094.04 15029.8C4091.07 15021 4087.7 15014.2 4083.92 15009.4C4080.63 15004.2 4077.74 15000.4 4075.23 14998C4071.98 14995.3 4068.99 14993.8 4066.27 14993.3C4061.95 14994 4052.96 14995.9 4039.29 14998.9C4027.61 15002.2 4010.5 15007 3987.99 15013.4C3965.48 15019.7 3934.61 15029.2 3895.38 15041.8C3895.4 15043 3895.93 15045.2 3896.96 15048.4C3898.12 15051.3 3899.66 15055.4 3901.6 15061C3903.16 15066.4 3905.74 15073.8 3909.34 15083.1L4011.86 15099C4012.29 15102.8 4012.41 15107 4012.23 15111.4C4012.17 15115.5 4011.98 15119.3 4011.66 15122.9C4011.48 15127.4 4010.92 15131.7 4010 15135.9C4009.07 15140.1 4008.28 15145.2 4007.63 15151.1C4006.84 15156.2 4005.94 15162.3 4004.93 15169.3C4004.29 15176.5 4003.55 15184.7 4002.7 15193.8C4000.88 15187.9 3998.21 15182.8 3994.69 15178.4C3991.53 15174.1 3988.39 15170.4 3985.26 15167.4C3981.75 15164.2 3978 15161.2 3974.01 15158.3C3970.52 15156.4 3961.07 15152.6 3945.67 15146.9C3930.39 15140.8 3912.06 15133.9 3890.7 15126.4C3868.97 15118.6 3845.69 15110.6 3820.86 15102.4C3796.14 15093.7 3772.8 15085.9 3750.83 15078.9C3728.49 15071.9 3709.07 15065.9 3692.57 15061.1C3675.7 15056.1 3664.66 15053.5 3659.47 15053C3652.92 15053 3645.88 15053.2 3638.35 15053.7C3631.68 15054.1 3623.98 15055.1 3615.23 15056.8C3606.23 15058.1 3596.38 15060.1 3585.67 15062.8ZM3928.15 14511.9C3931.22 14502.2 3936.27 14492.7 3943.3 14483.5C3949.96 14474.1 3957.61 14465.5 3966.27 14457.6C3974.55 14449.5 3983.1 14442.6 3991.91 14436.8C4000.46 14430.5 4008.36 14425.6 4015.59 14422.2C4028.6 14416.1 4044.2 14414 4062.39 14416.1C4080.33 14417.7 4097.88 14422.5 4115.04 14430.4C4131.83 14438.1 4146.75 14448.6 4159.79 14461.8C4172.84 14474.9 4180.78 14489.9 4183.62 14506.8C4185.53 14518.9 4186.38 14530.4 4186.17 14541.4C4185.96 14552.4 4185.13 14562.8 4183.66 14572.6C4182.2 14582.4 4180.17 14591.4 4177.58 14599.6C4174.98 14607.7 4172.55 14614.8 4170.29 14620.6C4166 14631.5 4158.37 14642 4147.4 14652.1C4136.55 14661.7 4124.2 14670.3 4110.35 14677.8C4096.62 14684.9 4082.43 14690.3 4067.78 14693.8C4052.76 14697.3 4039.43 14697.9 4027.78 14695.9C4011.81 14693.3 3995.68 14688.6 3979.4 14681.8C3963.11 14675 3949.37 14664.7 3938.17 14650.9C3927.09 14636.7 3919.97 14618.5 3916.8 14596.2C3913.74 14573.5 3917.53 14545.4 3928.15 14511.9ZM4139.02 14599C4141.07 14595.1 4141.91 14589.3 4141.54 14581.4C4140.81 14573.3 4138.34 14565 4134.13 14556.3C4130.04 14547.2 4123.99 14538.5 4115.96 14530.2C4107.67 14521.5 4096.64 14514.3 4082.84 14508.7C4069.42 14503.2 4056.76 14499.2 4044.86 14496.6C4033.08 14493.7 4022.5 14492.2 4013.1 14492.1C4003.34 14491.9 3995.14 14492.5 3988.49 14494.1C3981.84 14495.7 3976.81 14498 3973.39 14501C3968.04 14506.3 3963.01 14513.1 3958.31 14521.4C3953.25 14529.7 3951.2 14537.4 3952.17 14544.7C3952.72 14548.1 3954.7 14552.9 3958.13 14558.9C3961.55 14564.9 3966.28 14571.3 3972.31 14578.1C3977.97 14584.8 3984.86 14591.5 3992.99 14598.2C4001.23 14604.5 4010.15 14610 4019.73 14614.7C4029.31 14619.3 4039.99 14623.1 4051.77 14626.1C4063.67 14628.6 4075.42 14629.7 4087.03 14629.2C4098.26 14628.7 4108.66 14626.3 4118.24 14621.9C4127.55 14617.1 4134.48 14609.5 4139.02 14599ZM3884.78 14297.7C3881.15 14302.7 3876.57 14306.2 3871.04 14308.1C3865.14 14309.9 3859.33 14310.2 3853.63 14308.8C3848.04 14307 3843.12 14303.8 3838.85 14299.2C3834.33 14294 3831.26 14287.5 3829.67 14279.6C3827.13 14267 3828.59 14257.2 3834.05 14250.3C3839.63 14243.1 3845.98 14238.5 3853.12 14236.7C3856.69 14235.8 3861.2 14235.8 3866.65 14236.7C3871.84 14237.1 3877.36 14238.4 3883.2 14240.7C3888.79 14242.5 3894.2 14244.8 3899.43 14247.7C3904.66 14250.6 3908.78 14253.7 3911.8 14257.1C3914.19 14259.9 3916.46 14263.1 3918.61 14266.7C3920.51 14269.7 3922.23 14273.3 3923.77 14277.5C3925.43 14281.3 3926.73 14285.6 3927.67 14290.4L3919.62 14310C3917.47 14306.5 3915.63 14303.2 3914.1 14300.3C3912.2 14297.2 3910.56 14294.6 3909.17 14292.6C3907.78 14290.5 3906.58 14288.5 3905.56 14286.5C3903.66 14283.4 3901.64 14280.7 3899.51 14278.4C3897.75 14276.2 3895.93 14274.2 3894.05 14272.4C3891.79 14270.5 3889.25 14269.4 3886.4 14269.4C3888.44 14273.3 3889.54 14276.9 3889.71 14280.2C3889.89 14283.6 3889.56 14286.5 3888.73 14289.2C3888.16 14292.3 3886.85 14295.1 3884.78 14297.7ZM3918.28 14005.9C3923.57 13995.7 3927.88 13986.6 3931.23 13978.7C3934.69 13970.4 3937.49 13963.5 3939.63 13958C3942.13 13951.4 3944.14 13945.7 3945.68 13940.9C3947.21 13936 3949.02 13929 3951.11 13919.8C3952.73 13912.2 3954.87 13902.2 3957.53 13889.9C3960.31 13877.3 3963.23 13861.6 3966.28 13842.9C3966.12 13848.6 3968.87 13854.8 3974.53 13861.5C3979.93 13867.7 3986.01 13873.7 3992.77 13879.6C4000.78 13886.6 4009.9 13893.4 4020.12 13899.9C4029.35 13905.7 4042.07 13913.4 4058.27 13923.1C4074.59 13932.3 4092.4 13942.1 4111.7 13952.3C4131.12 13962.2 4151.14 13971.4 4171.78 13980C4192.04 13988.4 4211.1 13994.9 4228.95 13999.3C4246.92 14003.4 4262.57 14004.4 4275.88 14002.5C4288.82 14000.5 4297.5 13993.8 4301.9 13982.5C4308.94 13965.5 4313.73 13951 4316.27 13939.1C4318.56 13926.7 4319.58 13916.4 4319.34 13908.1C4319.09 13899.8 4317.94 13893.1 4315.89 13888C4313.46 13882.7 4310.93 13878.4 4308.29 13875.1C4301.61 13866.4 4292.57 13856.8 4281.18 13846.2C4269.78 13835.6 4258.7 13826 4247.95 13817.2C4237.31 13808.1 4228.24 13800.6 4220.74 13794.5C4213.24 13788.4 4209.68 13785.4 4210.05 13785.6C4210.79 13785.8 4215.02 13787.3 4222.72 13790.2C4230.17 13792.6 4239.23 13795.6 4249.91 13799.4C4260.34 13802.7 4271.26 13806.4 4282.69 13810.4C4294.23 13814.1 4304.04 13817.4 4312.11 13820.4C4318.7 13822.9 4326.03 13825.6 4334.1 13828.6C4341.06 13831.2 4349.32 13834.2 4358.88 13837.7C4368.56 13840.7 4379.05 13844.5 4390.36 13848.9C4384.29 13864.2 4378.82 13878.8 4373.96 13892.8C4369.1 13906.9 4364.96 13919.3 4361.54 13930.1C4357.53 13942.8 4353.99 13954.5 4350.94 13965.5C4347.66 13977.1 4343.96 13990.7 4339.87 14006.2C4336.48 14019.5 4332.28 14036 4327.26 14055.7C4321.86 14075.3 4315.9 14098 4309.36 14123.8C4305.09 14119.1 4301.02 14115.2 4297.14 14111.9C4293.38 14108.3 4290.19 14105.4 4287.56 14103.3C4284.31 14100.7 4281.44 14098.7 4278.95 14097.5C4267.74 14091.5 4253.25 14084.9 4235.48 14077.6C4217.33 14070.2 4197.95 14062.8 4177.34 14055.5C4156.84 14047.8 4135.79 14040.5 4114.19 14033.6C4092.34 14026.3 4072.05 14019.9 4053.31 14014.3C4034.58 14008.8 4018.14 14004.4 4004.01 14001.2C3990 13997.5 3980.15 13995.6 3974.46 13995.5C3967.92 13995.4 3961.25 13995.8 3954.47 13996.5C3948.54 13997.1 3942.45 13998.2 3936.17 13999.9C3929.64 14001.1 3923.68 14003.1 3918.28 14005.9ZM4379.39 13645C4382.69 13634.6 4384.65 13624.5 4385.24 13614.9C4385.74 13606.9 4385.01 13598.8 4383.04 13590.8C4380.81 13582.4 4375.77 13575.6 4367.91 13570.7C4371.76 13563.7 4375.07 13557.8 4377.84 13552.9C4380.24 13548 4382.4 13543.7 4384.33 13540.2C4386.74 13536.5 4388.61 13533.2 4389.93 13530.3C4391.62 13527.6 4393.48 13524.3 4395.53 13520.4C4397.45 13516.9 4399.8 13512.8 4402.57 13507.9C4405.08 13502.6 4408.27 13496.4 4412.12 13489.4C4409.6 13494.8 4408.33 13500.7 4408.3 13507.3C4408.39 13513.4 4408.73 13519.5 4409.31 13525.4C4410.03 13532.2 4411.42 13538.8 4413.5 13545.2C4414.67 13549.2 4416.78 13554.2 4419.83 13560.1C4423 13565.6 4425.39 13572.9 4427.01 13582C4428.63 13591.2 4428.86 13602.7 4427.71 13616.7C4426.3 13630.2 4422.04 13646.9 4414.92 13666.7C4406.5 13690.7 4395.78 13709.6 4382.77 13723.5C4369.38 13737.3 4355.32 13747.4 4340.59 13753.8C4325.49 13760.1 4310.34 13763.3 4295.15 13763.4C4279.96 13763.5 4266.34 13761.8 4254.31 13758.4C4242.27 13755 4230.92 13747.5 4220.25 13735.9C4209.58 13724.4 4200.97 13710.2 4194.42 13693.3C4187.99 13676.1 4184.49 13656.8 4183.93 13635.3C4182.99 13613.7 4186.18 13591.3 4193.5 13568.3C4197.75 13554.8 4203.32 13543.1 4210.22 13533C4216.85 13522.4 4224.26 13513.3 4232.42 13505.6C4240.7 13497.6 4249.32 13491.1 4258.26 13486.1C4266.83 13481.1 4275.24 13477.2 4283.48 13474.5C4292.09 13471.9 4300.83 13470.1 4309.71 13469.3C4317.36 13468.4 4325.76 13468.4 4334.92 13469.2C4344.07 13470.1 4353 13472.3 4361.7 13475.9C4353.47 13504.4 4346.77 13527.5 4341.59 13545.1C4336.54 13562.4 4332.47 13575.8 4329.4 13585.5L4321.44 13610.7L4315.41 13629.6C4313.29 13636.3 4310.7 13645.2 4307.65 13656.1C4304.6 13667 4300.97 13680.4 4296.75 13696.3C4312.24 13699.1 4325.26 13698.1 4335.81 13693.3C4346.11 13687.9 4354.66 13681.6 4361.47 13674.4C4369.01 13666.1 4374.98 13656.3 4379.39 13645ZM4262.91 13663.4C4267.44 13651.7 4271.12 13642 4273.97 13634.3C4276.94 13626.3 4279.44 13619.7 4281.47 13614.6C4283.61 13609.1 4285.21 13604.7 4286.27 13601.4L4290.7 13587.4C4293.65 13578.1 4298.58 13560.6 4305.49 13534.9C4288.76 13530.8 4275.16 13530.4 4264.71 13533.7C4254.37 13536.5 4246.15 13540.5 4240.05 13545.5C4233.22 13551.5 4228.02 13558.9 4224.44 13567.6C4217.14 13591.9 4216.44 13611.6 4222.34 13626.6C4228.37 13641.2 4241.89 13653.5 4262.91 13663.4ZM4370.26 13163.9C4362.45 13162.7 4356.01 13161.6 4350.94 13160.8C4345.49 13159.9 4341.16 13159.4 4337.94 13159.2C4333.98 13158.7 4331.01 13158.4 4329.03 13158.2C4326.93 13158.4 4324.59 13158.6 4322 13159C4319.91 13159.2 4317.26 13159.8 4314.06 13160.8C4310.98 13161.5 4307.41 13162.4 4303.35 13163.6C4306.38 13159.2 4308.84 13154.7 4310.75 13149.9C4312.78 13144.9 4314.68 13140.1 4316.47 13135.8C4318.38 13131.1 4319.97 13126 4321.25 13120.7C4322.91 13115.5 4324.61 13109.5 4326.36 13102.6C4327.88 13096.6 4329.93 13089.4 4332.53 13081.2C4334.87 13072.6 4337.38 13062.7 4340.06 13051.7C4339.55 13058.5 4340.44 13064.7 4342.75 13070.3C4344.8 13075.5 4347.4 13080.2 4350.55 13084.5C4353.96 13089.3 4357.91 13093.6 4362.42 13097.5C4366.67 13100.9 4375.62 13104.9 4389.28 13109.7C4402.57 13114.3 4418.58 13119.4 4437.32 13124.9C4455.68 13130.3 4475.54 13136.2 4496.88 13142.6C4518.34 13148.6 4538.75 13154.6 4558.11 13160.8C4577.59 13166.5 4595.28 13172.1 4611.17 13177.6C4626.7 13182.9 4637.94 13187.5 4644.92 13191.3C4666.72 13204 4682.65 13219.7 4692.68 13238.5C4703.09 13257.3 4705.19 13278.5 4698.99 13301.9C4691.25 13330.2 4681.62 13351.5 4670.1 13365.9C4658.69 13379.9 4646.92 13389.9 4634.78 13395.9C4623.01 13402 4611.76 13405.8 4601.03 13407.3C4590.31 13408.8 4581.76 13411.3 4575.38 13414.6C4569.87 13417.7 4564.54 13421 4559.4 13424.2C4555.13 13427.4 4550.79 13430.7 4546.39 13434.3C4542.12 13437.4 4538.96 13440.9 4536.91 13444.8C4540.71 13434.1 4543.96 13424.5 4546.68 13415.9C4549.4 13407.3 4551.7 13400.1 4553.59 13394.1C4555.71 13387.4 4557.41 13381.4 4558.69 13376.1L4564.36 13358.2L4580.47 13307.4C4580.35 13315.5 4581 13321.9 4582.42 13326.4C4584.22 13331.1 4586.37 13334.7 4588.88 13337.1C4591.76 13339.6 4594.87 13341.4 4598.23 13342.5C4607.63 13343.9 4615.69 13341.1 4622.38 13334.2C4629.07 13327.3 4635.03 13316.9 4640.26 13303C4645.38 13289.4 4648.01 13279.8 4648.18 13274.1C4648.71 13268.6 4647.78 13263.8 4645.37 13259.7C4638.32 13250.9 4628.37 13242.2 4615.52 13233.7C4604.55 13226.9 4589.75 13220 4571.11 13212.8C4552.22 13205.2 4528.04 13199.4 4498.58 13195.4C4511.19 13212.5 4519.11 13230.1 4522.34 13248.4C4525.58 13266.6 4526.81 13283.4 4526.05 13298.7C4524.83 13316.8 4521.51 13334.4 4516.08 13351.5C4499.93 13396 4478.83 13426.4 4452.75 13442.7C4426.68 13459 4397.93 13461.2 4366.49 13449.1C4350.84 13442.9 4336.36 13433 4323.06 13419.4C4309.88 13405.4 4299.21 13389.3 4291.03 13371.1C4282.98 13352.6 4278.18 13332.8 4276.63 13311.9C4275.09 13290.9 4278.06 13270.5 4285.55 13250.8C4291.88 13236 4299.22 13222.5 4307.56 13210.4C4314.95 13200 4323.76 13190.3 4334.01 13181.3C4344.37 13171.9 4356.45 13166.1 4370.26 13163.9ZM4369.8 13359.2C4383.61 13366.1 4397.5 13369.4 4411.46 13369.4C4425.54 13368.9 4438.47 13366.2 4450.26 13361.4C4461.67 13356.4 4471.52 13349.9 4479.8 13341.8C4487.71 13333.7 4492.84 13325.3 4495.18 13316.6C4500.48 13298.6 4497.37 13280.6 4485.86 13262.6C4473.98 13244.5 4452.63 13229.1 4421.81 13216.5C4406.52 13210.4 4392.47 13208.2 4379.64 13209.9C4366.57 13211.1 4355.31 13214.3 4345.87 13219.5C4336.44 13224.7 4328.93 13230.9 4323.35 13238.2C4317.78 13245.4 4314.41 13251.5 4313.25 13256.5C4311.87 13263.4 4311.55 13271.5 4312.31 13280.8C4312.81 13289.5 4315.04 13298.6 4319.01 13308.1C4322.61 13317.4 4328.49 13326.7 4336.65 13335.8C4344.94 13344.6 4355.99 13352.4 4369.8 13359.2ZM4397.4 12793.2C4404.53 12799.2 4411.04 12804.5 4416.91 12809.3C4422.91 12813.6 4428.22 12817.6 4432.84 12821.1C4438.21 12824.8 4442.89 12828.2 4446.88 12831.1C4451.62 12834.2 4457.05 12837.8 4463.16 12841.8C4468.53 12845.5 4475.21 12850.3 4483.2 12856.1C4490.94 12861.4 4500.18 12867.8 4510.91 12875.3C4492.09 12872.6 4476.23 12873.6 4463.33 12878.1C4450.05 12882.5 4439.13 12887.8 4430.58 12894.1C4420.81 12901.7 4412.66 12910.6 4406.14 12920.8C4396.42 12939.8 4392.18 12954.5 4393.45 12964.7C4394.71 12974.9 4398.03 12982.6 4403.42 12987.5C4405.55 12989.9 4408.37 12992.6 4411.88 12995.8C4415.13 12998.4 4418.63 13001 4422.37 13003.4C4426.23 13005.4 4430.27 13006.9 4434.48 13007.8C4438.69 13008.8 4442.58 13008.2 4446.13 13006C4448.58 13004.7 4452.72 13000.7 4458.55 12994C4464.01 12987.1 4470.5 12978.9 4478.02 12969.4C4485.28 12959.4 4493.1 12949 4501.46 12938.1C4509.94 12926.9 4518.19 12916.4 4526.2 12906.6C4534.21 12896.9 4541.75 12888.6 4548.81 12881.8C4555.88 12875 4561.68 12870.9 4566.23 12869.5C4570.67 12868.5 4576.46 12867.6 4583.62 12867C4590.52 12865.9 4597.87 12866 4605.67 12867.3C4613.22 12868 4620.78 12870 4628.37 12873.2C4635.7 12876 4642.5 12880.4 4648.76 12886.5C4655.03 12892.5 4660.03 12900.7 4663.76 12910.9C4667.61 12920.7 4669.46 12933 4669.31 12947.7C4669.19 12964.8 4665.71 12980.3 4658.87 12994.2C4652.04 13008 4644.43 13020.3 4636.07 13031.2C4627.83 13041.7 4620.24 13050.8 4613.31 13058.4C4606.01 13065.9 4602.14 13071.6 4601.7 13075.6C4601.15 13079.9 4601.72 13085.2 4603.42 13091.5C4605.12 13097.8 4607.06 13103.9 4609.25 13110C4611.19 13115.5 4613.11 13120.4 4615.03 13124.7C4616.57 13128.9 4616.97 13130.9 4616.23 13130.6C4615.48 13130.4 4613.42 13129.1 4610.06 13126.8C4606.8 13124.1 4602.81 13121.2 4598.07 13118.1C4593.07 13114.5 4587.65 13110.9 4581.79 13107.4C4575.68 13103.4 4569.76 13100.1 4564.04 13097.5C4559.43 13095.2 4553.77 13092.4 4547.05 13089C4540.95 13086.3 4533.62 13082.9 4525.03 13079C4516.2 13074.5 4505.56 13069.3 4493.11 13063.3C4503.39 13064.5 4512.59 13064.6 4520.73 13063.5C4528.98 13062 4536.25 13060.4 4542.52 13058.7C4549.78 13056.5 4556.05 13054.2 4561.32 13051.7C4568.31 13047.8 4575.21 13042.8 4582.04 13036.8C4588.99 13030.4 4595.38 13023.8 4601.21 13017.1C4606.67 13010.2 4610.89 13003.3 4613.88 12996.5C4616.87 12989.6 4618.01 12983.5 4617.31 12977.9C4616.61 12972.4 4613.81 12967 4608.92 12961.7C4604.14 12956.1 4598.45 12951.4 4591.85 12947.7C4585.25 12944 4578.72 12941.3 4572.27 12939.7C4565.45 12937.9 4559.52 12937.9 4554.48 12939.5C4551.17 12941 4546.16 12945.1 4539.47 12952C4532.89 12958.5 4525.42 12966.6 4517.03 12976.2C4508.77 12985.5 4500.08 12995.4 4490.97 13006.1C4481.98 13016.3 4473.17 13026.1 4464.53 13035.2C4455.64 13043.9 4447.66 13050.9 4440.57 13056.5C4433.23 13061.5 4427.4 13063.8 4423.07 13063.2C4416.87 13062.1 4410.18 13060.6 4402.99 13058.7C4395.42 13056.7 4388.28 13054 4381.56 13050.7C4374.58 13046.8 4368.33 13042 4362.81 13036.1C4357.41 13029.9 4353.71 13022.2 4351.72 13013C4350.4 13006.8 4350.35 12999.2 4351.57 12990.2C4352.8 12981.1 4355.06 12971.4 4358.37 12961C4361.3 12950.4 4365.1 12939.7 4369.76 12928.9C4374.04 12918 4378.52 12907.7 4383.2 12898.2C4387.62 12888.1 4392.06 12879.2 4396.52 12871.6C4401.1 12863.7 4404.84 12857.7 4407.75 12853.7C4411.26 12849.1 4413.22 12843.5 4413.62 12837.1C4414.15 12831.5 4413.5 12825.2 4411.67 12818.1C4409.83 12810.9 4405.08 12802.6 4397.4 12793.2Z" fill="black"/>
</svg>
