<svg width="9602" height="19000" viewBox="0 0 9602 19000" fill="none" xmlns="http://www.w3.org/2000/svg">
<path d="M4544 348L5290.51 2586H3797.49L4544 348Z" fill="#E21717"/>
<path d="M4556.5 863L5100.8 2522.75H4012.2L4556.5 863Z" fill="#FF9B04"/>
<path d="M4564 1336L4896.55 2398H4231.45L4564 1336Z" fill="#F6ED41"/>
<path d="M3383.58 1321.61L5296.97 2701.79L4085.25 3574.08L3383.58 1321.61Z" fill="#E21717"/>
<path d="M3694.61 1732.27L5106.04 2761.3L4222.56 3397.3L3694.61 1732.27Z" fill="#FF9B04"/>
<path d="M3977.04 2111.77L4867.4 2779.38L4327.61 3167.96L3977.04 2111.77Z" fill="#F6ED41"/>
<path d="M7691.43 1497.81L6697.68 3637.53L5612.14 2612.48L7691.43 1497.81Z" fill="#E21717"/>
<path d="M7346.94 1880.84L6603.17 3461.29L5811.68 2713.91L7346.94 1880.84Z" fill="#FF9B04"/>
<path d="M7027.65 2229.89L6540.31 3230.36L6056.73 2773.73L7027.65 2229.89Z" fill="#F6ED41"/>
<path d="M5374 0L6120.51 2238H4627.49L5374 0Z" fill="#E21717"/>
<path d="M5386.5 515L5930.8 2174.75H4842.2L5386.5 515Z" fill="#FF9B04"/>
<path d="M5394 988L5726.55 2050H5061.45L5394 988Z" fill="#F6ED41"/>
<path d="M6249 622L6995.51 2860H5502.49L6249 622Z" fill="#E21717"/>
<path d="M6261.5 1137L6805.8 2796.75H5717.2L6261.5 1137Z" fill="#FF9B04"/>
<path d="M6269 1610L6601.55 2672H5936.45L6269 1610Z" fill="#F6ED41"/>
<path id="arm" d="M6694.04 5649.81C6791.35 5610.64 6911.4 5645.76 7053.14 5764.49C7193.77 5882.3 7346.97 6075.63 7504.82 6330.36C7817.69 6835.29 8143.81 7573.23 8423.52 8415.53L8430.12 8435.45L8430.74 8437.32L8431.56 8439.11C8834.34 9312.83 9013.03 9994.56 9060.62 10488.3C9084.42 10735.1 9075.36 10934.2 9045.65 11086.4C9016.04 11238.1 8966.5 11340.3 8911.45 11398L8910.15 11399.3C8874.5 11436.2 8838.33 11446.7 8800 11439.4C8758.78 11431.6 8710.02 11402.1 8655.03 11346.9C8545.38 11236.8 8424.33 11038 8303.35 10772.1C8062.96 10243.9 7828.6 9464.22 7684.91 8634.45L7683.23 8624.68L7682.59 8621.01L7681.2 8617.55C7530.58 8243.37 7365.7 7879.36 7210.6 7541.38C7055.33 7203.06 6910.12 6891.37 6798.1 6620.49C6685.81 6348.94 6608.41 6121.91 6587 5952.42C6576.3 5867.71 6580.06 5800.74 6597.89 5750.87C6615.15 5702.61 6645.88 5669.2 6694.04 5649.81ZM3926.04 5763.24C3977.91 5781.11 4007.75 5813.06 4023.35 5858.4C4041.04 5909.83 4041.28 5981.34 4024.84 6074.31C3991.98 6260.1 3896.58 6511.58 3781.18 6814.23C3552.15 7414.87 3248.83 8205.88 3238.48 9029.27C2978.07 10036.2 2744.73 10784.3 2529.53 11267.4C2421.64 11509.6 2319.48 11682.4 2222.6 11787.8C2126.35 11892.5 2042.09 11924.1 1965.68 11904.1L1963.88 11903.6L1961.38 11902.9C1909.17 11888.1 1876.5 11860.6 1856.43 11821.7C1835.17 11780.5 1826.29 11722.8 1830.18 11646C1837.98 11491.8 1895.86 11277.6 1977.11 11005.8C2138.54 10465.7 2387.55 9712.16 2485.11 8803.55C2764.71 7803.25 3016.47 7085.41 3255.38 6594.91C3491.21 6110.74 3711.11 5855.44 3926.04 5763.24Z" fill="#F8E3BC" stroke="black" stroke-width="70"/>
<path id="leg" d="M3241.22 14629.3L3240.88 14626.7C3094.18 13507.4 3345.48 12622.3 3691.96 12022.3C3865.27 11722.1 4062.21 11493.6 4244.7 11342.7C4335.96 11267.2 4423.21 11211.5 4501.71 11175.9C4580.5 11140.1 4648.91 11125.3 4703.09 11129.5C5139.67 11163.3 5368.15 11301.1 5465.02 11511.5C5563.29 11724.9 5531.08 12022 5421.56 12386.3C5312.4 12749.5 5128.81 13172.3 4932.48 13633.7C4736.43 14094.5 4528.09 14592.9 4370.89 15105L4370.08 15107.7L4369.87 15110.5C4286 16194 4030.7 17126.7 3737.18 17783.3C3590.36 18111.7 3434.39 18370 3286.25 18543.5C3212.17 18630.3 3140.66 18695.1 3073.92 18736.9C3007.08 18778.8 2946.65 18796.7 2893.88 18792.6C2845.17 18788.8 2809.52 18761.4 2784.17 18705.7C2758.14 18648.5 2744.39 18563.8 2741.81 18452.5C2736.66 18230.4 2776 17913.9 2835.99 17528.3C2955.72 16758.7 3156.85 15719.3 3241.02 14631.9L3241.22 14629.3Z" fill="#F8E3BC" stroke="black" stroke-width="50"/>
<path id="legs" d="M7582.62 14792.4L7583.09 14789.9C7796.56 13686.5 7614.07 12788.7 7321.93 12167.9C7175.8 11857.4 7002.41 11616.6 6837.82 11454C6755.51 11372.7 6675.78 11311.4 6603.16 11270.6C6530.25 11229.7 6466.11 11210.4 6414.51 11210.8C5995.4 11214.5 5768.37 11335.6 5662.07 11538.1C5554.04 11743.8 5565.48 12041.8 5646.4 12411.8C5727.06 12780.5 5875 13213.7 6032.57 13686.1C6189.93 14158 6356.56 14668 6473.4 15188.1L6473.98 15190.7L6474 15193.4C6483.39 16277 6666.57 17222.4 6904.36 17895.7C7023.31 18232.4 7155.57 18500.1 7285.89 18682.9C7351.07 18774.3 7415.18 18843.6 7476.18 18889.7C7537.29 18935.9 7593.56 18957.6 7643.69 18957.2C7689.54 18956.8 7725.2 18932.6 7753.18 18878.7C7781.85 18823.5 7800.55 18740.1 7810.3 18629.5C7829.74 18408.9 7812.8 18091.3 7780.64 17703.6C7716.44 16929.9 7592.06 15882.3 7582.64 14794.9L7582.62 14792.4Z" fill="#F8E3BC" stroke="black" stroke-width="50"/>
<path id="face" d="M5388.5 2105C6106.03 2105 6687 2696.15 6687 3424.5C6687 3787.04 6542.94 4309.59 6311.03 4741.43C6194.96 4957.56 6056.15 5152.37 5901.03 5293.47C5745.97 5434.51 5572.72 5523.5 5388.5 5523.5C5204.28 5523.5 5031.03 5434.51 4875.97 5293.47C4720.85 5152.37 4582.04 4957.56 4465.97 4741.43C4234.06 4309.59 4090 3787.04 4090 3424.5C4090 2696.15 4670.97 2105 5388.5 2105Z" fill="#F8E3BC" stroke="black" stroke-width="50"/>
<path id="torso" d="M4258.2 5524H6561.3C6805.72 5524 6991.68 5746.17 6953.49 5987.85L6953.03 5990.7C6859.2 6558.81 6719.55 7536.51 6684.24 8502.65C6666.59 8985.71 6674.99 9466.5 6728.44 9892.08C6781.62 10315.5 6879.65 10686.7 7042.85 10951.1L7044.78 10954.2C7144.67 11115 7154.57 11243.9 7105.57 11347.1C7055.72 11452 6941.77 11537.5 6778.21 11602.9C6451.57 11733.6 5944.76 11777.2 5433.54 11751.2C4922.65 11725.1 4412.2 11629.7 4079.08 11485.6C3911.79 11413.3 3793.65 11330.5 3740.05 11242C3713.7 11198.5 3703.15 11154 3709.4 11108C3715.61 11062.3 3738.69 11012.9 3783.79 10959.8L3785.95 10957.3C3946.94 10770.5 4041 10438.1 4090.98 10032.2C4141.15 9624.75 4147.46 9137.89 4128.87 8637.19C4092.26 7651.33 3958.92 6608.76 3871.32 6006.94L3867.19 5978.62C3832.17 5739.61 4016.94 5524 4258.2 5524Z" fill="#F8E3BC" stroke="black" stroke-width="50"/>
<path d="M5602 2982C5602 2982 5975.5 2511 6283.5 2982M5602 3598.89C5602 3598.89 5908.61 4076.71 6345.99 3584.99M4466.5 2982C4466.5 2982 4840 2511 5148 2982" stroke="black" stroke-width="40"/>
<path d="M4427 3598.9C4427 3598.9 4733.61 4076.72 5170.99 3585" stroke="black" stroke-width="40"/>
<path d="M5389.3 3909.23C5389.3 3909.23 4981.28 4736.32 5375.61 4466.23" stroke="black" stroke-width="40"/>
<path d="M5122 5114.22C5122 5114.22 5503.48 5935.76 5529.98 5011" stroke="black" stroke-width="40"/>
<path d="M4114.72 4241.93C4114.72 4241.93 3648.56 3624.59 3987.09 3780.39" stroke="black" stroke-width="40"/>
<path d="M6700 4308.1C6700 4308.1 7111.92 3482.96 6716.32 3751.18" stroke="black" stroke-width="40"/>
<path d="M5131 5127.5C5131 5127.5 5365.27 4489.92 5559.75 5041.42" stroke="black" stroke-width="40"/>
<path d="M6249.64 4029.5C5552.14 4419 7174.13 4532.5 6428.14 4029.5L6346.62 3835L6249.64 4029.5Z" fill="#7CCAD2" stroke="black"/>
<path d="M4293.64 4029.5C3596.14 4419 5218.13 4532.5 4472.14 4029.5L4390.62 3835L4293.64 4029.5Z" fill="#7CCAD2" stroke="black"/>
<ellipse cx="5929" cy="3332" rx="142" ry="306" fill="#262525"/>
<ellipse cx="4801" cy="3290" rx="142" ry="306" fill="#2B2828"/>
<path d="M4942.89 1247L5442.49 2443.25H4443.29L4942.89 1247Z" fill="#E21717"/>
<path d="M4951.25 1522.28L5315.52 2409.44H4586.99L4951.25 1522.28Z" fill="#FF9B04"/>
<path d="M4956.27 1775.1L5178.83 2342.76H4733.72L4956.27 1775.1Z" fill="#F6ED41"/>
<path d="M6057.89 1172L6557.49 2368.25H5558.29L6057.89 1172Z" fill="#E21717"/>
<path d="M6066.25 1447.28L6430.52 2334.44H5701.99L6066.25 1447.28Z" fill="#FF9B04"/>
<path d="M6071.27 1700.1L6293.83 2267.76H5848.72L6071.27 1700.1Z" fill="#F6ED41"/>
<path d="M5602 1232L6132.87 2615H5071.13L5602 1232Z" fill="#E21717"/>
<path d="M5610.89 1550.25L5997.96 2575.91H5223.82L5610.89 1550.25Z" fill="#FF9B04"/>
<path d="M5616.22 1842.55L5852.71 2498.82H5379.73L5616.22 1842.55Z" fill="#F6ED41"/>
<path d="M8286.84 8452.42C8293.12 8470.95 8298.4 8486.51 8302.69 8499.11C8307.48 8511.92 8311.4 8522.56 8314.42 8531.02C8317.89 8540.58 8321.13 8548.54 8324.15 8554.9C8327.16 8561.27 8331.68 8569.76 8337.69 8580.39C8342.61 8589.35 8349.32 8601.17 8357.83 8615.84C8366.84 8630.73 8378.13 8649.12 8391.69 8671.01C8379.98 8666.08 8369.73 8662.66 8360.94 8660.76C8352.66 8659.07 8345.65 8657.92 8339.92 8657.3C8332.95 8656.76 8327.25 8656.76 8322.83 8657.3C8318.92 8658.05 8310.17 8662.45 8296.58 8670.52C8283 8678.58 8267.07 8688.66 8248.79 8700.74C8230.88 8712.68 8211.66 8725.57 8191.15 8739.4C8171 8753.1 8152.11 8766.27 8134.49 8778.93C8117.23 8791.44 8102.47 8802.31 8090.19 8811.53C8078.43 8820.96 8071.65 8827.09 8069.85 8829.93C8064.46 8838.45 8060.8 8843.95 8058.86 8846.43C8057.28 8848.76 8056.32 8852.11 8055.98 8856.46C8055.85 8858.2 8055.72 8861 8055.6 8864.84C8055.33 8868.33 8055.07 8872.86 8054.81 8878.45C8054.71 8884.4 8054.75 8891.76 8054.95 8900.53C8048.48 8886.72 8043 8874.82 8038.52 8864.84C8034.39 8854.71 8030.82 8846.46 8027.81 8840.1C8024.35 8832.65 8021.34 8826.29 8018.76 8821.01C8016.55 8815.58 8013.54 8809.22 8009.72 8801.91C8006.35 8795.7 8002.16 8787.49 7997.16 8777.29C7992.31 8767.46 7986.73 8755.81 7980.4 8742.36C7988.42 8747.53 7995.3 8751.48 8001.04 8754.2C8007.3 8757.14 8012.39 8759.28 8016.32 8760.63C8021.11 8762.05 8025.18 8762.72 8028.52 8762.62C8032.07 8762.02 8037.17 8760.57 8043.83 8758.28C8049.77 8756.29 8057.36 8753.19 8066.62 8749C8076.24 8744.66 8088.54 8738.6 8103.5 8730.82L8030.72 8594.07C8023.1 8592.95 8016.57 8592.45 8011.13 8592.56C8006.05 8592.52 8001.73 8592.8 7998.18 8593.4C7993.76 8593.94 7990.36 8594.9 7987.97 8596.29C7985.37 8598.2 7982.45 8600.86 7979.21 8604.29C7976.33 8607.57 7973.02 8611.87 7969.28 8617.19C7966.05 8622.73 7962.58 8630.26 7958.87 8639.78C7955.55 8630.59 7951.97 8621.29 7948.14 8611.89C7944.31 8602.48 7940.59 8593.87 7936.99 8586.06C7932.79 8576.8 7928.68 8567.72 7924.63 8558.83C7920.58 8549.93 7915.84 8539.84 7910.4 8528.56C7905.7 8519.09 7900.16 8508.06 7893.77 8495.48C7887.59 8482.39 7880.68 8468.54 7873.05 8453.93C7881.22 8461.57 7888.8 8467.76 7895.8 8472.51C7903.15 8477.1 7909.7 8480.76 7915.45 8483.48C7921.86 8486.78 7927.78 8489.42 7933.24 8491.42C7937.89 8492.48 7948.27 8494.15 7964.39 8496.45C7980.87 8498.59 8000.07 8500.68 8021.99 8502.72C8044.05 8505.12 8067.53 8507.37 8092.43 8509.46C8117.47 8511.92 8140.8 8513.8 8162.43 8515.11C8184.41 8516.28 8203.2 8516.85 8218.8 8516.83C8234.4 8516.8 8244.18 8515.98 8248.16 8514.36C8252.57 8511.72 8257.08 8507.77 8261.69 8502.52C8265.72 8497.93 8269.89 8491.59 8274.19 8483.51C8278.64 8475.79 8282.86 8465.43 8286.84 8452.42ZM8141.01 8707.95C8152.78 8700.62 8162.83 8694.21 8171.13 8688.72C8179.8 8683.08 8186.99 8678.46 8192.7 8674.87C8199.35 8670.48 8205.24 8666.81 8210.37 8663.88C8214.99 8660.73 8220.99 8656.81 8228.36 8652.12C8234.64 8647.88 8242.4 8642.61 8251.65 8636.31C8261.4 8630.23 8272.93 8622.79 8286.22 8614C8236.58 8610.18 8198.01 8607.12 8170.5 8604.83C8143.5 8602.75 8123.73 8601.32 8111.17 8600.52C8096.37 8599.38 8087.73 8598.89 8085.27 8599.05L8141.01 8707.95ZM8292.56 8774.02C8294.99 8781.04 8297.32 8787.27 8299.53 8792.69C8302.25 8798.33 8304.6 8803.07 8306.58 8806.9C8308.86 8811.46 8310.92 8815.47 8312.75 8818.94C8315.68 8824.07 8318.87 8829.31 8322.32 8834.66C8325.1 8839.43 8328.14 8844.31 8331.44 8849.29C8335.24 8854.49 8339.16 8859.43 8343.17 8864.12C8336.86 8864.16 8331.42 8864.27 8326.86 8864.44C8322.29 8864.62 8318.41 8864.93 8315.22 8865.39C8311.52 8865.63 8308.59 8866.19 8306.42 8867.07C8303.74 8867.74 8300.59 8868.82 8296.97 8870.29C8290.67 8872.43 8280.72 8876.48 8267.12 8882.45C8291.07 8894.63 8310.14 8905.21 8324.34 8914.18C8338.69 8923.52 8349.94 8930.96 8358.1 8936.49C8367.57 8943.18 8374.24 8948.69 8378.12 8953.02C8385.74 8965.52 8387.45 8978.53 8383.26 8992.05C8381.41 8997.86 8378.22 9004.01 8373.69 9010.5C8369.52 9016.83 8363.14 9023.44 8354.56 9030.31C8345.97 9037.18 8335.09 9044.14 8321.94 9051.19C8309.14 9058.09 8293.11 9064.83 8273.86 9071.4C8270.04 9064.1 8266.52 9057.52 8263.29 9051.67C8260.21 9046.17 8257.68 9041.51 8255.7 9037.68C8253.06 9033.27 8250.93 9029.07 8249.31 9025.1L8241.71 9011.11C8238.92 9006.34 8235.62 9000.3 8231.8 8993C8228.49 8985.91 8224.16 8977.34 8218.8 8967.29C8237.29 8977.48 8251.94 8982.9 8262.75 8983.56C8274.08 8984.43 8282.66 8983.25 8288.52 8980.02C8295.1 8976.5 8299.74 8970.81 8302.45 8962.96C8303.63 8954.46 8302.05 8946.46 8297.73 8938.94C8294.2 8932.36 8287.89 8925.66 8278.78 8918.82C8269.67 8911.99 8255.63 8906.53 8236.67 8902.44C8213.82 8912.59 8194.94 8921.13 8180.04 8928.04C8165.29 8935.31 8153.35 8941.23 8144.24 8945.78C8133.83 8951.29 8125.7 8955.65 8119.84 8958.88C8114.86 8962.18 8109.95 8966.71 8105.13 8972.47C8101.1 8977.06 8096.96 8982.96 8092.73 8990.17C8088.49 8997.38 8084.85 9006.04 8081.79 9016.14C8076.03 8999.93 8070.73 8986.9 8065.88 8977.07C8063.01 8971.06 8060.44 8965.79 8058.16 8961.23C8055.38 8956.46 8052.44 8951.33 8049.36 8945.83C8046.58 8941.06 8043.42 8935.39 8039.9 8928.81C8036.16 8922.74 8032.13 8915.95 8027.8 8908.43C8032.96 8909.7 8038.62 8910.14 8044.78 8909.74C8050.58 8909.48 8056.06 8908.94 8061.2 8908.11C8067.22 8907.35 8073.27 8906.15 8079.35 8904.52C8084.56 8902.82 8092.23 8899.9 8102.36 8895.78C8112.64 8892.01 8123.96 8887.19 8136.33 8881.31C8149.21 8875.64 8162.37 8869.65 8175.82 8863.32C8189.64 8856.85 8202.47 8850.57 8214.33 8844.48C8226.19 8838.38 8236.35 8832.77 8244.8 8827.64C8253.76 8822.72 8259.76 8818.8 8262.79 8815.88C8266.39 8812.3 8269.85 8808.37 8273.16 8804.07C8276.26 8800.27 8279.31 8795.87 8282.33 8790.84C8285.7 8785.67 8289.11 8780.06 8292.56 8774.02ZM8399.25 9043.74C8403.36 9051.76 8406.96 9058.52 8410.04 9064.02C8413.27 9069.87 8416.06 9074.64 8418.4 9078.33C8421.04 9082.74 8423.38 9086.42 8425.43 9089.38C8427.12 9092.49 8429.32 9095.81 8432.03 9099.35C8434.22 9102.67 8436.75 9106.29 8439.6 9110.18C8442.96 9114.3 8446.65 9118.7 8450.67 9123.39L8380.43 9148.2C8396.33 9151.01 8409.68 9156.33 8420.46 9164.16C8431.61 9171.86 8440.73 9179.74 8447.81 9187.82C8456.36 9197.42 8463.28 9207.67 8468.57 9218.59C8472.93 9230.32 8475.46 9241.73 8476.19 9252.82C8476.68 9262.32 8475.55 9272.48 8472.79 9283.31C8470.17 9294.49 8463.86 9304.87 8453.83 9314.44C8471.5 9321.58 8486.21 9329.72 8497.95 9338.86C8510.19 9348.21 8520.04 9356.85 8527.49 9364.79C8536.03 9374.38 8542.66 9383.91 8547.36 9393.39C8553.03 9406.26 8555.72 9419.09 8555.44 9431.85C8555.3 9444.98 8553.31 9457.18 8549.46 9468.45C8545.98 9479.57 8541.29 9489.29 8535.39 9497.59C8529.86 9505.75 8524.35 9511.37 8518.85 9514.45C8511.33 9518.78 8500.8 9522.44 8487.26 9525.42C8474.07 9528.26 8460.38 9530.89 8446.18 9533.3C8432.34 9535.56 8419.47 9537.64 8407.59 9539.52C8396.21 9541.63 8388.43 9543.74 8384.24 9545.87C8381.06 9548.43 8377.75 9552.73 8374.31 9558.77C8371.44 9564.16 8368.15 9571.62 8364.44 9581.14C8361.23 9590.88 8358.2 9604.14 8355.33 9620.91C8350.98 9609.19 8347.14 9598.73 8343.82 9589.54C8340.64 9580.71 8338.16 9573.07 8336.38 9566.63C8334.16 9559.1 8332.12 9552.55 8330.27 9546.97C8328.51 9542.63 8326.73 9537.24 8324.95 9530.8C8323.25 9525.58 8321.07 9518.67 8318.4 9510.05C8315.88 9501.8 8312.85 9492.28 8309.3 9481.49C8312 9485.03 8315.32 9487.48 8319.25 9488.83C8323.53 9490.04 8327.49 9490.96 8331.12 9491.59C8335.48 9491.92 8340.05 9491.75 8344.83 9491.06C8348.74 9490.31 8354.82 9488.68 8363.08 9486.16C8371.33 9483.64 8380.6 9480.5 8390.87 9476.74C8401.3 9473.34 8412.12 9469.35 8423.33 9464.78C8434.69 9460.58 8445.37 9456.23 8455.35 9451.74C8465.33 9447.25 8474.26 9442.77 8482.14 9438.3C8490.02 9433.83 8495.76 9429.8 8499.36 9426.22C8502.03 9423.45 8503.53 9419.89 8503.87 9415.53C8504.56 9411.03 8504.14 9406.35 8502.58 9401.5C8501.39 9396.51 8499.29 9391.88 8496.29 9387.61C8493.65 9383.21 8490.51 9379.64 8486.87 9376.9C8483.01 9374.68 8477.8 9371.74 8471.25 9368.08C8465.36 9365 8457.43 9361.06 8447.46 9356.26C8437.49 9351.46 8424.9 9345.41 8409.7 9338.11C8386.46 9346.31 8367.65 9352.92 8353.24 9357.94C8339.35 9363.18 8328.71 9367.09 8321.33 9369.67C8312.5 9372.85 8306.45 9375.1 8303.2 9376.42C8300.16 9377.24 8297.52 9378.53 8295.28 9380.28C8290.15 9383.22 8285.97 9387.45 8282.74 9392.98C8282.05 9388.2 8280.86 9383.2 8279.16 9377.99C8277.61 9373.14 8276.2 9368.65 8274.94 9364.52C8273.39 9359.67 8271.65 9354.9 8269.74 9350.19C8268.12 9346.21 8266.17 9341.95 8263.89 9337.39C8261.91 9333.56 8259.38 9328.9 8256.29 9323.4C8253.57 9317.76 8250.45 9311.65 8246.93 9305.07C8249.92 9307.23 8253.05 9308.7 8256.32 9309.48C8259.58 9310.25 8262.53 9310.74 8265.14 9310.94C8268.26 9311.36 8271.05 9311.49 8273.52 9311.33C8275.84 9310.8 8281.38 9309.39 8290.14 9307.09C8299.26 9304.64 8309.69 9301.23 8321.41 9296.88C8333.14 9292.53 8345.26 9287.59 8357.77 9282.07C8370.65 9276.4 8381.89 9270.35 8391.5 9263.91C8401.46 9257.31 8408.93 9250.27 8413.89 9242.77C8418.99 9235.62 8419.71 9228.58 8416.04 9221.64C8411.78 9213.26 8406 9205.28 8398.7 9197.71C8392.71 9191.29 8385.05 9184.92 8375.73 9178.59C8366.4 9172.27 8355.31 9167.29 8342.45 9163.68C8314.72 9173.28 8292.83 9181.14 8276.77 9187.26C8260.85 9193.75 8248.8 9198.87 8240.63 9202.62C8231.01 9206.96 8224.46 9210.04 8220.99 9211.88C8218.61 9213.27 8216.44 9215.21 8214.5 9217.69C8212.77 9219.66 8210.76 9221.95 8208.45 9224.58C8206.29 9227.57 8204.39 9230.66 8202.74 9233.86L8171.94 9145.81C8174.57 9148.12 8177.41 9149.91 8180.46 9151.2C8183.88 9152.34 8187.15 9153.12 8190.27 9153.53C8193.75 9153.8 8197.24 9154.07 8200.72 9154.34C8203.69 9154.39 8210.03 9152.87 8219.73 9149.76C8229.58 9147.01 8240.98 9143.42 8253.94 9138.99C8267.26 9134.41 8281.04 9129.42 8295.3 9124.04C8310.07 9118.87 8323.6 9113.78 8335.9 9108.77C8348.71 9103.97 8359.45 9099.81 8368.14 9096.27C8377.18 9092.59 8382.53 9090.2 8384.19 9089.1C8387.37 9086.54 8390.36 9083 8393.16 9078.49C8395.02 9074.78 8396.7 9070.09 8398.18 9064.42C8400.03 9058.6 8400.39 9051.71 8399.25 9043.74ZM8745.85 9744.02C8736.57 9744.01 8728.15 9744.06 8720.61 9744.18C8713.22 9744.67 8706.62 9745.03 8700.81 9745.29C8694.29 9745.84 8688.56 9746.27 8683.63 9746.59C8677.98 9747.21 8671.53 9747.94 8664.28 9748.78C8657.75 9749.33 8649.56 9749.93 8639.7 9750.57C8630.35 9751.42 8619.14 9752.4 8606.09 9753.5C8622.28 9743.53 8633.89 9732.69 8640.93 9720.96C8648.32 9709.09 8653.3 9698 8655.84 9687.68C8658.52 9675.63 8659.1 9663.58 8657.57 9651.55C8652.87 9630.69 8646.76 9616.73 8639.25 9609.66C8631.73 9602.6 8624.31 9598.88 8616.98 9598.49C8613.86 9598.07 8609.94 9597.77 8605.22 9597.58C8601.02 9597.61 8596.7 9597.89 8592.28 9598.43C8588.01 9599.32 8583.95 9600.76 8580.12 9602.75C8576.29 9604.73 8573.7 9607.68 8572.34 9611.61C8571.27 9614.15 8570.65 9619.89 8570.49 9628.81C8570.69 9637.59 8570.94 9648.03 8571.23 9660.14C8572.04 9672.47 8572.7 9685.49 8573.22 9699.19C8573.89 9713.26 8574.26 9726.61 8574.34 9739.23C8574.42 9751.85 8573.91 9763.02 8572.81 9772.75C8571.71 9782.48 8569.87 9789.34 8567.28 9793.35C8564.55 9796.99 8560.62 9801.33 8555.5 9806.37C8550.9 9811.62 8545.19 9816.27 8538.4 9820.3C8532.12 9824.54 8525.03 9827.85 8517.14 9830.22C8509.75 9832.81 8501.71 9833.77 8493 9833.1C8484.29 9832.42 8475.24 9829.36 8465.85 9823.91C8456.6 9818.82 8447.34 9810.57 8438.06 9799.17C8427.16 9785.89 8419.93 9771.75 8416.35 9756.76C8412.78 9741.77 8410.73 9727.42 8410.21 9713.71C8409.83 9700.36 8409.87 9688.54 8410.31 9678.24C8411.12 9667.79 8410.42 9660.9 8408.22 9657.58C8405.88 9653.89 8402.05 9650.18 8396.73 9646.44C8391.41 9642.7 8385.98 9639.22 8380.45 9635.99C8375.43 9632.97 8370.8 9630.43 8366.58 9628.35C8362.72 9626.13 8361.16 9624.87 8361.88 9624.57C8362.6 9624.28 8365 9623.94 8369.06 9623.55C8373.26 9623.52 8378.19 9623.2 8383.85 9622.59C8390.01 9622.18 8396.46 9621.45 8403.2 9620.4C8410.45 9619.55 8417.12 9618.31 8423.2 9616.68C8428.2 9615.49 8434.35 9614.03 8441.67 9612.32C8448.11 9610.54 8455.9 9608.42 8465.02 9605.97C8474.66 9603.73 8486.17 9600.94 8499.57 9597.59C8490.9 9603.23 8483.79 9609.08 8478.25 9615.14C8472.85 9621.55 8468.28 9627.42 8464.54 9632.74C8460.37 9639.08 8457.03 9644.87 8454.53 9650.1C8451.67 9657.59 8449.55 9665.84 8448.16 9674.84C8446.91 9684.21 8446.2 9693.35 8446.04 9702.28C8446.24 9711.05 8447.38 9719.03 8449.46 9726.19C8451.53 9733.36 8454.61 9738.86 8458.7 9742.67C8462.79 9746.49 8468.39 9748.85 8475.5 9749.75C8482.76 9751.01 8490.13 9750.96 8497.59 9749.61C8505.05 9748.26 8511.78 9746.15 8517.79 9743.28C8524.15 9740.27 8528.73 9736.5 8531.53 9731.99C8533.18 9728.79 8534.38 9722.4 8535.11 9712.82C8536 9703.6 8536.58 9692.6 8536.87 9679.84C8537.29 9667.43 8537.61 9654.23 8537.81 9640.22C8538.16 9626.58 8538.73 9613.49 8539.52 9600.93C8540.83 9588.59 8542.43 9578.03 8544.33 9569.24C8546.74 9560.67 8549.79 9555.21 8553.48 9552.86C8558.97 9549.78 8565.08 9546.66 8571.81 9543.5C8578.89 9540.19 8586.1 9537.68 8593.41 9535.96C8601.24 9534.46 8609.14 9534.2 8617.13 9535.16C8625.26 9536.49 8633.04 9540.07 8640.48 9545.89C8645.44 9549.78 8650.33 9555.59 8655.17 9563.32C8660 9571.05 8664.49 9579.98 8668.61 9590.11C8673.1 9600.09 8677.01 9610.73 8680.35 9622.03C8684.04 9633.18 8687.16 9643.93 8689.69 9654.28C8692.73 9664.86 8694.97 9674.49 8696.4 9683.19C8697.98 9692.24 8698.93 9699.24 8699.25 9704.17C8699.5 9709.97 8701.53 9715.47 8705.34 9720.67C8708.49 9725.29 8713.05 9729.76 8719.02 9734.07C8725 9738.39 8733.94 9741.71 8745.85 9744.02Z" fill="black"/>
<path d="M7464.3 4524.25C7452.93 4510.68 7441.2 4498.95 7429.1 4489.05C7417 4479.15 7404.53 4471.08 7391.7 4464.85V4454.95C7417 4442.12 7441.2 4422.32 7464.3 4395.55H7483.55C7477.68 4408.02 7471.82 4419.02 7465.95 4428.55C7460.08 4437.72 7454.4 4445.42 7448.9 4451.65V4468.15C7454.4 4474.02 7460.08 4481.72 7465.95 4491.25C7471.82 4500.42 7477.68 4511.42 7483.55 4524.25H7464.3ZM7446.15 4471.45V4448.35H7772.3V4471.45H7446.15ZM7867.74 4277.39C7889.23 4279.18 7908.03 4280.26 7924.14 4280.62C7940.61 4280.98 7954.57 4281.15 7966.03 4281.15C7979.28 4281.15 7990.74 4280.8 8000.41 4280.08C8010.43 4279.01 8023.5 4277.57 8039.62 4275.78C8053.22 4273.99 8070.77 4271.67 8092.25 4268.8C8113.74 4265.58 8139.88 4261.46 8170.67 4256.45C8166.73 4262.53 8163.33 4268.98 8160.47 4275.78C8157.96 4282.23 8155.81 4288.14 8154.02 4293.51C8152.23 4299.95 8150.62 4306.22 8149.19 4312.31C8148.11 4319.11 8146.86 4327.52 8145.43 4337.55C8144 4346.14 8142.21 4357.07 8140.06 4370.31C8138.27 4383.21 8135.94 4398.6 8133.07 4416.51C8122.33 4388.58 8111.41 4367.09 8100.31 4352.05C8089.57 4337.01 8079.54 4325.91 8070.23 4318.75C8059.49 4310.52 8049.29 4305.86 8039.62 4304.79C8025.65 4304.79 8014.19 4307.47 8005.24 4312.84C7996.29 4318.21 7988.95 4325.2 7983.22 4333.79C7977.85 4342.03 7973.73 4351.16 7970.87 4361.18C7968 4370.85 7966.03 4380.34 7964.96 4389.65C7963.88 4398.6 7963.17 4406.66 7962.81 4413.82C7962.45 4420.62 7962.09 4425.28 7961.74 4427.79C7974.27 4427.07 7984.83 4426.17 7993.43 4425.1C8002.02 4424.03 8008.82 4422.95 8013.84 4421.88C8019.92 4420.44 8024.76 4419.01 8028.34 4417.58C8033.71 4414.72 8039.08 4411.31 8044.45 4407.38C8049.11 4403.79 8053.94 4399.5 8058.95 4394.48C8064.32 4389.47 8068.98 4383.38 8072.92 4376.22C8070.77 4389.11 8068.8 4399.86 8067.01 4408.45C8065.58 4417.04 8064.32 4423.85 8063.25 4428.86C8061.82 4434.95 8060.92 4439.6 8060.56 4442.82C8059.85 4446.05 8058.95 4450.52 8057.88 4456.25C8056.8 4461.26 8055.55 4467.71 8054.12 4475.59C8052.69 4483.47 8051.08 4493.31 8049.29 4505.13C8044.99 4497.61 8040.51 4491.52 8035.86 4486.87C8031.2 4481.85 8026.91 4477.92 8022.97 4475.05C8018.31 4471.83 8013.84 4469.32 8009.54 4467.53C8004.88 4466.1 7999.87 4464.67 7994.5 4463.23C7989.85 4462.16 7984.29 4461.09 7977.85 4460.01C7971.76 4458.58 7965.14 4457.33 7957.98 4456.25C7958.69 4475.59 7959.77 4492.24 7961.2 4506.2C7962.63 4519.81 7963.88 4531.27 7964.96 4540.58C7966.39 4551.32 7967.82 4560.27 7969.26 4567.43C7971.05 4574.6 7973.91 4582.29 7977.85 4590.53C7981.07 4597.69 7985.55 4605.93 7991.28 4615.24C7997.36 4624.19 8005.06 4633.86 8014.37 4644.24C8007.21 4642.45 7999.69 4641.2 7991.81 4640.48C7983.94 4639.76 7976.95 4639.23 7970.87 4638.87C7963.35 4638.51 7956.19 4638.51 7949.38 4638.87C7942.22 4639.23 7934.34 4639.94 7925.75 4641.02C7918.59 4641.73 7910.35 4642.81 7901.04 4644.24C7891.73 4645.67 7881.89 4647.28 7871.5 4649.07C7877.59 4642.99 7882.6 4636.9 7886.54 4630.81C7890.48 4624.73 7893.34 4619.35 7895.13 4614.7C7897.28 4609.33 7898.72 4604.14 7899.43 4599.12C7899.79 4594.83 7899.97 4585.52 7899.97 4571.19C7899.97 4556.51 7899.79 4539.5 7899.43 4520.17C7899.07 4500.47 7898.54 4479.71 7897.82 4457.86C7897.1 4436.02 7896.39 4415.61 7895.67 4396.63C7894.96 4377.3 7894.06 4360.83 7892.99 4347.22C7892.27 4333.61 7891.38 4325.38 7890.3 4322.51C7888.87 4318.93 7887.26 4314.81 7885.47 4310.16C7882.6 4302.64 7876.69 4291.72 7867.74 4277.39ZM8178.19 4430.47C8179.98 4428.32 8181.06 4424.38 8181.41 4418.65C8182.13 4412.57 8183.56 4405.76 8185.71 4398.24C8188.22 4390.72 8192.34 4382.85 8198.06 4374.61C8203.79 4366.38 8213.1 4358.68 8225.99 4351.52C8238.53 4344.35 8250.7 4340.06 8262.52 4338.62C8274.33 4337.19 8285.61 4337.73 8296.36 4340.24C8307.1 4342.74 8317.12 4346.68 8326.43 4352.05C8336.1 4357.42 8344.87 4363.33 8352.75 4369.78C8358.12 4374.07 8362.42 4380.34 8365.64 4388.58C8368.87 4396.45 8371.37 4405.41 8373.16 4415.43C8374.95 4425.46 8376.21 4436.02 8376.92 4447.12C8378 4457.86 8378.71 4468.43 8379.07 4478.81C8379.43 4488.84 8379.61 4498.15 8379.61 4506.74C8379.97 4514.98 8380.68 4521.78 8381.76 4527.15C8383.19 4535.03 8385.69 4541.83 8389.28 4547.56C8392.86 4552.93 8396.79 4557.59 8401.09 4561.53C8405.39 4565.11 8409.69 4567.97 8413.98 4570.12C8418.28 4572.27 8422.04 4573.88 8425.26 4574.95C8427.41 4576.03 8429.38 4576.74 8431.17 4577.1C8434.75 4578.53 8437.26 4578.53 8438.69 4577.1C8436.54 4582.11 8434.57 4586.41 8432.78 4589.99C8430.99 4593.57 8429.56 4596.62 8428.48 4599.12C8427.05 4601.99 8425.8 4604.32 8424.72 4606.11C8423.65 4608.25 8422.4 4610.22 8420.96 4612.01C8419.89 4613.8 8418.46 4615.77 8416.67 4617.92C8414.88 4620.07 8413.09 4622.4 8411.3 4624.9C8406.64 4623.11 8402.17 4620.97 8397.87 4618.46C8393.93 4615.95 8390.35 4613.62 8387.13 4611.48C8383.19 4608.97 8379.61 4606.46 8376.38 4603.96C8373.16 4601.45 8370.12 4598.59 8367.25 4595.36C8364.75 4592.5 8362.06 4589.46 8359.2 4586.23C8356.69 4583.01 8354.54 4579.43 8352.75 4575.49C8350.6 4580.15 8345.41 4586.77 8337.18 4595.36C8329.3 4603.96 8318.91 4611.83 8306.02 4619C8293.13 4625.8 8278.09 4630.63 8260.91 4633.5C8244.08 4636.36 8225.46 4634.39 8205.05 4627.59C8196.1 4624.73 8187.68 4620.61 8179.8 4615.24C8171.93 4609.51 8165.12 4602.7 8159.39 4594.83C8154.02 4586.95 8150.08 4578 8147.58 4567.97C8145.43 4557.59 8145.61 4546.13 8148.11 4533.6C8150.62 4521.06 8155.1 4510.5 8161.54 4501.91C8167.99 4493.31 8175.68 4486.33 8184.64 4480.96C8193.59 4475.59 8203.61 4471.47 8214.71 4468.61C8225.82 4465.74 8237.27 4463.77 8249.09 4462.7C8258.4 4462.34 8267.71 4462.88 8277.02 4464.31C8284.9 4465.74 8293.13 4468.43 8301.73 4472.37C8310.32 4475.95 8317.66 4481.5 8323.75 4489.02C8323.39 4470.04 8322.67 4455 8321.6 4443.9C8320.88 4432.44 8320.17 4423.67 8319.45 4417.58C8318.02 4410.42 8316.77 4405.41 8315.69 4402.54C8313.9 4400.03 8311.93 4397.17 8309.78 4393.95C8307.99 4390.72 8305.67 4387.86 8302.8 4385.35C8299.94 4382.49 8296.36 4380.16 8292.06 4378.37C8287.76 4376.58 8282.75 4375.86 8277.02 4376.22C8270.93 4376.58 8266.1 4378.19 8262.52 4381.06C8258.94 4383.92 8256.07 4387.32 8253.92 4391.26C8252.13 4394.84 8251.06 4398.78 8250.7 4403.08C8250.34 4407.38 8250.52 4411.13 8251.24 4414.36C8251.95 4416.51 8253.03 4418.83 8254.46 4421.34C8255.89 4423.49 8257.86 4425.82 8260.37 4428.32C8262.88 4430.83 8266.28 4432.98 8270.57 4434.77C8262.34 4435.84 8255 4436.74 8248.55 4437.45C8242.11 4437.81 8236.56 4438.35 8231.9 4439.06C8226.53 4439.78 8221.88 4440.32 8217.94 4440.68C8214 4441.03 8209.34 4441.75 8203.97 4442.82C8199.32 4443.54 8193.59 4444.44 8186.79 4445.51C8179.98 4446.58 8172.1 4448.02 8163.15 4449.81C8165.3 4447.3 8167.27 4444.97 8169.06 4442.82C8170.85 4440.32 8172.46 4438.17 8173.89 4436.38C8175.33 4434.23 8176.76 4432.26 8178.19 4430.47ZM8258.76 4494.39C8252.31 4494.74 8245.87 4496.36 8239.42 4499.22C8232.98 4501.73 8227.25 4505.49 8222.23 4510.5C8217.22 4515.15 8212.92 4520.71 8209.34 4527.15C8206.12 4533.24 8204.51 4540.04 8204.51 4547.56C8204.51 4555.08 8206.3 4561.7 8209.88 4567.43C8213.82 4572.8 8218.83 4577.28 8224.92 4580.86C8231.37 4584.44 8238.17 4586.59 8245.33 4587.31C8252.85 4588.02 8260.19 4587.31 8267.35 4585.16C8274.15 4582.65 8280.6 4578.71 8286.69 4573.34C8292.77 4567.61 8297.97 4561.53 8302.26 4555.08C8306.56 4548.28 8309.6 4541.65 8311.39 4535.21C8313.18 4528.4 8313.36 4522.85 8311.93 4518.56C8309.07 4509.25 8302.62 4502.8 8292.6 4499.22C8282.57 4495.28 8271.29 4493.67 8258.76 4494.39ZM8733.56 4457.33C8729.27 4456.61 8723.89 4456.07 8717.45 4455.71C8711.36 4455.36 8705.45 4455.18 8699.72 4455.18C8693.28 4455.18 8686.48 4455.36 8679.31 4455.71C8671.79 4456.07 8664.28 4456.43 8656.76 4456.79C8650.31 4457.15 8642.97 4457.68 8634.73 4458.4C8626.86 4458.76 8619.16 4459.3 8611.64 4460.01C8614.5 4458.58 8617.01 4456.61 8619.16 4454.1C8621.66 4451.6 8623.81 4449.09 8625.6 4446.58C8627.39 4443.72 8629.01 4440.68 8630.44 4437.45C8632.23 4432.08 8632.05 4425.64 8629.9 4418.12C8627.75 4410.24 8623.81 4403.08 8618.08 4396.63C8612.71 4390.19 8605.73 4385.17 8597.14 4381.59C8588.9 4377.65 8579.77 4376.76 8569.74 4378.91C8559 4381.41 8549.33 4385.17 8540.74 4390.19C8532.5 4395.2 8525.52 4402.18 8519.79 4411.13C8514.42 4419.73 8510.48 4430.47 8507.98 4443.36C8505.83 4455.89 8505.29 4470.93 8506.37 4488.48C8507.8 4510.32 8511.38 4527.69 8517.11 4540.58C8522.84 4553.47 8529.82 4563.14 8538.05 4569.58C8546.29 4576.03 8555.24 4579.97 8564.91 4581.4C8574.94 4582.47 8584.78 4582.47 8594.45 4581.4C8601.25 4579.97 8607.52 4576.92 8613.25 4572.27C8617.9 4568.33 8622.2 4562.6 8626.14 4555.08C8630.08 4547.56 8631.87 4537.18 8631.51 4523.93L8697.04 4521.24C8689.52 4542.37 8680.39 4559.2 8669.65 4571.73C8658.9 4583.9 8648.52 4593.39 8638.49 4600.2C8626.68 4608.07 8614.86 4613.45 8603.04 4616.31C8588.36 4618.82 8575.29 4619.89 8563.84 4619.53C8552.38 4618.82 8541.99 4617.03 8532.68 4614.16C8523.37 4611.3 8514.78 4607.72 8506.9 4603.42C8499.02 4599.12 8491.51 4594.47 8484.34 4589.46C8479.69 4586.23 8474.5 4580.86 8468.77 4573.34C8463.04 4565.82 8457.67 4556.87 8452.65 4546.49C8447.64 4535.74 8443.52 4523.93 8440.3 4511.04C8437.08 4498.15 8435.82 4484.9 8436.54 4471.29C8437.26 4457.33 8440.48 4443.36 8446.21 4429.4C8451.94 4415.43 8461.07 4402 8473.6 4389.11C8492.58 4369.78 8512.81 4357.24 8534.29 4351.52C8556.14 4345.43 8576.73 4343.82 8596.06 4346.68C8615.4 4349.19 8632.59 4354.74 8647.62 4363.33C8662.66 4371.93 8673.23 4381.24 8679.31 4391.26C8685.4 4401.29 8689.88 4408.99 8692.74 4414.36C8695.96 4419.37 8698.29 4423.31 8699.72 4426.17C8701.51 4428.68 8702.95 4430.65 8704.02 4432.08C8705.45 4433.16 8707.42 4434.77 8709.93 4436.92C8711.72 4438.71 8713.87 4440.68 8716.38 4442.82C8718.52 4444.61 8721.03 4446.76 8723.89 4449.27C8726.76 4451.78 8729.98 4454.46 8733.56 4457.33ZM8865.15 4561.53C8875.18 4561.53 8884.49 4560.45 8893.08 4558.3C8900.25 4556.51 8907.05 4553.65 8913.49 4549.71C8920.3 4545.41 8924.77 4539.15 8926.92 4530.91C8934.08 4532.34 8940.17 4533.6 8945.18 4534.67C8950.2 4535.39 8954.49 4536.1 8958.07 4536.82C8962.01 4537.89 8965.41 4538.61 8968.28 4538.97C8971.14 4539.68 8974.55 4540.4 8978.48 4541.12C8982.07 4541.83 8986.36 4542.73 8991.38 4543.8C8996.75 4544.52 9003.01 4545.59 9010.17 4547.02C9004.8 4546.31 8999.25 4546.84 8993.52 4548.63C8988.15 4550.43 8982.96 4552.39 8977.95 4554.54C8972.22 4557.05 8966.85 4560.09 8961.83 4563.67C8958.61 4565.82 8954.85 4569.04 8950.55 4573.34C8946.62 4577.64 8940.89 4581.76 8933.37 4585.7C8925.85 4589.63 8915.82 4593.04 8903.29 4595.9C8891.11 4598.41 8875.36 4599.3 8856.02 4598.59C8832.75 4597.87 8813.23 4593.75 8797.48 4586.23C8781.72 4578.35 8769.01 4568.87 8759.34 4557.77C8749.68 4546.31 8742.69 4533.95 8738.4 4520.71C8734.1 4507.46 8731.77 4495.1 8731.41 4483.64C8731.06 4472.19 8734.46 4460.19 8741.62 4447.66C8748.78 4435.13 8758.81 4423.67 8771.7 4413.28C8784.95 4402.9 8800.88 4394.48 8819.5 4388.04C8838.12 4381.24 8858.53 4377.83 8880.73 4377.83C8893.62 4377.83 8905.44 4379.45 8916.18 4382.67C8927.28 4385.53 8937.31 4389.47 8946.26 4394.48C8955.57 4399.5 8963.62 4405.23 8970.43 4411.67C8977.23 4417.76 8982.96 4424.03 8987.62 4430.47C8992.27 4437.27 8996.21 4444.44 8999.43 4451.96C9002.3 4458.4 9004.62 4465.74 9006.41 4473.98C9008.2 4482.21 9008.74 4490.63 9008.03 4499.22C8980.81 4499.94 8958.79 4500.47 8941.96 4500.83C8925.49 4501.19 8912.6 4501.37 8903.29 4501.37H8879.12H8860.86C8854.41 4501.37 8846 4501.55 8835.61 4501.91C8825.23 4502.26 8812.52 4502.8 8797.48 4503.52C8799.27 4517.84 8803.74 4528.94 8810.91 4536.82C8818.43 4544.34 8826.3 4550.07 8834.54 4554.01C8843.85 4558.3 8854.05 4560.81 8865.15 4561.53ZM8816.81 4464.85C8828.27 4465.56 8837.76 4466.1 8845.28 4466.46C8853.16 4466.82 8859.6 4467.17 8864.62 4467.53C8869.99 4467.89 8874.29 4468.07 8877.51 4468.07H8890.94C8899.89 4468.07 8916.54 4467.53 8940.89 4466.46C8939.81 4450.7 8936.41 4438.71 8930.68 4430.47C8925.31 4422.24 8919.58 4416.15 8913.49 4412.21C8906.33 4407.91 8898.46 4405.41 8889.86 4404.69C8866.59 4405.05 8849.22 4409.88 8837.76 4419.19C8826.66 4428.5 8819.68 4443.72 8816.81 4464.85Z" fill="black"/>
<path d="M4724.28 9807.27C4750.45 9810.39 4773.11 9812.73 4792.25 9814.3C4811.39 9815.47 4827.21 9816.45 4839.71 9817.23C4854.16 9818.01 4866.27 9818.2 4876.04 9817.81C4886.2 9817.42 4900.06 9816.45 4917.64 9814.88C4932.48 9813.71 4952.02 9812.15 4976.23 9810.2C5000.45 9807.85 5030.73 9804.73 5067.05 9800.82C5067.45 9809.8 5067.64 9818.59 5067.64 9827.19C5068.03 9835.39 5068.42 9842.62 5068.81 9848.87C5069.2 9856.29 5069.4 9863.12 5069.4 9869.38C5069.4 9876.02 5069.01 9884.41 5068.23 9894.57C5067.45 9903.16 5066.08 9914.1 5064.12 9927.38C5062.56 9940.27 5060.02 9955.7 5056.51 9973.67C5051.04 9952.58 5045.77 9935.59 5040.69 9922.7C5035.61 9909.41 5030.92 9898.87 5026.62 9891.05C5021.94 9882.07 5017.25 9875.23 5012.56 9870.55C5007.48 9867.03 5001.43 9864.1 4994.4 9861.76C4988.15 9859.8 4980.14 9858.24 4970.38 9857.07C4961 9855.9 4949.87 9856.09 4936.98 9857.66C4935.02 9909.22 4933.66 9951.02 4932.88 9983.05C4932.09 10015.1 4931.51 10040.1 4931.12 10058C4930.73 10079.5 4930.53 10095 4930.53 10104.3C4930.92 10117.6 4933.07 10130.7 4936.98 10143.6C4940.1 10154.5 4945.18 10165.9 4952.21 10177.6C4959.24 10189.3 4969.4 10199.6 4982.68 10208.6H4911.2C4904.55 10208.6 4896.35 10209 4886.59 10209.8C4878.38 10210.6 4867.84 10211.4 4854.95 10212.1C4842.45 10212.9 4827.8 10214.3 4811 10216.2C4816.86 10206.1 4821.55 10196.9 4825.06 10188.7C4828.58 10180.5 4831.31 10173.5 4833.27 10167.6C4835.61 10160.6 4837.37 10154.3 4838.54 10148.9C4838.93 10141.1 4839.91 10125.2 4841.47 10101.4C4841.86 10091.6 4842.25 10079.5 4842.64 10065.1C4843.42 10050.6 4844.2 10033.4 4844.98 10013.5C4846.16 9993.59 4847.13 9970.74 4847.91 9944.96C4849.09 9918.79 4850.26 9889.3 4851.43 9856.48C4844.4 9854.53 4837.76 9854.73 4831.51 9857.07C4825.26 9859.02 4819.79 9861.56 4815.1 9864.69C4809.63 9868.59 4804.36 9873.28 4799.28 9878.75C4794.2 9885.39 4788.54 9893.98 4782.29 9904.53C4776.82 9913.52 4770.57 9925.43 4763.54 9940.27C4756.51 9954.73 4748.5 9972.7 4739.52 9994.18C4737.56 9971.52 4736.2 9952.97 4735.41 9938.52C4734.63 9923.67 4734.05 9912.15 4733.66 9903.95C4733.27 9894.18 4733.07 9886.95 4733.07 9882.27C4733.07 9877.97 4732.68 9872.3 4731.9 9865.27C4731.12 9859.41 4730.14 9851.8 4728.97 9842.42C4727.8 9832.66 4726.23 9820.94 4724.28 9807.27ZM5175.45 9972.5C5185.61 9972.5 5196.16 9974.45 5207.09 9978.36C5218.03 9981.88 5228.58 9986.56 5238.73 9992.42C5248.89 9997.89 5258.07 10003.9 5266.27 10010.6C5274.87 10016.8 5281.9 10022.9 5287.37 10028.8C5297.13 10039.3 5303.77 10053.6 5307.29 10071.5C5311.2 10089.1 5311.98 10107.3 5309.63 10126C5307.29 10144.4 5301.82 10161.8 5293.23 10178.2C5284.63 10194.6 5272.72 10206.7 5257.48 10214.5C5246.55 10220 5235.8 10224.3 5225.26 10227.4C5214.71 10230.5 5204.55 10232.9 5194.79 10234.4C5185.02 10236 5175.84 10236.8 5167.25 10236.8C5158.66 10236.8 5151.23 10236.6 5144.98 10236.2C5133.27 10235.4 5120.96 10231.3 5108.07 10223.9C5095.57 10216.4 5083.66 10207.3 5072.33 10196.3C5061.39 10185.4 5052.02 10173.5 5044.2 10160.6C5036.39 10147.3 5031.7 10134.8 5030.14 10123.1C5027.8 10107.1 5027.41 10090.3 5028.97 10072.7C5030.53 10055.1 5036.2 10038.9 5045.96 10024.1C5056.12 10009.2 5071.35 9996.91 5091.66 9987.15C5112.37 9977.38 5140.3 9972.5 5175.45 9972.5ZM5156.12 10199.8C5160.41 10200.6 5166.27 10199.6 5173.7 10196.9C5181.12 10193.8 5188.34 10188.9 5195.38 10182.3C5202.8 10175.6 5209.24 10167.2 5214.71 10157.1C5220.57 10146.5 5224.09 10133.8 5225.26 10119C5226.43 10104.5 5226.43 10091.2 5225.26 10079.1C5224.48 10067 5222.72 10056.5 5219.98 10047.5C5217.25 10038.1 5214.12 10030.5 5210.61 10024.6C5207.09 10018.8 5203.38 10014.7 5199.48 10012.3C5192.84 10008.8 5184.83 10006.1 5175.45 10004.1C5166.08 10001.8 5158.07 10002.2 5151.43 10005.3C5148.3 10006.9 5144.4 10010.2 5139.71 10015.3C5135.02 10020.4 5130.34 10026.8 5125.65 10034.6C5120.96 10042 5116.66 10050.6 5112.76 10060.4C5109.24 10070.2 5106.7 10080.3 5105.14 10090.9C5103.58 10101.4 5103.19 10112.7 5103.97 10124.8C5105.14 10137 5107.68 10148.5 5111.59 10159.4C5115.49 10170 5120.96 10179.1 5127.99 10187C5135.41 10194.4 5144.79 10198.7 5156.12 10199.8ZM5331.9 9954.34C5339.32 9954.73 5345.96 9954.92 5351.82 9954.92C5358.07 9954.53 5363.34 9954.14 5367.64 9953.75C5372.72 9953.36 5377.21 9952.97 5381.12 9952.58C5386.98 9951.8 5393.03 9950.82 5399.28 9949.65C5404.75 9948.87 5410.41 9947.89 5416.27 9946.72C5422.52 9945.16 5428.58 9943.4 5434.44 9941.45C5432.09 9947.3 5430.14 9952.38 5428.58 9956.68C5427.02 9960.98 5425.84 9964.69 5425.06 9967.81C5423.89 9971.33 5423.3 9974.26 5423.3 9976.6C5422.91 9979.34 5422.72 9982.66 5422.72 9986.56C5422.33 9993.2 5422.33 10003.9 5422.72 10018.8C5443.03 10001.2 5460.02 9987.54 5473.7 9977.77C5487.76 9968.01 5498.89 9960.39 5507.09 9954.92C5516.86 9948.67 5524.48 9944.57 5529.95 9942.62C5544.4 9940.27 5557.09 9943.59 5568.03 9952.58C5572.72 9956.48 5577.21 9961.76 5581.51 9968.4C5585.8 9974.65 5589.52 9983.05 5592.64 9993.59C5595.77 10004.1 5598.11 10016.8 5599.67 10031.7C5601.23 10046.1 5601.43 10063.5 5600.26 10083.8C5592.05 10084.6 5584.63 10085.4 5577.99 10086.2C5571.74 10087 5566.47 10087.5 5562.17 10087.9C5557.09 10088.7 5552.41 10089.1 5548.11 10089.1L5532.29 10090.9C5526.82 10091.6 5519.98 10092.4 5511.78 10093.2C5503.97 10093.6 5494.4 10094.4 5483.07 10095.5C5499.48 10082.3 5510.02 10070.7 5514.71 10061C5519.79 10050.8 5521.94 10042.4 5521.16 10035.8C5520.38 10028.4 5516.86 10021.9 5510.61 10016.4C5503.19 10012.1 5495.18 10010.6 5486.59 10011.8C5479.16 10012.5 5470.57 10015.9 5460.8 10021.7C5451.04 10027.6 5440.69 10038.5 5429.75 10054.5C5430.53 10079.5 5431.31 10100.2 5432.09 10116.6C5433.27 10133 5434.24 10146.3 5435.02 10156.5C5436.2 10168.2 5437.17 10177.4 5437.95 10184C5439.12 10189.9 5441.47 10196.1 5444.98 10202.8C5447.72 10208.2 5451.62 10214.3 5456.7 10220.9C5461.78 10227.6 5468.42 10234.2 5476.62 10240.9C5459.44 10240.1 5445.38 10240.1 5434.44 10240.9C5427.8 10241.2 5421.94 10241.6 5416.86 10242C5411.39 10242.8 5405.53 10243.6 5399.28 10244.4C5393.81 10245.2 5387.37 10245.9 5379.95 10246.7C5372.91 10247.9 5365.1 10249.1 5356.51 10250.2C5359.63 10245.9 5362.17 10240.9 5364.12 10235C5366.08 10229.5 5367.64 10224.3 5368.81 10219.2C5370.38 10213.3 5371.55 10207.3 5372.33 10201C5372.72 10195.5 5372.91 10187.3 5372.91 10176.4C5373.3 10165.5 5373.11 10153.2 5372.33 10139.5C5371.94 10125.4 5371.35 10111 5370.57 10096.1C5369.79 10080.9 5368.81 10066.6 5367.64 10053.4C5366.47 10040.1 5365.1 10028.6 5363.54 10018.8C5362.37 10008.6 5361 10001.6 5359.44 9997.7C5357.48 9993.01 5355.14 9988.32 5352.41 9983.63C5350.06 9979.34 5347.13 9974.84 5343.62 9970.16C5340.1 9965.08 5336.2 9959.8 5331.9 9954.34ZM5883.27 9900.43C5879.75 9909.02 5876.62 9916.84 5873.89 9923.87C5871.55 9930.9 5869.4 9937.15 5867.45 9942.62C5865.49 9948.87 5863.73 9954.34 5862.17 9959.02C5860.61 9964.49 5858.85 9970.74 5856.9 9977.77C5854.95 9984.02 5852.41 9991.84 5849.28 10001.2C5846.55 10010.2 5843.23 10020.9 5839.32 10033.4C5836.2 10014.7 5830.53 9999.84 5822.33 9988.91C5814.12 9977.58 5805.73 9968.79 5797.13 9962.54C5786.98 9955.51 5776.04 9950.43 5764.32 9947.3C5743.23 9943.79 5727.99 9944.18 5718.62 9948.48C5709.24 9952.77 5702.99 9958.24 5699.87 9964.88C5698.3 9967.62 5696.55 9971.13 5694.59 9975.43C5693.03 9979.34 5691.66 9983.44 5690.49 9987.73C5689.71 9992.03 5689.52 9996.33 5689.91 10000.6C5690.3 10004.9 5692.05 10008.4 5695.18 10011.2C5697.13 10013.1 5702.21 10015.9 5710.41 10019.4C5718.62 10022.5 5728.38 10026.2 5739.71 10030.5C5751.43 10034.4 5763.73 10038.7 5776.62 10043.4C5789.91 10048.1 5802.41 10052.8 5814.12 10057.5C5825.84 10062.1 5836 10066.8 5844.59 10071.5C5853.19 10076.2 5858.85 10080.5 5861.59 10084.4C5863.93 10088.3 5866.47 10093.6 5869.2 10100.2C5872.33 10106.5 5874.48 10113.5 5875.65 10121.3C5877.21 10128.8 5877.6 10136.6 5876.82 10144.8C5876.43 10152.6 5874.28 10160.4 5870.38 10168.2C5866.47 10176 5860.22 10183.2 5851.62 10189.9C5843.42 10196.5 5832.29 10202 5818.23 10206.3C5801.82 10211.4 5786 10212.7 5770.77 10210.4C5755.53 10208 5741.47 10204.5 5728.58 10199.8C5716.08 10195.2 5705.14 10190.7 5695.77 10186.4C5686.39 10181.7 5679.75 10179.7 5675.84 10180.5C5671.55 10181.3 5666.66 10183.4 5661.2 10187C5655.73 10190.5 5650.45 10194.2 5645.38 10198.1C5640.69 10201.6 5636.59 10204.9 5633.07 10208C5629.55 10210.8 5627.8 10211.8 5627.8 10211C5627.8 10210.2 5628.38 10207.9 5629.55 10203.9C5631.12 10200 5632.68 10195.4 5634.24 10189.9C5636.2 10184 5637.95 10177.8 5639.52 10171.1C5641.47 10164.1 5642.84 10157.5 5643.62 10151.2C5644.4 10146.1 5645.38 10139.9 5646.55 10132.5C5647.33 10125.8 5648.3 10117.8 5649.48 10108.4C5651.04 10098.7 5652.8 10087 5654.75 10073.3C5656.7 10083.4 5659.44 10092.2 5662.95 10099.6C5666.86 10107.1 5670.57 10113.5 5674.09 10119C5678.38 10125.2 5682.48 10130.5 5686.39 10134.8C5692.25 10140.3 5699.09 10145.4 5706.9 10150C5715.1 10154.7 5723.3 10158.8 5731.51 10162.3C5739.71 10165.5 5747.52 10167.4 5754.95 10168.2C5762.37 10169 5768.62 10168.2 5773.7 10165.9C5778.77 10163.5 5783.07 10159.2 5786.59 10153C5790.49 10146.7 5793.23 10139.9 5794.79 10132.5C5796.35 10125 5796.94 10118 5796.55 10111.4C5796.16 10104.3 5794.4 10098.7 5791.27 10094.4C5788.93 10091.6 5783.46 10088.1 5774.87 10083.8C5766.66 10079.5 5756.7 10074.8 5744.98 10069.8C5733.66 10064.7 5721.55 10059.4 5708.66 10053.9C5696.16 10048.5 5684.24 10043 5672.91 10037.5C5661.98 10031.7 5652.8 10026.2 5645.38 10021.1C5638.34 10015.7 5634.44 10010.8 5633.66 10006.5C5632.88 10000.2 5632.29 9993.4 5631.9 9985.98C5631.51 9978.16 5631.9 9970.55 5633.07 9963.12C5634.63 9955.31 5637.37 9947.89 5641.27 9940.86C5645.57 9933.83 5651.82 9927.97 5660.02 9923.28C5665.49 9920.16 5672.72 9917.81 5681.7 9916.25C5690.69 9914.69 5700.65 9913.91 5711.59 9913.91C5722.52 9913.52 5733.85 9913.91 5745.57 9915.08C5757.29 9915.86 5768.42 9917.03 5778.97 9918.59C5789.91 9919.77 5799.67 9921.33 5808.27 9923.28C5817.25 9925.23 5824.09 9926.99 5828.77 9928.55C5834.24 9930.51 5840.1 9930.7 5846.35 9929.14C5851.82 9927.97 5857.68 9925.43 5863.93 9921.52C5870.18 9917.62 5876.62 9910.59 5883.27 9900.43ZM6061.39 9972.5C6071.55 9972.5 6082.09 9974.45 6093.03 9978.36C6103.97 9981.88 6114.52 9986.56 6124.67 9992.42C6134.83 9997.89 6144.01 10003.9 6152.21 10010.6C6160.8 10016.8 6167.84 10022.9 6173.3 10028.8C6183.07 10039.3 6189.71 10053.6 6193.23 10071.5C6197.13 10089.1 6197.91 10107.3 6195.57 10126C6193.23 10144.4 6187.76 10161.8 6179.16 10178.2C6170.57 10194.6 6158.66 10206.7 6143.42 10214.5C6132.48 10220 6121.74 10224.3 6111.2 10227.4C6100.65 10230.5 6090.49 10232.9 6080.73 10234.4C6070.96 10236 6061.78 10236.8 6053.19 10236.8C6044.59 10236.8 6037.17 10236.6 6030.92 10236.2C6019.2 10235.4 6006.9 10231.3 5994.01 10223.9C5981.51 10216.4 5969.59 10207.3 5958.27 10196.3C5947.33 10185.4 5937.95 10173.5 5930.14 10160.6C5922.33 10147.3 5917.64 10134.8 5916.08 10123.1C5913.73 10107.1 5913.34 10090.3 5914.91 10072.7C5916.47 10055.1 5922.13 10038.9 5931.9 10024.1C5942.05 10009.2 5957.29 9996.91 5977.6 9987.15C5998.3 9977.38 6026.23 9972.5 6061.39 9972.5ZM6042.05 10199.8C6046.35 10200.6 6052.21 10199.6 6059.63 10196.9C6067.05 10193.8 6074.28 10188.9 6081.31 10182.3C6088.73 10175.6 6095.18 10167.2 6100.65 10157.1C6106.51 10146.5 6110.02 10133.8 6111.2 10119C6112.37 10104.5 6112.37 10091.2 6111.2 10079.1C6110.41 10067 6108.66 10056.5 6105.92 10047.5C6103.19 10038.1 6100.06 10030.5 6096.55 10024.6C6093.03 10018.8 6089.32 10014.7 6085.41 10012.3C6078.77 10008.8 6070.77 10006.1 6061.39 10004.1C6052.02 10001.8 6044.01 10002.2 6037.37 10005.3C6034.24 10006.9 6030.34 10010.2 6025.65 10015.3C6020.96 10020.4 6016.27 10026.8 6011.59 10034.6C6006.9 10042 6002.6 10050.6 5998.7 10060.4C5995.18 10070.2 5992.64 10080.3 5991.08 10090.9C5989.52 10101.4 5989.12 10112.7 5989.91 10124.8C5991.08 10137 5993.62 10148.5 5997.52 10159.4C6001.43 10170 6006.9 10179.1 6013.93 10187C6021.35 10194.4 6030.73 10198.7 6042.05 10199.8Z" fill="black"/>
<path d="M3553 13346.4C3563.31 13341.3 3572.17 13336.5 3579.58 13332.1C3587.31 13327.5 3593.66 13323.6 3598.63 13320.4C3604.55 13316.6 3609.56 13313.2 3613.67 13310.2C3617.78 13307.2 3623.39 13302.7 3630.52 13296.5C3636.38 13291.3 3644.02 13284.6 3653.44 13276.3C3663.18 13267.7 3674.83 13256.9 3688.39 13243.6C3684.89 13248.1 3683.42 13254.7 3683.99 13263.5C3684.65 13271.7 3685.97 13280.1 3687.95 13288.9C3690.21 13299.3 3693.52 13310.1 3697.88 13321.5C3701.87 13331.6 3707.52 13345.4 3714.84 13362.7C3722.47 13379.9 3731.02 13398.3 3740.49 13418C3750.28 13437.4 3760.93 13456.7 3772.43 13475.9C3783.71 13494.7 3795.22 13511.2 3806.96 13525.4C3819.02 13539.3 3830.98 13549.5 3842.84 13555.8C3854.47 13561.9 3865.41 13561.6 3875.66 13555.2C3891.43 13545.6 3903.87 13536.8 3912.98 13528.8C3922.17 13520.1 3929.13 13512.4 3933.84 13505.6C3938.55 13498.8 3941.61 13492.7 3943.02 13487.4C3944.2 13481.7 3944.71 13476.7 3944.54 13472.5C3944.31 13461.6 3942.75 13448.5 3939.86 13433.2C3936.96 13417.9 3933.78 13403.6 3930.31 13390.1C3927.16 13376.5 3924.36 13365 3921.92 13355.7C3919.49 13346.3 3918.38 13341.8 3918.61 13342.1C3919.07 13342.8 3921.55 13346.5 3926.06 13353.4C3930.65 13359.7 3936.12 13367.6 3942.46 13377C3948.89 13385.8 3955.51 13395.2 3962.31 13405.3C3969.43 13415.1 3975.36 13423.6 3980.09 13430.7C3983.91 13436.7 3988.19 13443.2 3992.92 13450.4C3996.97 13456.6 4001.82 13464 4007.47 13472.4C4013.45 13480.6 4019.67 13489.9 4026.16 13500.1C4012.2 13508.8 3999.1 13517.4 3986.86 13525.8C3974.62 13534.2 3963.92 13541.7 3954.76 13548.4C3944.01 13556.2 3934.18 13563.6 3925.24 13570.6C3915.67 13578 3904.64 13586.7 3892.15 13596.8C3881.54 13605.4 3868.37 13616.2 3852.63 13629.1C3836.66 13641.7 3818.39 13656.4 3797.82 13673.3C3797.13 13667 3796.2 13661.4 3795.02 13656.5C3794.16 13651.3 3793.29 13647.1 3792.4 13643.9C3791.37 13639.8 3790.21 13636.6 3788.91 13634.1C3783.46 13622.6 3775.74 13608.7 3765.75 13592.3C3755.54 13575.6 3744.31 13558.1 3732.09 13540C3720.18 13521.6 3707.56 13503.2 3694.24 13484.9C3681.01 13466 3668.5 13448.8 3656.7 13433.2C3644.9 13417.7 3634.28 13404.4 3624.84 13393.4C3615.71 13382.1 3608.9 13374.8 3604.43 13371.3C3599.17 13367.4 3593.6 13363.7 3587.71 13360.2C3582.6 13357.2 3577.02 13354.5 3570.96 13352.1C3564.99 13349.2 3559 13347.3 3553 13346.4ZM4138.32 13329.5C4147.17 13323.1 4154.7 13316.2 4160.9 13308.8C4166.07 13302.6 4170.24 13295.7 4173.4 13288.1C4176.65 13279.9 4176.58 13271.5 4173.2 13262.9C4180.44 13259.6 4186.61 13256.8 4191.72 13254.5C4196.61 13251.9 4200.86 13249.8 4204.48 13248.1C4208.64 13246.6 4212.1 13245 4214.86 13243.5C4217.85 13242.3 4221.31 13240.7 4225.25 13238.8C4228.87 13237.2 4233.23 13235.2 4238.34 13232.9C4243.54 13230.1 4249.76 13227.1 4257 13223.7C4251.8 13226.5 4247.25 13230.6 4243.34 13235.8C4239.75 13240.9 4236.43 13245.9 4233.38 13251C4229.93 13256.9 4227.15 13263 4225.02 13269.4C4223.55 13273.4 4222.3 13278.6 4221.26 13285.2C4220.54 13291.5 4218.13 13298.8 4214.02 13307.1C4209.91 13315.4 4203.24 13324.8 4194.02 13335.4C4184.88 13345.4 4171.55 13356.3 4154.03 13368.1C4133.03 13382.4 4113.17 13391.3 4094.44 13394.7C4075.48 13397.9 4058.18 13397.7 4042.53 13394.1C4026.65 13390.1 4012.56 13383.7 4000.28 13374.8C3987.99 13365.9 3978.01 13356.4 3970.35 13346.6C3962.68 13336.7 3957.99 13323.9 3956.28 13308.3C3954.56 13292.6 3956.06 13276.1 3960.78 13258.6C3965.81 13241 3974.48 13223.3 3986.77 13205.7C3998.84 13187.8 4014.67 13171.7 4034.27 13157.4C4045.64 13149.2 4057.1 13143 4068.65 13139C4080.28 13134.4 4091.66 13131.4 4102.77 13130.1C4114.2 13128.6 4124.99 13128.4 4135.13 13129.8C4145.03 13130.8 4154.11 13132.6 4162.35 13135.3C4170.82 13138.4 4178.89 13142.1 4186.56 13146.7C4193.22 13150.6 4199.98 13155.6 4206.84 13161.7C4213.7 13167.8 4219.57 13174.9 4224.45 13182.9C4200.89 13201 4181.8 13215.6 4167.18 13226.7C4152.87 13237.6 4141.61 13246 4133.4 13252L4112.07 13267.5L4095.95 13279.2C4090.26 13283.3 4082.95 13288.9 4074.02 13295.9C4065.08 13302.8 4054.21 13311.5 4041.4 13321.7C4052.16 13333.2 4063.23 13340.1 4074.6 13342.5C4086.06 13344.3 4096.69 13344.3 4106.48 13342.5C4117.45 13340.3 4128.06 13336 4138.32 13329.5ZM4033.66 13275.2C4044.23 13268.5 4052.95 13262.9 4059.82 13258.4C4067 13253.6 4072.91 13249.8 4077.57 13246.9C4082.54 13243.8 4086.44 13241.2 4089.29 13239.1L4101.14 13230.5C4109.04 13224.8 4123.39 13213.6 4144.19 13197.1C4133.14 13183.8 4122.44 13175.4 4112.1 13171.8C4102.08 13168 4093.12 13166.3 4085.23 13166.8C4076.15 13167.6 4067.59 13170.4 4059.55 13175.3C4039.24 13190.5 4027.01 13205.9 4022.87 13221.5C4019.04 13236.8 4022.64 13254.7 4033.66 13275.2ZM4416.51 12936.9C4410.97 12931.3 4406.39 12926.6 4402.77 12923C4398.92 12919 4395.77 12916 4393.3 12913.9C4390.37 12911.2 4388.17 12909.2 4386.71 12907.8C4384.93 12906.7 4382.88 12905.6 4380.55 12904.3C4378.77 12903.2 4376.29 12902.1 4373.1 12901.1C4370.23 12899.8 4366.81 12898.4 4362.85 12896.9C4367.87 12895.2 4372.56 12893 4376.89 12890.3C4381.55 12887.4 4385.89 12884.8 4389.91 12882.3C4394.25 12879.7 4398.51 12876.6 4402.71 12873C4407.13 12869.8 4412.07 12866 4417.53 12861.5C4422.36 12857.6 4428.25 12853 4435.2 12848C4442.24 12842.4 4450.11 12835.9 4458.81 12828.6C4454.36 12833.8 4451.38 12839.4 4449.89 12845.3C4448.48 12850.6 4447.77 12856 4447.77 12861.3C4447.68 12867.2 4448.3 12873 4449.62 12878.8C4451.02 12884 4455.81 12892.6 4463.99 12904.6C4471.95 12916.2 4481.82 12929.7 4493.62 12945.3C4505.18 12960.6 4517.67 12977.1 4531.08 12994.9C4544.8 13012.4 4557.63 13029.4 4569.57 13045.8C4581.82 13062.1 4592.73 13077.1 4602.29 13090.9C4611.62 13104.4 4617.95 13114.8 4621.28 13122C4631.32 13145.1 4634.81 13167.2 4631.76 13188.3C4628.94 13209.6 4618.07 13227.9 4599.17 13243.1C4576.16 13261.2 4555.75 13272.7 4537.94 13277.4C4520.45 13281.9 4505.04 13283 4491.72 13280.6C4478.62 13278.5 4467.31 13274.9 4457.77 13269.8C4448.24 13264.6 4439.93 13261.5 4432.84 13260.4C4426.52 13259.7 4420.31 13259.1 4414.23 13258.7C4408.91 13258.7 4403.44 13258.8 4397.81 13259C4392.5 13259 4387.88 13260 4383.94 13261.9C4393.33 13255.5 4401.66 13249.7 4408.93 13244.4C4416.2 13239.1 4422.36 13234.7 4427.42 13231C4433.11 13226.9 4438.05 13223 4442.24 13219.5L4457.41 13208.5L4500.55 13177.1C4495.6 13183.6 4492.36 13189.1 4490.8 13193.6C4489.48 13198.4 4489.11 13202.6 4489.68 13206C4490.48 13209.8 4491.92 13213.1 4493.98 13215.9C4500.76 13222.6 4508.88 13225.1 4518.36 13223.6C4527.84 13222 4538.81 13217.2 4551.28 13209.1C4563.43 13201.2 4571.26 13195 4574.77 13190.6C4578.5 13186.4 4580.6 13182 4581.06 13177.3C4580.61 13166 4577.75 13153.1 4572.5 13138.6C4567.68 13126.7 4559.89 13112.3 4549.13 13095.5C4538.45 13078.1 4522.45 13059.1 4501.12 13038.4C4501.11 13059.6 4497 13078.5 4488.77 13095.1C4480.55 13111.7 4471.59 13126 4461.88 13137.9C4450.18 13151.7 4437.07 13163.9 4422.53 13174.4C4383.15 13200.6 4348.12 13212.6 4317.45 13210.2C4286.78 13207.9 4262.36 13192.6 4244.19 13164.2C4235.26 13150 4229.5 13133.4 4226.89 13114.5C4224.6 13095.4 4225.56 13076.1 4229.76 13056.7C4234.27 13037 4242.14 13018.2 4253.34 13000.4C4264.55 12982.6 4279.03 12968 4296.78 12956.5C4310.66 12948.4 4324.55 12941.9 4338.45 12937.1C4350.54 12933.2 4363.39 12930.6 4377.01 12929.4C4390.94 12927.9 4404.1 12930.4 4416.51 12936.9ZM4300.22 13093.8C4307.28 13107.5 4316.45 13118.5 4327.73 13126.7C4339.33 13134.7 4351.32 13140.2 4363.7 13143.3C4375.84 13146.1 4387.63 13146.7 4399.06 13145.1C4410.27 13143.3 4419.39 13139.5 4426.42 13133.9C4441.36 13122.6 4449.54 13106.3 4450.96 13085C4452.14 13063.3 4444.08 13038.3 4426.78 13009.8C4418.08 12995.9 4408.07 12985.7 4396.76 12979.5C4385.53 12972.7 4374.58 12968.6 4363.9 12967.1C4353.21 12965.7 4343.48 12966.3 4334.69 12968.8C4325.9 12971.3 4319.57 12974.3 4315.69 12977.6C4310.46 12982.3 4305.4 12988.7 4300.52 12996.5C4295.72 13003.9 4292.11 13012.6 4289.69 13022.5C4287.05 13032.2 4286.3 13043.1 4287.44 13055.3C4288.9 13067.3 4293.16 13080.1 4300.22 13093.8ZM4658.34 12654.7C4660.55 12663.7 4662.61 12671.9 4664.53 12679.2C4666.77 12686.2 4668.7 12692.5 4670.34 12698.1C4672.43 12704.3 4674.23 12709.8 4675.72 12714.5C4677.67 12719.8 4679.92 12725.9 4682.47 12732.8C4684.57 12739 4687.11 12746.8 4690.09 12756.2C4693.16 12765.1 4696.79 12775.7 4700.98 12788.1C4687.43 12774.8 4674.12 12766.1 4661.05 12762.1C4647.76 12757.7 4635.8 12755.6 4625.17 12755.6C4612.82 12755.8 4600.99 12758.2 4589.67 12762.5C4570.54 12772.1 4558.44 12781.4 4553.39 12790.3C4548.33 12799.3 4546.49 12807.4 4547.86 12814.6C4548.21 12817.8 4548.85 12821.6 4549.8 12826.3C4550.83 12830.3 4552.13 12834.5 4553.71 12838.6C4555.61 12842.6 4557.97 12846.2 4560.81 12849.4C4563.66 12852.7 4567.15 12854.5 4571.28 12854.8C4574.01 12855.3 4579.72 12854.5 4588.43 12852.5C4596.9 12850.2 4606.98 12847.5 4618.67 12844.3C4630.45 12840.6 4642.93 12836.8 4656.11 12833C4669.61 12829 4682.48 12825.5 4694.72 12822.4C4706.95 12819.3 4717.92 12817.1 4727.63 12815.8C4737.34 12814.6 4744.45 12814.7 4748.95 12816.3C4753.15 12818 4758.3 12820.8 4764.42 12824.6C4770.62 12827.8 4776.49 12832.2 4782.03 12837.9C4787.66 12842.9 4792.57 12849 4796.76 12856.1C4801.03 12862.7 4803.89 12870.3 4805.32 12878.9C4806.75 12887.5 4805.94 12897 4802.9 12907.4C4800.16 12917.6 4794.37 12928.6 4785.52 12940.3C4775.23 12954.1 4763.24 12964.5 4749.54 12971.6C4735.84 12978.6 4722.39 12984 4709.21 12987.8C4696.34 12991.4 4684.85 12994.2 4674.74 12996.2C4664.4 12997.9 4657.88 13000.3 4655.18 13003.2C4652.17 13006.4 4649.48 13011 4647.12 13017C4644.76 13023.1 4642.68 13029.2 4640.87 13035.3C4639.14 13040.9 4637.78 13046 4636.77 13050.6C4635.53 13054.9 4634.68 13056.7 4634.23 13056.1C4633.77 13055.5 4632.86 13053.2 4631.51 13049.4C4630.48 13045.3 4628.99 13040.6 4627.04 13035.2C4625.17 13029.3 4622.92 13023.3 4620.28 13017C4617.73 13010.1 4614.93 13004 4611.89 12998.4C4609.54 12993.9 4606.65 12988.2 4603.24 12981.5C4599.97 12975.7 4596.05 12968.7 4591.49 12960.4C4587.01 12951.6 4581.54 12941.1 4575.09 12928.8C4582.64 12935.9 4590.01 12941.4 4597.22 12945.4C4604.74 12949.1 4611.54 12952.1 4617.59 12954.5C4624.74 12957 4631.16 12958.8 4636.85 12960C4644.8 12961 4653.32 12961.1 4662.39 12960.3C4671.79 12959.3 4680.83 12957.8 4689.54 12955.8C4698.01 12953.5 4705.48 12950.5 4711.94 12946.7C4718.4 12943 4723 12938.7 4725.73 12933.8C4728.46 12928.9 4729.41 12922.9 4728.58 12915.8C4728.07 12908.5 4726.26 12901.3 4723.16 12894.4C4720.06 12887.5 4716.4 12881.4 4712.18 12876.3C4707.73 12870.8 4702.98 12867.3 4697.93 12865.7C4694.43 12864.8 4687.93 12865.2 4678.46 12866.8C4669.29 12868.1 4658.48 12870.2 4646.02 12873C4633.87 12875.5 4620.97 12878.4 4607.33 12881.5C4594 12884.4 4581.15 12887 4568.77 12889.3C4556.48 12890.9 4545.84 12891.9 4536.85 12892.2C4527.94 12891.9 4521.91 12890.2 4518.75 12887.2C4514.45 12882.6 4509.96 12877.4 4505.28 12871.7C4500.37 12865.6 4496.21 12859.2 4492.79 12852.5C4489.46 12845.2 4487.31 12837.6 4486.34 12829.6C4485.68 12821.4 4487.29 12813 4491.17 12804.4C4493.76 12798.7 4498.23 12792.5 4504.58 12786C4510.93 12779.4 4518.53 12772.9 4527.38 12766.5C4535.99 12759.8 4545.39 12753.4 4555.56 12747.5C4565.5 12741.2 4575.19 12735.6 4584.64 12730.7C4594.18 12725.2 4603 12720.7 4611.1 12717.3C4619.51 12713.6 4626.08 12711 4630.79 12709.5C4636.36 12707.8 4641.22 12704.5 4645.35 12699.6C4649.09 12695.4 4652.34 12690 4655.1 12683.1C4657.85 12676.3 4658.94 12666.8 4658.34 12654.7Z" fill="black"/>
</svg>
